<svg width="317" height="252" viewBox="0 0 317 252" fill="none" xmlns="http://www.w3.org/2000/svg">
<g clip-path="url(#clip0)">
<path opacity="0.1" d="M185.91 42.5867C165.852 41.8894 146.745 35.4156 128.503 28.3312C110.261 21.2468 92.1925 13.397 72.6148 9.6441C60.0227 7.22996 45.6207 6.88907 35.4769 13.6387C25.7113 20.1467 22.5563 31.3496 20.861 41.7562C19.5842 49.5843 18.8342 57.8215 22.3332 65.1507C24.7598 70.2393 29.0709 74.5159 32.0492 79.4062C42.4223 96.364 35.0926 117.276 23.8518 133.834C18.5831 141.604 12.4622 149.019 8.396 157.281C4.32984 165.543 2.44551 175.023 6.00341 183.459C9.53341 191.826 17.9416 198.099 27.0471 202.515C45.5463 211.486 67.3368 214.052 88.6005 215.506C135.656 218.726 182.959 217.331 230.139 215.937C247.599 215.419 265.135 214.895 282.311 212.196C291.85 210.696 301.696 208.319 308.623 202.574C317.412 195.282 319.591 182.932 313.703 173.79C303.819 158.453 276.512 154.644 269.595 138.182C265.795 129.124 269.7 119.033 275.223 110.629C287.074 92.6049 306.937 76.7906 307.985 56.1883C308.704 42.0351 299.152 27.8663 284.387 21.1694C268.913 14.1253 247.448 15.0178 236.036 26.636C224.278 38.6075 203.619 43.2003 185.91 42.5867Z" fill="#E9C46A"/>
<path d="M134.955 213.987L28.8754 213.47L18.335 188.749L55.6061 186.043L49.1102 158.939L122.828 149.385L52.2373 124.847L58.4729 123.366L171.982 141.882L165.73 184.181L156.795 207.427L134.955 213.987Z" fill="#E9C46A"/>
<path d="M30.5024 203.116C30.5024 203.116 37.0108 202.075 40.9158 206.674C40.9158 206.674 38.0521 208.93 31.8909 205.806L30.5024 203.116Z" fill="#E9C46A"/>
<path d="M29.8208 203.014C29.8208 203.014 25.6679 208.124 27.7133 213.814C27.7133 213.814 31.0977 212.459 31.4665 205.561L29.8208 203.014Z" fill="#E9C46A"/>
<path d="M26.0894 194.612C26.0894 194.612 28.6927 189.837 39.1061 196.521C39.1061 196.521 37.7176 199.732 33.1184 199.472C28.5191 199.211 27.3042 197.129 26.0894 194.612Z" fill="#E9C46A"/>
<path d="M25.4164 194.268C25.4164 194.268 20.0145 193.649 19.4907 206.014C19.4907 206.014 22.9154 206.723 25.3482 202.812C27.7811 198.901 26.7832 196.707 25.4164 194.268Z" fill="#E9C46A"/>
<path d="M22.271 184.404C22.271 184.404 25.3082 175.987 36.329 181.975C36.329 181.975 33.8125 189.697 23.3991 187.268L22.271 184.404Z" fill="#E9C46A"/>
<path d="M18.8867 171.822C18.8867 171.822 24.6141 163.318 34.7671 171.202C34.7671 171.202 31.2092 179.185 19.7545 174.847L18.8867 171.822Z" fill="#E9C46A"/>
<path d="M17.6719 159.848C17.6719 159.848 24.3538 152.035 34.4076 159.848C34.4076 159.848 28.0728 166.703 17.6719 161.843V159.848Z" fill="#E9C46A"/>
<path d="M16.6304 148.217C16.6304 148.217 23.3991 140.06 33.0314 147.783C33.0314 147.783 25.3949 154.985 16.6304 150.126V148.217Z" fill="#E9C46A"/>
<path d="M17.2378 137.891C17.2378 137.891 24.366 127.391 33.3785 134.507C33.3785 134.507 25.742 143.531 17.2378 139.887V137.891Z" fill="#E9C46A"/>
<path d="M18.8867 125.83C18.8867 125.83 26.4364 115.417 35.201 123.4C35.201 123.4 26.2628 132.424 18.8867 127.739V125.83Z" fill="#E9C46A"/>
<path d="M21.4032 115.048C21.4032 115.048 30.3413 105.261 38.1389 109.16C38.1389 109.16 28.8258 119.554 21.0127 117.645L21.4032 115.048Z" fill="#E9C46A"/>
<path d="M24.5273 104.827C24.5273 104.827 34.8415 92.8404 40.8416 96.8444C40.8416 96.8444 33.2423 106.141 23.7959 107.071L24.5273 104.827Z" fill="#E9C46A"/>
<path d="M29.0365 92.9737C29.0365 92.9737 38.0645 83.187 44.6596 85.6166C44.6596 85.6166 36.9364 95.769 27.8247 96.0293L29.0365 92.9737Z" fill="#E9C46A"/>
<path d="M33.1185 81.8853C33.1185 81.8853 43.0979 72.5139 47.4368 74.1626C47.4368 74.1626 40.2343 84.5753 32.6846 83.9679L33.1185 81.8853Z" fill="#E9C46A"/>
<path d="M37.1099 71.6463C37.1099 71.6463 45.7009 60.4495 50.39 61.3172C50.39 61.3172 45.1802 71.2992 37.1099 72.7836V71.6463Z" fill="#E9C46A"/>
<path d="M41.4429 57.8402C41.4429 57.8402 49.036 49.259 53.1393 49.2776C53.1393 49.2776 47.1455 60.744 41.1299 60.6386L41.4429 57.8402Z" fill="#E9C46A"/>
<path d="M44.009 48.6483L51.3449 30.7732C51.3449 30.7732 51.7106 46.9315 43.0762 51.9643L44.009 48.6483Z" fill="#E9C46A"/>
<path d="M46.9871 28.9355C46.9871 28.9355 48.202 14.0075 47.421 12.7927C47.421 12.7927 52.6648 25.2043 46.9375 35.5302L46.9871 28.9355Z" fill="#E9C46A"/>
<path d="M21.9857 184.206C21.9857 184.206 14.3802 179.492 9.45557 191.024C9.45557 191.024 16.2243 195.517 22.8814 187.147L21.9857 184.206Z" fill="#E9C46A"/>
<path d="M18.6416 171.342C18.6416 171.342 9.31294 167.087 4.78809 179.126C4.78809 179.126 11.9938 184.085 19.4908 174.385L18.6416 171.342Z" fill="#E9C46A"/>
<path d="M17.2377 160.563C17.2377 160.563 10.5558 152.751 0.501953 160.563C0.501953 160.563 6.83675 167.418 17.2377 162.559V160.563Z" fill="#E9C46A"/>
<path d="M16.401 148.217C16.401 148.217 9.63236 140.06 0 147.783C0 147.783 7.63646 154.985 16.401 150.126V148.217Z" fill="#E9C46A"/>
<path d="M17.2378 138.188C17.2378 138.188 12.4898 126.428 2.16943 131.485C2.16943 131.485 7.74802 141.913 16.8163 140.141L17.2378 138.188Z" fill="#E9C46A"/>
<path d="M19.485 125.771C19.485 125.771 14.7649 113.805 4.29883 119.353C4.29883 119.353 10.708 130.32 19.0201 127.618L19.485 125.771Z" fill="#E9C46A"/>
<path d="M22.4104 115.107C22.4104 115.107 20.5508 101.989 11.873 100.814C11.873 100.814 13.714 114.648 21.242 117.471L22.4104 115.107Z" fill="#E9C46A"/>
<path d="M24.7471 104.852C24.7471 104.852 24.0218 89.0472 16.8472 88.4956C16.8472 88.4956 17.0889 100.492 23.9382 107.09L24.7471 104.852Z" fill="#E9C46A"/>
<path d="M29.7802 92.5307C29.7802 92.5307 27.6417 79.3878 20.7925 77.7825C20.7925 77.7825 21.6417 90.5101 29.1015 95.7568L29.7802 92.5307Z" fill="#E9C46A"/>
<path d="M33.9301 81.994C33.9301 81.994 33.8588 68.3025 29.6749 66.2913C29.6749 66.2913 27.0808 78.6873 32.7183 83.7418L33.9301 81.994Z" fill="#E9C46A"/>
<path d="M37.429 71.4914C37.429 71.4914 36.8433 57.3939 32.5106 55.4075C32.5106 55.4075 31.0292 66.5639 36.7813 72.4149L37.429 71.4914Z" fill="#E9C46A"/>
<path d="M42.047 58.9652C42.047 58.9652 42.0222 47.4988 38.9292 44.8088C38.9292 44.8088 35.8548 57.3692 40.4323 61.2708L42.047 58.9652Z" fill="#E9C46A"/>
<path d="M43.646 48.0845L40.6366 29.0007C40.6366 29.0007 36.5488 44.6384 43.7885 51.5306L43.646 48.0845Z" fill="#E9C46A"/>
<path d="M44.2321 29.1154C44.2321 29.1154 36.5089 16.2854 36.6669 14.8599C36.6669 14.8599 37.4882 28.3065 47.2043 35.0035L44.2321 29.1154Z" fill="#E9C46A"/>
<path d="M45.1367 25.3253C45.1367 25.3253 37.8474 7.10306 34.5498 5.62793C34.5498 5.62793 44.9632 10.9211 45.7442 24.8047L45.1367 25.3253Z" fill="#E9C46A"/>
<path d="M41.0927 60.747L40.5938 60.5951C46.7457 40.5351 48.2798 27.7455 44.9172 24.538L45.2736 24.1599C48.8408 27.544 47.3934 40.1942 41.0927 60.747Z" fill="#444053"/>
<path d="M24.1522 107.716L23.4146 107.452C24.0685 105.615 24.772 103.749 25.5096 101.911C31.9312 85.908 37.3982 71.0203 40.9034 59.5912L41.545 59.2812C38.0335 70.7321 32.6626 86.1901 26.2348 102.215C25.5003 104.019 24.7999 105.875 24.1522 107.716Z" fill="#444053"/>
<path d="M39.6728 218.128C39.5736 218.019 29.6035 206.791 22.6519 187.624C18.5788 176.402 16.3119 164.605 15.9359 152.673C15.4587 137.758 18.5889 121.104 23.9505 105.974L24.5332 106.656C12.4958 140.612 17.2779 169.709 23.622 187.23C30.4992 206.224 40.3577 217.328 40.4538 217.44L39.6728 218.128Z" fill="#444053"/>
<path d="M195.477 194.29C195.477 194.29 188.451 202.865 194.029 215.828L137.934 240.156L132.55 241.284L130.071 230.437L131.729 216.749V209.268L195.477 194.29Z" fill="#D5D6DB"/>
<path d="M18.335 188.749L95.9765 174.596L198.855 190.983L134.955 213.987L18.335 188.749Z" fill="#E9C46A"/>
<path d="M18.335 188.749L95.9765 174.596L198.855 190.983L134.955 213.987L18.335 188.749Z" fill="#E9C46A"/>
<path d="M18.335 188.746C18.335 188.746 11.0735 202.502 19.4414 215.208L134.577 240.156C134.577 240.156 127.43 229.197 134.946 213.987L18.335 188.746Z" fill="#E9C46A"/>
<path opacity="0.1" d="M18.335 188.746C18.335 188.746 11.0735 202.502 19.4414 215.208L134.577 240.156C134.577 240.156 127.43 229.197 134.946 213.987L18.335 188.746Z" fill="black"/>
<path opacity="0.1" d="M21.7658 193.515C21.7658 193.515 17.6159 203.581 21.7658 210.095V193.515Z" fill="black"/>
<path d="M134.577 240.156L198.855 212.729C198.855 212.729 202.45 213.504 200.126 216.138C197.801 218.772 135.817 242.79 135.817 242.79L19.4414 215.208L134.577 240.156Z" fill="#E9C46A"/>
<path opacity="0.1" d="M134.577 240.156L198.855 212.729C198.855 212.729 202.45 213.504 200.126 216.138C197.801 218.772 135.817 242.79 135.817 242.79L19.4414 215.208L134.577 240.156Z" fill="black"/>
<path opacity="0.1" d="M129.309 216.758C129.309 216.758 123.11 224.196 129.309 235.352V216.758Z" fill="black"/>
<path opacity="0.1" d="M159.317 216.632L131.515 225.907L131.613 226.201L159.415 216.926L159.317 216.632Z" fill="black"/>
<path opacity="0.1" d="M164.886 215.709L131.506 228.402L131.616 228.692L164.996 215.999L164.886 215.709Z" fill="black"/>
<path opacity="0.1" d="M170 215.665L131.692 231.344L131.809 231.631L170.118 215.951L170 215.665Z" fill="black"/>
<path opacity="0.1" d="M175.562 214.322L132.139 233.936L132.267 234.218L175.689 214.605L175.562 214.322Z" fill="black"/>
<path opacity="0.1" d="M180.234 214.328L132.483 235.199L132.607 235.483L180.358 214.612L180.234 214.328Z" fill="black"/>
<path opacity="0.1" d="M190.454 212.593L133.203 237.319L133.326 237.603L190.577 212.878L190.454 212.593Z" fill="black"/>
<path opacity="0.3" d="M47.1792 190.261L101.725 178.795L134.955 185.148L90.2583 199.558L47.1792 190.261Z" fill="white"/>
<path d="M198.855 190.983C198.855 190.983 201.675 192.121 200.02 193.878C198.365 195.635 134.946 213.987 134.946 213.987L198.855 190.983Z" fill="#E9C46A"/>
<path d="M226.249 164.484C226.249 164.484 219.226 173.056 224.805 186.022L168.709 210.349L163.326 211.483L160.846 200.637L162.529 186.952V179.461L226.249 164.484Z" fill="#D5D6DB"/>
<path d="M49.1104 158.939L126.749 144.789L229.63 161.177L165.731 184.181L49.1104 158.939Z" fill="#F4A261"/>
<path d="M49.0979 158.939C49.0979 158.939 41.8333 172.696 50.2012 185.402L165.337 210.349C165.337 210.349 158.193 199.382 165.718 184.178L49.0979 158.939Z" fill="#F4A261"/>
<path opacity="0.1" d="M49.0979 158.939C49.0979 158.939 41.8333 172.696 50.2012 185.402L165.337 210.349C165.337 210.349 158.193 199.382 165.718 184.178L129.309 176.297L49.0979 158.939Z" fill="#F4A261"/>
<path opacity="0.1" d="M52.5378 163.709C52.5378 163.709 48.3911 173.772 52.5378 180.289V163.709Z" fill="black"/>
<path d="M165.349 210.349L229.63 182.923C229.63 182.923 233.222 183.698 230.898 186.332C228.573 188.966 166.589 212.983 166.589 212.983L50.2134 185.402L165.349 210.349Z" fill="#F4A261"/>
<path opacity="0.1" d="M165.349 210.349L229.63 182.923C229.63 182.923 233.222 183.698 230.898 186.332C228.573 188.966 166.589 212.983 166.589 212.983L50.2134 185.402L165.349 210.349Z" fill="black"/>
<path opacity="0.1" d="M160.081 186.952C160.081 186.952 153.882 194.389 160.081 205.546V186.952Z" fill="black"/>
<path opacity="0.1" d="M190.092 186.829L162.289 196.104L162.387 196.398L190.19 187.123L190.092 186.829Z" fill="black"/>
<path opacity="0.1" d="M195.664 185.905L162.284 198.597L162.394 198.887L195.775 186.194L195.664 185.905Z" fill="black"/>
<path opacity="0.1" d="M200.774 185.856L162.466 201.535L162.583 201.822L200.891 186.143L200.774 185.856Z" fill="black"/>
<path opacity="0.1" d="M206.339 184.514L162.917 204.128L163.044 204.41L206.467 184.796L206.339 184.514Z" fill="black"/>
<path opacity="0.1" d="M211.007 184.516L163.256 205.387L163.38 205.671L211.131 184.8L211.007 184.516Z" fill="black"/>
<path opacity="0.1" d="M221.229 182.781L163.979 207.506L164.101 207.791L221.352 183.065L221.229 182.781Z" fill="black"/>
<path opacity="0.45" d="M77.9546 160.455L132.501 148.989L165.731 155.342L121.034 169.752L77.9546 160.455Z" fill="white"/>
<path d="M229.63 161.177C229.63 161.177 232.447 162.314 230.795 164.068C229.143 165.822 165.73 184.178 165.73 184.178L229.63 161.177Z" fill="#F4A261"/>
<path d="M229.162 130.385C229.162 130.385 222.136 145.778 227.715 158.741L171.619 176.251L166.248 177.388L163.769 166.541L165.427 152.853V145.363L229.162 130.385Z" fill="#D5D6DB"/>
<path d="M52.0327 124.844L129.674 110.691L232.556 127.079L168.653 150.083L52.0327 124.844Z" fill="#E9C46A"/>
<path d="M52.0326 124.841C52.0326 124.841 44.7587 138.598 53.1266 151.304L168.262 176.251C168.262 176.251 161.116 165.283 168.64 150.083L52.0326 124.841Z" fill="#E9C46A"/>
<path opacity="0.1" d="M52.0326 124.841C52.0326 124.841 44.7587 138.598 53.1266 151.304L168.262 176.251C168.262 176.251 161.116 165.283 168.64 150.083L52.0326 124.841Z" fill="black"/>
<path opacity="0.1" d="M55.4635 129.61C55.4635 129.61 51.3137 139.676 55.4635 146.19V129.61Z" fill="black"/>
<path d="M168.275 176.251L232.553 155.642C232.553 155.642 236.148 156.417 233.823 159.051C231.499 161.685 169.515 178.885 169.515 178.885L53.1392 151.303L168.275 176.251Z" fill="#E9C46A"/>
<path opacity="0.1" d="M168.275 176.251L232.553 155.642C232.553 155.642 236.148 156.417 233.823 159.051C231.499 161.685 169.515 178.885 169.515 178.885L53.1392 151.303L168.275 176.251Z" fill="black"/>
<path opacity="0.1" d="M163.006 152.853C163.006 152.853 156.808 160.291 163.006 171.447V152.853Z" fill="black"/>
<path opacity="0.1" d="M193.019 152.73L165.216 162.005L165.314 162.299L193.117 153.024L193.019 152.73Z" fill="black"/>
<path opacity="0.1" d="M198.589 151.807L165.208 164.5L165.319 164.789L198.699 152.097L198.589 151.807Z" fill="black"/>
<path opacity="0.1" d="M203.696 151.76L165.388 167.439L165.505 167.726L203.813 152.047L203.696 151.76Z" fill="black"/>
<path opacity="0.1" d="M209.265 150.415L165.842 170.029L165.97 170.311L209.392 150.697L209.265 150.415Z" fill="black"/>
<path opacity="0.1" d="M213.935 150.421L166.184 171.291L166.308 171.575L214.059 150.705L213.935 150.421Z" fill="black"/>
<path opacity="0.1" d="M224.155 148.687L166.905 173.413L167.028 173.697L224.278 148.971L224.155 148.687Z" fill="black"/>
<path opacity="0.3" d="M80.877 126.357L135.423 114.89L168.653 121.243L123.956 135.654L80.877 126.357Z" fill="white"/>
<path d="M232.552 127.078C232.552 127.078 235.373 128.216 233.718 129.973C232.063 131.73 168.653 150.082 168.653 150.082L232.552 127.078Z" fill="#E9C46A"/>
<path d="M96.2057 33.0045C96.2057 33.0045 84.4287 32.2948 85.8047 40.5568C85.8047 40.5568 85.5289 42.0165 86.8522 42.6797C86.8522 42.6797 86.8739 42.0598 88.0609 42.2737C88.4845 42.3464 88.9154 42.3673 89.344 42.3357C89.9218 42.2961 90.4711 42.0699 90.9091 41.6911C90.9091 41.6911 94.2222 40.3213 95.5114 34.9042C95.5114 34.9042 96.466 33.7235 96.4412 33.4198L94.4453 34.2689C94.4453 34.2689 95.124 35.7038 94.591 36.8969C94.591 36.8969 94.5259 34.3216 94.1416 34.3805C94.0641 34.3805 93.1096 34.8794 93.1096 34.8794C93.1096 34.8794 94.278 37.3803 93.3947 39.1964C93.3947 39.1964 93.7294 36.1159 92.7438 35.0592L91.343 35.8773C91.343 35.8773 92.7098 38.4588 91.7831 40.5661C91.7831 40.5661 92.0217 37.3338 91.0486 36.0756L89.7779 37.0673C89.7779 37.0673 91.0641 39.6116 90.28 41.3595C90.28 41.3595 90.1777 37.5973 89.5052 37.3122C89.5052 37.3122 88.3925 38.2914 88.2252 38.6943C88.2252 38.6943 89.1054 40.5537 88.5568 41.5175C88.5568 41.5175 88.2252 39.0104 87.937 38.998C87.937 38.998 86.8305 40.6591 86.7159 41.7871C86.7695 40.7355 87.0975 39.7162 87.6673 38.8307C87.0297 38.9513 86.4413 39.2562 85.9752 39.7077C85.9752 39.7077 86.1456 38.5332 87.9432 38.4309C87.9432 38.4309 88.8574 37.1696 89.1023 37.0952C89.1023 37.0952 87.314 36.9434 86.2324 37.4237C86.2324 37.4237 87.187 36.3174 89.4277 36.8039L90.6674 35.7812C90.6674 35.7812 88.3182 35.4713 87.3202 35.8153C87.3202 35.8153 88.47 34.836 91.0052 35.5488L92.3719 34.7338C92.3719 34.7338 90.3667 34.303 89.1736 34.458C89.1736 34.458 90.4318 33.7793 92.7717 34.5137L93.7449 34.0768C93.7449 34.0768 92.279 33.7886 91.8482 33.7421C91.4174 33.6956 91.3957 33.5778 91.3957 33.5778C92.3261 33.425 93.2807 33.5323 94.154 33.8877C94.154 33.8877 96.246 33.1347 96.2057 33.0045Z" fill="#E9C46A"/>
<path opacity="0.1" d="M261.89 66.9637C261.89 66.9637 250.113 66.2541 251.489 74.516C251.489 74.516 251.213 75.9757 252.536 76.6389C252.536 76.6389 252.558 76.0191 253.745 76.2329C254.169 76.304 254.599 76.3248 255.028 76.2949C255.601 76.2527 256.144 76.0266 256.578 75.6503C256.578 75.6503 259.894 74.2805 261.18 68.8634C261.18 68.8634 262.135 67.6827 262.11 67.379L260.12 68.2281C260.12 68.2281 260.799 69.663 260.266 70.8561C260.266 70.8561 260.201 68.2808 259.819 68.3397C259.742 68.3397 258.784 68.8386 258.784 68.8386C258.784 68.8386 259.953 71.3396 259.073 73.1556C259.073 73.1556 259.407 70.0752 258.419 69.0184L257.018 69.8365C257.018 69.8365 258.385 72.418 257.458 74.5253C257.458 74.5253 257.697 71.2931 256.723 70.0349L255.456 71.0265C255.456 71.0265 256.739 73.5708 255.955 75.3187C255.955 75.3187 255.852 71.5565 255.18 71.2714C255.18 71.2714 254.07 72.2507 253.9 72.6535C253.9 72.6535 254.78 74.513 254.235 75.4767C254.235 75.4767 253.9 72.9696 253.615 72.9572C253.615 72.9572 252.508 74.6183 252.394 75.7464C252.447 74.6943 252.777 73.6747 253.348 72.7899C252.71 72.9108 252.121 73.2157 251.653 73.6669C251.653 73.6669 251.827 72.4924 253.621 72.3901C253.621 72.3901 254.535 71.1288 254.78 71.0513C254.78 71.0513 252.995 70.9026 251.91 71.3829C251.91 71.3829 252.865 70.2766 255.106 70.7631L256.345 69.7405C256.345 69.7405 253.993 69.4306 252.998 69.7746C252.998 69.7746 254.145 68.7953 256.683 69.508L258.047 68.693C258.047 68.693 256.042 68.2622 254.848 68.4172C254.848 68.4172 256.107 67.7385 258.447 68.473L259.423 68.036C259.423 68.036 257.954 67.7478 257.523 67.7013C257.092 67.6548 257.07 67.5371 257.07 67.5371C258.001 67.3823 258.956 67.4896 259.829 67.847C259.829 67.847 261.927 67.0939 261.89 66.9637Z" fill="#E9C46A"/>
<path opacity="0.1" d="M116.041 84.0455C116.041 84.0455 110.908 73.4065 104.375 78.6501C104.375 78.6501 102.965 79.1211 103.033 80.5994C103.033 80.5994 103.576 80.3173 103.963 81.4578C104.108 81.8609 104.299 82.2458 104.533 82.6044C104.85 83.0906 105.317 83.4605 105.863 83.6581C105.863 83.6581 108.674 85.8832 114.032 84.3647C114.032 84.3647 115.529 84.6219 115.774 84.4421L114.063 83.1189C114.063 83.1189 113.134 84.4112 111.838 84.5258C111.838 84.5258 114.057 83.2149 113.818 82.9112C113.769 82.8493 112.889 82.2511 112.889 82.2511C112.889 82.2511 111.274 84.4917 109.259 84.6064C109.259 84.6064 112.111 83.3978 112.551 82.0187L111.156 81.1944C111.156 81.1944 109.566 83.6488 107.276 83.8657C107.276 83.8657 110.214 82.4991 110.837 81.0363L109.356 80.4165C109.356 80.4165 107.759 82.778 105.85 82.9484C105.85 82.9484 109.086 81.0239 109.005 80.2957C109.005 80.2957 107.608 79.806 107.174 79.8525C107.174 79.8525 105.99 81.5229 104.874 81.5229C104.874 81.5229 106.898 80.0074 106.774 79.7626C106.774 79.7626 104.784 79.6077 103.737 80.0725C104.681 79.6034 105.731 79.3897 106.783 79.4527C106.366 78.955 105.812 78.5899 105.19 78.4022C105.19 78.4022 106.3 77.9807 107.264 79.4961C107.264 79.4961 108.813 79.679 108.996 79.8556C108.996 79.8556 108.255 78.2255 107.31 77.5158C107.31 77.5158 108.742 77.804 109.396 79.9951L110.899 80.5901C110.899 80.5901 110.034 78.3836 109.238 77.6863C109.238 77.6863 110.651 78.21 111.268 80.7853L112.644 81.5787C112.644 81.5787 112.046 79.617 111.327 78.6532C111.327 78.6532 112.532 79.4217 113.031 81.8204L113.89 82.4588C113.89 82.4588 113.425 81.0363 113.27 80.6397C113.115 80.243 113.192 80.1624 113.192 80.1624C113.782 80.8982 114.155 81.7834 114.271 82.7191C114.271 82.7191 115.929 84.1384 116.041 84.0455Z" fill="#E9C46A"/>
<path opacity="0.1" d="M234.982 51.9334C234.982 51.9334 229.853 41.2945 223.317 46.538C223.317 46.538 221.91 47.0091 221.975 48.4873C221.975 48.4873 222.52 48.2084 222.905 49.3457C223.049 49.7505 223.242 50.1365 223.478 50.4955C223.794 50.9807 224.26 51.3496 224.804 51.546C224.804 51.546 227.619 53.7711 232.974 52.2557C232.974 52.2557 234.471 52.5098 234.719 52.3301L233.017 51.0037C233.017 51.0037 232.088 52.2991 230.795 52.4138C230.795 52.4138 233.011 51.0998 232.773 50.7961C232.723 50.7341 231.843 50.136 231.843 50.136C231.843 50.136 230.231 52.3766 228.214 52.4912C228.214 52.4912 231.068 51.2826 231.508 49.9067L230.092 49.0885C230.092 49.0885 228.505 51.5398 226.211 51.7599C226.211 51.7599 229.15 50.3901 229.776 48.9274L228.291 48.3076C228.291 48.3076 226.695 50.6721 224.789 50.8395C224.789 50.8395 228.021 48.915 227.941 48.1898C227.941 48.1898 226.546 47.6971 226.112 47.7466C226.112 47.7466 224.928 49.4139 223.81 49.4139C223.81 49.4139 225.836 47.8985 225.712 47.6537C225.712 47.6537 223.723 47.4987 222.672 47.9636C223.616 47.4943 224.666 47.2806 225.719 47.3438C225.303 46.8457 224.75 46.4805 224.129 46.2932C224.129 46.2932 225.238 45.8717 226.202 47.3871C226.202 47.3871 227.752 47.5731 227.935 47.7497C227.935 47.7497 227.194 46.1166 226.246 45.4069C226.246 45.4069 227.677 45.6982 228.331 47.9016L229.838 48.4966C229.838 48.4966 228.973 46.287 228.176 45.5897C228.176 45.5897 229.59 46.1135 230.203 48.6887L231.582 49.4821C231.582 49.4821 230.981 47.5235 230.262 46.5566C230.262 46.5566 231.471 47.3252 231.967 49.7238L232.825 50.3622C232.825 50.3622 232.363 48.9398 232.205 48.5431C232.047 48.1464 232.128 48.0689 232.128 48.0689C232.716 48.8054 233.088 49.6904 233.203 50.6256C233.203 50.6256 234.886 52.0326 234.982 51.9334Z" fill="#E9C46A"/>
<path opacity="0.1" d="M251.374 104.558C251.374 104.558 246.245 93.9157 239.7 99.1593C239.7 99.1593 238.293 99.6303 238.358 101.109C238.358 101.109 238.903 100.83 239.287 101.967C239.431 102.372 239.622 102.758 239.858 103.117C240.174 103.602 240.639 103.971 241.184 104.167C241.184 104.167 243.998 106.395 249.357 104.877C249.357 104.877 250.851 105.134 251.099 104.951L249.388 103.628C249.388 103.628 248.458 104.923 247.163 105.038C247.163 105.038 249.379 103.724 249.14 103.42C249.09 103.358 248.21 102.76 248.21 102.76C248.21 102.76 246.598 105.001 244.581 105.119C244.581 105.119 247.435 103.907 247.875 102.531L246.478 101.707C246.478 101.707 244.891 104.161 242.597 104.378C242.597 104.378 245.535 103.008 246.161 101.546L244.677 100.926C244.677 100.926 243.081 103.287 241.175 103.458C241.175 103.458 244.41 101.533 244.33 100.805C244.33 100.805 242.932 100.312 242.498 100.362C242.498 100.362 241.314 102.029 240.195 102.029C240.195 102.029 242.222 100.514 242.098 100.269C242.098 100.269 240.109 100.114 239.058 100.579C240.003 100.11 241.055 99.896 242.108 99.9588C241.691 99.46 241.137 99.0946 240.515 98.9083C240.515 98.9083 241.624 98.4837 242.588 100.002C242.588 100.002 244.138 100.185 244.321 100.362C244.321 100.362 243.58 98.7316 242.635 98.0188C242.635 98.0188 244.066 98.3102 244.72 100.514L246.223 101.109C246.223 101.109 245.359 98.899 244.562 98.2048C244.562 98.2048 245.976 98.7254 246.589 101.304L247.968 102.094C247.968 102.094 247.367 100.135 246.648 99.1686C246.648 99.1686 247.857 99.9371 248.356 102.339L249.214 102.959C249.214 102.959 248.749 101.536 248.594 101.14C248.439 100.743 248.517 100.665 248.517 100.665C249.106 101.401 249.479 102.286 249.592 103.222C249.592 103.222 251.278 104.651 251.374 104.558Z" fill="#E9C46A"/>
<path opacity="0.1" d="M62.5885 243.013C66.5235 243.013 69.7136 242.656 69.7136 242.216C69.7136 241.777 66.5235 241.42 62.5885 241.42C58.6534 241.42 55.4634 241.777 55.4634 242.216C55.4634 242.656 58.6534 243.013 62.5885 243.013Z" fill="#E9C46A"/>
<path opacity="0.1" d="M15.8805 229.476C19.8155 229.476 23.0056 229.12 23.0056 228.68C23.0056 228.24 19.8155 227.883 15.8805 227.883C11.9454 227.883 8.75537 228.24 8.75537 228.68C8.75537 229.12 11.9454 229.476 15.8805 229.476Z" fill="#E9C46A"/>
<path opacity="0.1" d="M98.1925 252.003C102.128 252.003 105.318 251.646 105.318 251.207C105.318 250.767 102.128 250.41 98.1925 250.41C94.2574 250.41 91.0674 250.767 91.0674 251.207C91.0674 251.646 94.2574 252.003 98.1925 252.003Z" fill="#E9C46A"/>
<path opacity="0.1" d="M280.643 232.421C284.578 232.421 287.768 232.064 287.768 231.624C287.768 231.184 284.578 230.828 280.643 230.828C276.708 230.828 273.518 231.184 273.518 231.624C273.518 232.064 276.708 232.421 280.643 232.421Z" fill="#E9C46A"/>
<path opacity="0.1" d="M221.352 228.556C225.287 228.556 228.477 228.199 228.477 227.759C228.477 227.319 225.287 226.963 221.352 226.963C217.417 226.963 214.227 227.319 214.227 227.759C214.227 228.199 217.417 228.556 221.352 228.556Z" fill="#E9C46A"/>
<path opacity="0.1" d="M182.996 247.404C187.65 247.404 191.423 246.756 191.423 245.957C191.423 245.158 187.65 244.51 182.996 244.51C178.342 244.51 174.569 245.158 174.569 245.957C174.569 246.756 178.342 247.404 182.996 247.404Z" fill="#E9C46A"/>
<path d="M186.756 231.41C186.756 231.41 175.022 237.472 181.084 244.612C181.084 244.612 181.654 246.161 183.303 246.053C183.303 246.053 182.975 245.452 184.233 244.971C184.681 244.798 185.106 244.573 185.501 244.299C186.033 243.931 186.432 243.399 186.635 242.784C186.635 242.784 189.034 239.573 187.174 233.632C187.174 233.632 187.416 231.952 187.205 231.68L185.78 233.635C185.78 233.635 187.252 234.624 187.422 236.077C187.422 236.077 185.872 233.638 185.563 233.908C185.494 233.964 184.856 234.977 184.856 234.977C184.856 234.977 187.41 236.709 187.599 238.959C187.599 238.959 186.161 235.808 184.608 235.358L183.719 236.945C183.719 236.945 186.508 238.643 186.818 241.197C186.818 241.197 185.197 237.958 183.542 237.304L182.888 238.981C182.888 238.981 185.578 240.692 185.826 242.818C185.826 242.818 183.576 239.263 182.767 239.375C182.767 239.375 182.259 240.949 182.327 241.435C182.327 241.435 184.227 242.706 184.261 243.955C184.261 243.955 182.507 241.739 182.237 241.885C182.237 241.885 182.126 244.113 182.665 245.272C182.665 245.272 181.735 243.617 181.887 241.885C181.343 242.365 180.952 242.995 180.762 243.695C180.762 243.695 180.257 242.471 181.921 241.342C181.921 241.342 182.079 239.61 182.271 239.396C182.271 239.396 180.471 240.276 179.705 241.355C179.705 241.355 179.987 239.747 182.429 238.947L183.049 237.249C183.049 237.249 180.607 238.284 179.854 239.195C179.854 239.195 180.396 237.599 183.241 236.833L184.084 235.284C184.084 235.284 181.915 236.015 180.855 236.833C180.855 236.833 181.676 235.461 184.345 234.828L185.029 233.852C185.029 233.852 183.455 234.413 183.015 234.615C182.575 234.816 182.488 234.717 182.488 234.717C183.293 234.036 184.27 233.592 185.312 233.434C185.312 233.434 186.864 231.516 186.756 231.41Z" fill="#E9C46A"/>
<path d="M221.582 116.923C219.555 111.416 208.398 110.899 203.557 112.302C200.116 113.303 192.864 114.431 188.99 114.999L188.739 114.76C189.241 114.611 189.254 114.246 189.192 113.703C189.156 112.988 189.166 112.272 189.223 111.559C191.597 112.296 193.71 110.551 193.71 110.551C196.5 109.312 195.75 104.006 196.283 102.556C196.683 101.471 197.113 95.0812 197.305 91.8954H197.346L197.367 90.8262C197.395 90.3645 197.408 90.0949 197.408 90.0949C197.408 90.0949 197.68 82.3039 198.214 80.7265C198.709 79.2762 199.112 71.9687 199.174 70.8096C199.174 70.7105 199.174 70.6578 199.174 70.6578L199.134 69.9822C199.162 69.4895 199.174 68.9409 199.171 68.3645C199.171 65.7149 198.895 62.3772 198.861 61.838C198.861 61.7605 198.861 61.6675 198.861 61.556C198.883 60.4248 198.74 54.7598 193.921 52.6184C192.145 51.825 190.01 50.8798 187.943 49.9594C187.41 45.3574 186.192 40.7801 186.297 36.144C186.297 35.4467 186.359 34.7494 186.427 34.0553C186.427 34.2567 186.406 34.4612 186.402 34.6751C186.402 35.1244 186.402 35.5769 186.402 36.0262C186.585 30.228 188.776 24.3987 188.572 18.7244C188.553 19.2791 188.513 19.8369 188.46 20.3948C188.567 18.4755 188.366 16.5515 187.865 14.6957C187.679 14.0418 187.428 13.3662 186.892 12.9292C186.385 12.5773 185.804 12.3472 185.194 12.2567C183.727 11.8814 182.237 11.6039 180.734 11.4262C180.506 10.727 180.166 10.0689 179.73 9.47691C176.587 5.16308 171.932 1.10956 166.428 0.179849C163.667 -0.285004 160.49 0.102373 158.612 2.07645C158.416 2.24987 158.231 2.43623 158.06 2.63427C157.05 3.83979 156.616 5.42339 155.581 6.62581C155.513 6.70639 155.435 6.78077 155.361 6.85824C153.334 8.67117 150.176 9.04925 147.923 10.6762C147.526 10.9683 147.153 11.2927 146.81 11.6462C145.902 12.5458 145.088 13.5354 144.38 14.5996C143.367 16.0251 142.325 17.5096 142.003 19.2109C141.355 22.6199 143.677 25.8521 144.107 29.2828C145.068 36.959 136.573 43.7707 138.182 51.3447C138.611 53.2054 139.559 54.9064 140.915 56.2504C137.602 59.2503 134.782 62.1603 134.782 62.1603V62.3338H134.258L134.311 62.9536H134.258L134.546 66.3161L134.258 71.2125C134.258 71.2125 134.258 71.2652 134.258 71.3644V71.3892V71.5224C134.258 71.5224 134.258 71.5751 134.258 71.6743H134.277C134.373 73.4686 134.754 79.9208 135.207 81.2812C135.74 82.8586 136.009 90.6496 136.009 90.6496C136.009 90.6496 136.598 101.66 137.137 103.117C137.677 104.573 136.911 109.864 139.71 111.112C140.528 111.74 141.498 112.142 142.521 112.278C142.378 113.437 142.468 114.277 142.93 114.54C143.127 114.656 143.351 114.72 143.581 114.726C143.391 115.007 143.222 115.303 143.075 115.609C141.965 115.493 140.873 115.236 139.827 114.844C136.821 113.604 126.845 110.815 123.947 112.777C121.049 114.738 114.076 116.517 117.296 124.413C120.516 132.31 122.016 132.508 122.016 132.508C123.007 133.228 123.877 134.101 124.592 135.096C125.559 136.549 134.568 139.874 136.821 139.874C137.779 139.86 138.736 139.907 139.688 140.017C139.688 140.017 137.243 142.162 137.568 143.407C137.894 144.653 136.824 154.626 136.824 154.626C136.824 154.626 139.304 157.124 140.364 153.848L140.401 153.898C140.599 154.167 141.671 155.385 143.689 153.848C144.515 153.221 145.392 152.666 146.311 152.187L156.08 150.805C157.098 150.741 158.119 150.734 159.139 150.783C160.688 150.91 162.21 149.993 163.168 149.283C165.191 150.052 167.466 150.891 168.548 151.198C170.742 151.818 180.827 154.523 183.185 153.677C183.676 153.483 184.112 153.172 184.456 152.773L186.706 152.844L185.652 153.055C185.652 153.055 187.704 153.089 190.493 153.126L190.376 153.194L193.875 153.163C198.995 153.21 204.747 153.225 205.503 153.055C206.687 152.791 212.839 152.977 214.652 153.055H215.157C215.157 153.055 221.916 151.706 219.127 144.848C216.982 139.58 210.39 138.049 207.465 137.628C208.289 137.463 208.999 137.336 209.47 137.262C211.512 136.952 215.479 135.093 215.802 134.457C216.124 133.822 219.449 131.978 220.308 130.928C221.166 129.877 223.618 122.43 221.582 116.923ZM165.594 132.335L165.263 132.443L165.04 132.517L164.612 132.939C164.271 132.71 163.905 132.468 163.524 132.22C164.197 132.26 164.888 132.3 165.594 132.335Z" fill="url(#paint0_linear)"/>
<path d="M185.354 99.6582C185.354 99.6582 190.096 112.054 192.793 110.815C195.489 109.575 194.758 104.307 195.272 102.863C195.786 101.418 196.357 90.4665 196.357 90.4665C196.357 90.4665 196.617 82.719 197.132 81.1509C197.609 79.7098 197.996 72.4426 198.061 71.2991C198.061 71.1999 198.061 71.1472 198.061 71.1472L197.55 62.1601L194.655 61.438L187.942 63.9172L187.013 69.2258L186.65 71.2991L186.495 72.1823L185.354 99.6582Z" fill="#BE6F72"/>
<path opacity="0.1" d="M186.917 97.582C186.917 97.582 191.441 101.285 192.805 101.611C194.169 101.936 195.005 104.824 195.005 104.824" fill="black"/>
<path d="M148.273 100.201C148.273 100.201 143.531 112.597 140.835 111.357C138.138 110.118 138.87 104.849 138.355 103.405C137.841 101.961 137.27 91.009 137.27 91.009C137.27 91.009 137.01 83.2614 136.496 81.6933C136.018 80.2523 135.631 72.9851 135.566 71.8416C135.566 71.7424 135.566 71.6897 135.566 71.6897L136.08 62.7025L138.975 61.9805L145.688 64.4597L146.618 69.7683L146.98 71.8416L147.135 72.7248L148.273 100.201Z" fill="#BE6F72"/>
<path d="M179.15 33.863H168.566V50.3591H179.15V33.863Z" fill="#3E373A"/>
<path opacity="0.1" d="M179.15 33.863H168.566V50.3591H179.15V33.863Z" fill="black"/>
<path d="M146.413 112.547C146.413 112.547 142.796 116.523 144.138 117.245C145.48 117.967 154.161 131.501 154.161 131.501C154.161 131.501 182.674 135.012 188.051 129.744C193.428 124.475 193.32 115.064 193.32 115.064C193.32 115.064 189 115.993 188.528 115.488C188.057 114.983 185.47 112.547 185.47 112.547C185.47 112.547 148.893 110.328 146.413 112.547Z" fill="#4B4B5B"/>
<path opacity="0.02" d="M146.413 112.547C146.413 112.547 142.796 116.523 144.138 117.245C145.48 117.967 154.161 131.501 154.161 131.501C154.161 131.501 182.674 135.012 188.051 129.744C193.428 124.475 193.32 115.064 193.32 115.064C193.32 115.064 189 115.993 188.528 115.488C188.057 114.983 185.47 112.547 185.47 112.547C185.47 112.547 148.893 110.328 146.413 112.547Z" fill="black"/>
<path d="M197.742 62.2904L188.444 69.7281L185.633 69.9326L184.601 70.007L167.267 71.2776L149.292 69.9636L146.617 69.7684L143.208 69.5204L136.08 62.7026C136.08 62.7026 141.126 57.2979 145.545 53.6504C147.287 52.2093 148.933 51.0441 150.132 50.5854L150.336 50.5142C151.091 50.22 151.764 49.7504 152.301 49.1444C155.791 45.5464 159.017 36.6677 159.017 36.6677C159.017 36.6677 174.411 28.7156 172.552 39.1469C170.692 49.5782 179.472 46.9999 179.472 46.9999L182.367 48.32L183.51 48.8438L186.427 50.1795L193.006 53.1979C198.17 55.5749 197.742 62.2904 197.742 62.2904Z" fill="#BE6F72"/>
<path opacity="0.1" d="M166.545 45.162C174.191 45.162 180.39 38.9641 180.39 31.3187C180.39 23.6732 174.191 17.4753 166.545 17.4753C158.899 17.4753 152.701 23.6732 152.701 31.3187C152.701 38.9641 158.899 45.162 166.545 45.162Z" fill="black"/>
<path opacity="0.1" d="M197.764 72.1513H135.566C135.566 72.0521 135.566 71.9995 135.566 71.9995L136.08 63.0123C136.08 63.0123 141.126 57.6076 145.545 53.9601L184.595 52.4106L186.412 50.4954L192.991 53.5138C198.158 55.8877 197.742 62.6032 197.742 62.6032C197.742 62.6032 198.449 70.3849 197.764 72.1513Z" fill="black"/>
<path d="M197.764 71.8415H135.566C135.566 71.7423 135.566 71.6897 135.566 71.6897L136.08 62.7025C136.08 62.7025 141.126 57.2978 145.545 53.6503L184.595 52.1007L186.412 50.1855L192.991 53.204C198.158 55.5778 197.742 62.2934 197.742 62.2934C197.742 62.2934 198.449 70.0751 197.764 71.8415Z" fill="#E7C7CA"/>
<path opacity="0.1" d="M156.575 46.6403C156.575 46.6403 166.387 59.1418 179.457 46.3831C192.526 33.6244 180.904 74.8414 180.904 74.8414L152.701 78.1883L156.575 46.6403Z" fill="black"/>
<path d="M156.575 47.2602C156.575 47.2602 166.387 59.7616 179.457 47.003C192.526 34.2443 180.904 75.4613 180.904 75.4613L152.701 78.8082L156.575 47.2602Z" fill="#E7C7CA"/>
<path opacity="0.1" d="M183.495 49.4542L184.533 65.2871L185.646 70.5554L186.495 74.5842C186.495 74.5842 188.665 105.574 188.045 107.124C187.425 108.673 188.355 109.913 188.485 110.737C188.615 111.562 188.355 113.632 188.457 114.562C188.559 115.491 188.457 115.903 186.083 115.572C183.709 115.24 180.399 114.664 180.399 114.664C180.399 114.664 172.031 115.284 169.14 114.252C166.248 113.22 160.772 113.217 160.772 113.217C160.772 113.217 152.506 113.424 149.822 113.114C147.138 112.804 145.688 116.421 143.934 115.386C142.179 114.351 145.998 104.335 147.237 101.44C148.477 98.5458 145.586 91.2135 145.586 91.2135L149.305 70.5833L150.132 65.9069V51.2052L150.337 51.1339C151.091 50.8397 151.765 50.3702 152.302 49.7641L153.231 64.5588L182.364 65.5939V48.9429" fill="black"/>
<path d="M183.495 48.8343L184.533 64.6672L185.646 69.9356L186.495 73.9643C186.495 73.9643 188.665 104.955 188.045 106.504C187.425 108.054 188.355 109.293 188.485 110.117C188.615 110.942 188.355 113.012 188.457 113.942C188.559 114.871 188.457 115.284 186.083 114.952C183.709 114.62 180.399 114.044 180.399 114.044C180.399 114.044 172.031 114.664 169.14 113.632C166.248 112.6 160.772 112.597 160.772 112.597C160.772 112.597 152.506 112.804 149.822 112.494C147.138 112.185 145.688 115.801 143.934 114.766C142.179 113.731 145.998 103.715 147.237 100.82C148.477 97.9259 145.586 90.5936 145.586 90.5936L149.305 69.9635L150.132 65.287V50.5853L150.337 50.514C151.091 50.2198 151.765 49.7503 152.302 49.1442L153.231 63.939L182.364 64.974V48.323" fill="#E7C7CA"/>
<path opacity="0.1" d="M186.845 15.7927C186.669 15.145 186.424 14.4725 185.916 14.0387C185.43 13.6902 184.87 13.4609 184.279 13.3693C182.866 12.9976 181.428 12.7222 179.978 12.5449C179.77 11.8568 179.457 11.2053 179.048 10.6142C176.011 6.32519 171.517 2.28097 166.229 1.36676C163.462 0.886413 160.254 1.31718 158.481 3.49889C157.508 4.69821 157.09 6.28801 156.107 7.46564C154.214 9.75271 150.795 10.0347 148.409 11.8043C147.135 12.734 146.212 14.082 145.31 15.3898C144.333 16.8061 143.329 18.2812 143.019 19.9733C142.4 23.3543 144.634 26.5773 145.046 29.9893C145.976 37.6222 137.794 44.3936 139.341 51.9242C140.243 56.3155 144.299 59.4083 148.496 60.9764C149.974 61.5312 151.663 62.0828 152.354 63.5021C152.664 64.1219 152.717 64.8378 153.008 65.4638C153.988 67.5526 157.208 67.6331 158.937 66.1115C160.666 64.5899 161.212 62.1293 161.416 59.8329C162.247 49.8045 158.23 39.8969 158.698 29.8437C158.838 26.8035 159.693 23.3543 162.417 21.9783C166.084 20.1189 170.494 23.218 174.529 22.626C176.439 27.2719 176.844 32.3994 175.688 37.2875C175.047 39.962 173.937 42.5559 173.857 45.314C173.736 49.5132 176.001 53.3497 177.96 57.0624C178.38 57.7566 178.661 58.5261 178.787 59.3278C178.818 60.1412 178.667 60.9512 178.344 61.6985C177.238 64.6767 175.329 67.441 175.112 70.6113C175.048 70.9814 175.132 71.3616 175.344 71.6712C175.563 71.8777 175.844 72.0044 176.144 72.0306C179.491 72.604 182.386 69.6382 184.019 66.66C185.84 63.3707 186.901 59.7153 187.124 55.9622C187.462 49.6526 185.2 43.4453 185.339 37.1295C185.5 29.949 188.745 22.719 186.845 15.7927Z" fill="black"/>
<path d="M187.155 15.4826C186.979 14.835 186.734 14.1625 186.226 13.7286C185.74 13.3801 185.18 13.1508 184.589 13.0592C183.176 12.6875 181.738 12.4121 180.288 12.2349C180.08 11.5467 179.767 10.8953 179.358 10.3042C176.321 6.01514 171.827 1.97091 166.539 1.0567C163.772 0.576355 160.564 1.00712 158.791 3.18883C157.818 4.38815 157.4 5.97795 156.417 7.15558C154.524 9.44265 151.105 9.72467 148.719 11.4942C147.445 12.4239 146.522 13.772 145.62 15.0798C144.644 16.496 143.639 17.9712 143.329 19.6632C142.71 23.0443 144.944 26.2672 145.356 29.6793C146.286 37.3122 138.104 44.0835 139.651 51.6141C140.553 56.0055 144.609 59.0983 148.806 60.6664C150.284 61.2211 151.973 61.7727 152.664 63.1921C152.974 63.8119 153.027 64.5278 153.318 65.1538C154.298 67.2425 157.518 67.3231 159.247 65.8015C160.976 64.2798 161.522 61.8192 161.726 59.5228C162.557 49.4944 158.54 39.5868 159.008 29.5336C159.148 26.4935 160.003 23.0443 162.727 21.6683C166.394 19.8089 170.804 22.9079 174.839 22.316C176.749 26.9618 177.154 32.0893 175.998 36.9775C175.357 39.6519 174.247 42.2458 174.167 45.0039C174.046 49.2031 176.311 53.0397 178.27 56.7523C178.69 57.4466 178.971 58.216 179.098 59.0177C179.128 59.8311 178.977 60.6411 178.654 61.3885C177.548 64.3666 175.639 67.1309 175.422 70.3012C175.358 70.6713 175.442 71.0516 175.654 71.3611C175.873 71.5677 176.154 71.6944 176.454 71.7206C179.801 72.2939 182.696 69.3281 184.329 66.35C186.15 63.0606 187.211 59.4052 187.434 55.6522C187.772 49.3426 185.51 43.1352 185.649 36.8194C185.81 29.639 189.055 22.409 187.155 15.4826Z" fill="#3E373A"/>
<path d="M180.309 152.698L192.604 153.092L190.84 143.974L181.422 144.87L180.309 152.698Z" fill="#C3C7D9"/>
<path d="M218.405 131.089C217.577 132.121 214.376 133.98 214.066 134.6C213.756 135.22 209.935 137.079 207.97 137.389C206.005 137.699 199.809 139.044 198.672 139.766C197.857 140.287 191.314 141.935 187.016 142.849C185.852 143.125 184.673 143.337 183.486 143.485C181.626 143.587 161.277 136.667 161.277 136.667L165.2 132.638L165.417 132.564C166.527 132.189 171.653 130.456 174.498 129.632C177.703 128.702 181.422 124.881 181.422 124.881C181.422 124.881 186.895 123.022 187.62 122.814C188.345 122.607 185.761 115.584 185.761 115.584C185.761 115.584 197.64 113.936 202.289 112.538C206.938 111.14 217.683 111.658 219.644 117.134C221.606 122.61 219.245 130.057 218.405 131.089Z" fill="#4B4B5B"/>
<path d="M164.271 148.545C164.271 148.545 161.897 151.025 159.52 150.82C157.142 150.615 148.83 151.44 148.83 151.44C147.324 152.041 145.913 152.858 144.643 153.866C142.7 155.397 141.668 154.176 141.476 153.916L141.442 153.866C140.407 157.123 138.033 154.641 138.033 154.641C138.033 154.641 139.065 144.724 138.749 143.485C138.433 142.245 140.791 140.116 140.791 140.116L143.58 139.406L150.646 137.596L160.772 141.108L164.271 148.545Z" fill="#E7C7CA"/>
<path opacity="0.1" d="M143.568 139.406L141.476 153.916L141.442 153.866C140.407 157.123 138.033 154.641 138.033 154.641C138.033 154.641 139.065 144.724 138.749 143.485C138.433 142.245 140.791 140.116 140.791 140.116L143.568 139.406Z" fill="black"/>
<path opacity="0.1" d="M158.19 98.1335C158.19 98.1335 163.663 99.9929 168.417 98.1335H158.19Z" fill="black"/>
<path opacity="0.1" d="M176.875 101.648C176.875 101.648 179.147 102.782 180.904 101.648H176.875Z" fill="black"/>
<path opacity="0.1" d="M176.875 104.338C176.875 104.338 180.696 104.849 181.422 103.817L176.875 104.338Z" fill="black"/>
<path opacity="0.1" d="M175.636 110.118C175.636 110.118 182.814 109.188 184.596 107.948L175.636 110.118Z" fill="black"/>
<path opacity="0.1" d="M153.733 107.948C153.733 107.948 157.762 110.22 160.759 110.118L153.733 107.948Z" fill="black"/>
<path opacity="0.1" d="M187.013 142.849C185.849 143.125 184.67 143.337 183.483 143.485C181.623 143.587 161.274 136.667 161.274 136.667L165.198 132.638L165.414 132.564C166.034 133.001 166.543 133.376 166.905 133.661C168.613 135.006 170.262 133.249 170.882 133.249C171.501 133.249 176.872 137.69 176.872 137.69C176.872 137.69 181.831 138.827 182.659 139.859C183.486 140.891 186.378 140.686 186.892 141.408C187.047 141.631 187.066 142.18 187.013 142.849Z" fill="black"/>
<path d="M148.83 116.006C148.83 116.006 143.816 116.294 140.924 115.076C138.033 113.858 128.425 111.047 125.636 113.021C122.847 114.995 116.131 116.74 119.23 124.593C122.329 132.446 123.776 132.65 123.776 132.65C124.735 133.37 125.572 134.238 126.256 135.223C127.186 136.67 135.863 139.973 138.033 139.973C140.202 139.973 144.024 139.973 149.395 143.692C154.765 147.411 159.622 147.826 159.622 147.826C159.622 147.826 166.44 150.615 168.563 151.235C170.686 151.855 180.387 154.539 182.662 153.715C184.936 152.89 186.381 147.721 186.381 147.721C186.381 147.721 187.413 143.072 186.895 142.35C186.377 141.628 183.486 141.833 182.662 140.801C181.837 139.769 176.875 138.632 176.875 138.632C176.875 138.632 171.517 134.188 170.897 134.188C170.277 134.188 168.628 135.942 166.921 134.6C163.519 132.08 159.945 129.802 156.225 127.782C152.302 125.715 148.83 116.006 148.83 116.006Z" fill="#4B4B5B"/>
<path opacity="0.1" d="M138.749 119.002C139.641 118.82 140.564 118.846 141.445 119.079C142.326 119.312 143.142 119.745 143.828 120.344C146.307 122.411 154.651 126.561 154.651 126.561" fill="black"/>
<path opacity="0.1" d="M200.739 118.872C200.739 118.872 189.684 120.546 187.62 122.817L200.739 118.872Z" fill="black"/>
<path d="M213.446 153.092H212.96C211.212 153.03 205.289 152.844 204.149 153.092C202.807 153.401 185.036 153.092 185.036 153.092L188.51 152.369C188.51 152.369 187.221 147.851 188.039 147.476C188.039 147.476 183.39 144.414 186.895 142.347C190.4 140.28 194.178 141.151 194.178 141.151L202.977 138.17L204.666 137.596C204.666 137.596 214.584 138.114 217.267 144.932C219.951 151.75 213.446 153.092 213.446 153.092Z" fill="#E7C7CA"/>
<path opacity="0.1" d="M213.446 153.092H212.959C215.845 150.712 222.371 143.466 202.977 138.185L204.666 137.612C204.666 137.612 214.583 138.13 217.267 144.947C219.951 151.765 213.446 153.092 213.446 153.092Z" fill="black"/>
<path d="M195.213 145.059C195.513 145.059 195.756 144.816 195.756 144.517C195.756 144.217 195.513 143.974 195.213 143.974C194.914 143.974 194.671 144.217 194.671 144.517C194.671 144.816 194.914 145.059 195.213 145.059Z" fill="#4B4B5B"/>
<path d="M192.061 145.955C192.361 145.955 192.604 145.712 192.604 145.412C192.604 145.113 192.361 144.87 192.061 144.87C191.762 144.87 191.519 145.113 191.519 145.412C191.519 145.712 191.762 145.955 192.061 145.955Z" fill="#4B4B5B"/>
<g opacity="0.1">
<path opacity="0.1" d="M176.705 30.8073C176.825 27.3986 176.218 24.0034 174.926 20.847C170.897 21.4483 166.483 18.3399 162.814 20.1994C160.099 21.5753 159.247 25.0245 159.095 28.0647C159.058 28.8673 159.052 29.67 159.067 30.4726C159.067 30.1875 159.067 29.8993 159.095 29.6142C159.237 26.574 160.09 23.1248 162.814 21.7489C166.483 19.8894 170.891 22.9885 174.926 22.3966C176.02 25.0701 176.623 27.9195 176.705 30.8073Z" fill="black"/>
<path opacity="0.1" d="M145.484 30.2403C145.537 29.5651 145.523 28.8862 145.443 28.2136C145.115 25.4864 143.624 22.8802 143.354 20.2212C143.007 23.4287 145.05 26.5091 145.443 29.7631C145.484 29.9304 145.484 30.0792 145.484 30.2403Z" fill="black"/>
<path opacity="0.1" d="M161.813 58.0507C161.621 60.3502 161.079 62.8077 159.334 64.3325C157.589 65.8572 154.375 65.7735 153.405 63.6848C153.095 63.065 153.049 62.3429 152.748 61.7231C152.06 60.3037 150.368 59.7521 148.889 59.1974C144.69 57.6262 140.639 54.5489 139.737 50.1451C139.657 49.7462 139.602 49.3425 139.573 48.9365C139.497 49.859 139.552 50.7877 139.737 51.6947C140.639 56.086 144.696 59.1757 148.889 60.7469C150.368 61.3016 152.06 61.8532 152.748 63.2726C153.058 63.8924 153.111 64.6083 153.405 65.2343C154.381 67.323 157.601 67.4036 159.334 65.882C161.066 64.3604 161.606 61.8997 161.813 59.6003C161.908 58.39 161.94 57.1756 161.909 55.962C161.909 56.6655 161.869 57.3597 161.813 58.0507Z" fill="black"/>
<path opacity="0.1" d="M185.751 35.3505C185.751 35.7999 185.751 36.2462 185.751 36.6924C185.925 30.9282 188.039 25.1331 187.831 19.4897C187.67 24.7085 185.869 30.045 185.751 35.3505Z" fill="black"/>
<path opacity="0.1" d="M179.101 58.6675C179.177 58.2998 179.201 57.9232 179.172 57.5488C179.047 56.7468 178.766 55.9771 178.344 55.2834C176.553 51.8745 174.511 48.385 174.269 44.6011C174.269 44.7622 174.247 44.911 174.244 45.0845C174.12 49.2806 176.386 53.1203 178.344 56.8329C178.677 57.4079 178.932 58.025 179.101 58.6675Z" fill="black"/>
<path opacity="0.1" d="M187.533 54.1833C187.302 57.9378 186.234 61.593 184.406 64.8811C182.77 67.8593 179.878 70.825 176.528 70.2517C176.228 70.2258 175.946 70.0979 175.729 69.8891C175.666 69.8181 175.616 69.7362 175.583 69.6474C175.546 69.8891 175.515 70.1339 175.496 70.3819C175.432 70.751 175.516 71.1305 175.729 71.4386C175.946 71.6474 176.228 71.7753 176.528 71.8012C179.878 72.3745 182.77 69.4088 184.406 66.4306C186.234 63.1425 187.302 59.4873 187.533 55.7328C187.571 55.0076 187.574 54.2855 187.552 53.5635C187.546 53.7711 187.546 53.9756 187.533 54.1833Z" fill="black"/>
</g>
<path opacity="0.1" d="M188.039 147.476C188.039 147.476 195.883 150.767 201.055 143.485" stroke="black" stroke-miterlimit="10"/>
<path opacity="0.1" d="M189.582 153.228C189.582 153.228 195.988 149.063 204.148 153.092" stroke="black" stroke-miterlimit="10"/>
<path opacity="0.1" d="M146.701 152.283C146.701 152.283 149.391 146.215 156.575 150.842" stroke="black" stroke-miterlimit="10"/>
<path opacity="0.1" d="M137.98 62.5476L143.466 57.5891C143.466 57.5891 164.736 56.1946 165.616 63.4246C165.616 63.4246 173.156 54.8527 189.015 56.7617L195.725 62.1044L177.179 70.2424L159.157 76.4932L145.883 70.5523L137.98 62.5476Z" fill="black"/>
<path d="M137.98 62.8574L143.466 57.899C143.466 57.899 164.736 56.5044 165.616 63.7344C165.616 63.7344 173.156 55.1625 189.015 57.0715L195.725 62.4142L177.179 70.5523L159.157 76.803L145.883 70.8622L137.98 62.8574Z" fill="#D5D6DB"/>
<path opacity="0.1" d="M135.553 63.4773L137.98 92.5058L163.703 93.7981L162.588 64.8935L162.566 64.407L135.553 63.4773Z" fill="black"/>
<path d="M135.553 62.8574L137.98 91.8859L163.703 93.1782L162.588 64.2737L162.566 63.7871L135.553 62.8574Z" fill="#E9C46A"/>
<path opacity="0.1" d="M196.902 62.8574L170.367 66.8366V95.9953L196.298 92.2486L196.902 62.8574Z" fill="black"/>
<path d="M196.902 62.2375L170.367 66.2167V95.3754L196.298 91.6287L196.902 62.2375Z" fill="#E9C46A"/>
<path opacity="0.3" d="M190.645 69.353L176.311 70.9459L176.624 75.83L190.636 74.2991L190.645 69.353Z" fill="white"/>
<path d="M139.375 107.431L140.835 111.357C140.835 111.357 143.004 113.216 145.378 112.287C147.752 111.357 149.822 110.895 150.854 109.99C151.886 109.085 153.334 104.539 153.334 104.539C153.334 104.539 154.781 99.5808 156.225 98.3412C157.67 97.1016 161.494 80.0229 156.225 81.6932C150.957 83.3636 146.928 98.8587 146.928 98.8587C146.928 98.8587 145.998 99.993 144.656 100.098C143.314 100.204 140.627 99.8907 140.109 101.028C139.592 102.165 137.825 105.159 139.375 107.431Z" fill="#BE6F72"/>
<path opacity="0.1" d="M170.367 66.8335C169.008 67.1397 167.597 67.1237 166.246 66.7868C164.895 66.4499 163.641 65.8016 162.585 64.8936L163.704 93.795C163.704 93.795 166.338 96.6461 170.367 95.9953V66.8335Z" fill="black"/>
<path d="M170.367 66.2137C169.008 66.5198 167.597 66.5038 166.246 66.1669C164.895 65.8301 163.641 65.1817 162.585 64.2737L163.704 93.1751C163.704 93.1751 166.338 96.0262 170.367 95.3754V66.2137Z" fill="#E9C46A"/>
<path opacity="0.1" d="M170.367 66.2137C169.008 66.5198 167.597 66.5038 166.246 66.1669C164.895 65.8301 163.641 65.1817 162.585 64.2737L163.704 93.1751C163.704 93.1751 166.338 96.0262 170.367 95.3754V66.2137Z" fill="black"/>
<path opacity="0.1" d="M170.987 62.9566C170.987 62.9566 181.781 59.6562 184.595 60.121L170.987 62.9566Z" fill="black"/>
<path opacity="0.1" d="M158.912 61.5157C158.912 61.5157 148.449 59.0365 146.701 59.7399L158.912 61.5157Z" fill="black"/>
<path opacity="0.1" d="M177.792 63.3687C177.792 63.3687 185.011 60.7222 187.62 61.9804L177.792 63.3687Z" fill="black"/>
<path opacity="0.1" d="M174.157 129.759C175.276 128.919 176.466 128.18 177.715 127.549C179.575 126.654 182.984 124.33 182.984 124.33" fill="black"/>
<path opacity="0.1" d="M146.701 98.1335C146.701 98.1335 142.173 101.837 140.813 102.162C139.452 102.488 138.612 105.376 138.612 105.376" fill="black"/>
<path d="M194.24 106.879L192.796 110.815C192.796 110.815 190.627 112.674 188.249 111.745C185.872 110.815 183.808 110.353 182.773 109.448C181.738 108.543 180.294 103.997 180.294 103.997C180.294 103.997 178.85 99.0386 177.402 97.799C175.955 96.5593 172.134 79.4806 177.402 81.151C182.671 82.8214 186.7 98.3165 186.7 98.3165C186.7 98.3165 187.63 99.4507 188.972 99.5561C190.314 99.6615 193.001 99.3485 193.518 100.486C194.036 101.623 195.79 104.617 194.24 106.879Z" fill="#BE6F72"/>
<path opacity="0.1" d="M191.708 99.6396C191.708 99.6396 194.668 101.542 194.655 103.817L191.708 99.6396Z" fill="black"/>
<path d="M166.595 44.4833C174.241 44.4833 180.439 38.2854 180.439 30.64C180.439 22.9945 174.241 16.7966 166.595 16.7966C158.949 16.7966 152.751 22.9945 152.751 30.64C152.751 38.2854 158.949 44.4833 166.595 44.4833Z" fill="#BE6F72"/>
<path d="M157.902 26.9244C159.582 26.661 161.054 25.6848 162.659 25.1239C166.251 23.8625 170.224 24.7272 173.86 25.8645C175.254 26.3015 176.671 26.7942 178.134 26.7942C179.596 26.7942 181.149 26.1961 181.896 24.9348C182.584 23.7758 182.451 22.2697 181.871 21.0517C181.292 19.8338 180.322 18.8545 179.342 17.931C176.119 14.8878 172.121 12.0429 167.699 12.3528C165.92 12.4798 164.218 13.1151 162.582 13.8186C160.521 14.7065 158.516 15.7165 156.576 16.8433C155.085 17.7079 152.323 18.8638 151.465 20.4443C149.512 24.0051 154.865 27.4016 157.902 26.9244Z" fill="#3E373A"/>
<path opacity="0.1" d="M181.896 23.6331C181.149 24.8944 179.596 25.4925 178.133 25.4925C176.671 25.4925 175.254 25.0184 173.857 24.5814C170.221 23.4441 166.251 22.5764 162.656 23.8408C161.054 24.4017 159.578 25.3903 157.899 25.6382C155.45 26.0225 151.508 23.8904 151.08 21.1787C150.6 24.3118 155.171 26.9956 157.899 26.5679C159.578 26.3045 161.054 25.3283 162.656 24.7705C166.251 23.5061 170.221 24.3738 173.857 25.5111C175.254 25.9481 176.668 26.4408 178.133 26.4223C179.599 26.4037 181.149 25.8272 181.896 24.5628C182.283 23.875 182.435 23.0797 182.33 22.2975C182.281 22.7684 182.134 23.2237 181.896 23.6331Z" fill="black"/>
<path d="M294.245 191.584C294.245 191.584 296.083 193.986 293.396 197.615C290.709 201.244 288.496 204.306 289.389 206.568C289.389 206.568 293.443 199.831 296.74 199.735C300.038 199.639 297.868 195.635 294.245 191.584Z" fill="#E9C46A"/>
<path opacity="0.1" d="M294.246 191.584C294.406 191.816 294.532 192.07 294.62 192.338C297.837 196.118 299.554 199.648 296.458 199.735C293.576 199.819 290.12 204.972 289.293 206.271C289.319 206.376 289.352 206.479 289.389 206.581C289.389 206.581 293.443 199.843 296.74 199.747C300.038 199.651 297.868 195.635 294.246 191.584Z" fill="black"/>
<path d="M297.655 194.646C297.655 195.492 297.558 196.177 297.444 196.177C297.329 196.177 297.23 195.492 297.23 194.646C297.23 193.8 297.348 194.2 297.466 194.2C297.583 194.2 297.655 193.8 297.655 194.646Z" fill="#FFD037"/>
<path d="M298.829 195.657C298.089 196.06 297.441 196.304 297.385 196.202C297.329 196.1 297.884 195.688 298.625 195.272C299.366 194.857 299.074 195.161 299.13 195.272C299.186 195.384 299.573 195.251 298.829 195.657Z" fill="#FFD037"/>
<path d="M284.533 191.584C284.533 191.584 282.695 193.986 285.382 197.615C288.069 201.244 290.282 204.306 289.386 206.568C289.386 206.568 285.335 199.831 282.035 199.735C278.734 199.639 280.919 195.635 284.533 191.584Z" fill="#E9C46A"/>
<path opacity="0.1" d="M284.533 191.584C284.373 191.816 284.246 192.07 284.158 192.338C280.941 196.118 279.224 199.648 282.32 199.735C285.199 199.819 288.658 204.972 289.485 206.271C289.459 206.376 289.426 206.48 289.386 206.581C289.386 206.581 285.335 199.843 282.035 199.747C278.734 199.651 280.919 195.635 284.533 191.584Z" fill="black"/>
<path d="M281.117 194.646C281.117 195.492 281.21 196.177 281.328 196.177C281.446 196.177 281.542 195.492 281.542 194.646C281.542 193.8 281.421 194.2 281.306 194.2C281.192 194.2 281.117 193.8 281.117 194.646Z" fill="#FFD037"/>
<path d="M279.946 195.657C280.686 196.06 281.334 196.304 281.39 196.202C281.446 196.1 280.891 195.688 280.15 195.272C279.409 194.857 279.701 195.161 279.645 195.272C279.589 195.384 279.202 195.251 279.946 195.657Z" fill="#FFD037"/>
<path opacity="0.1" d="M289.389 224.952C300.001 224.952 308.604 223.632 308.604 222.005C308.604 220.377 300.001 219.057 289.389 219.057C278.777 219.057 270.174 220.377 270.174 222.005C270.174 223.632 278.777 224.952 289.389 224.952Z" fill="#E9C46A"/>
<path d="M299.279 203.33L299.186 204.08L299.056 205.14L299.003 205.583L298.873 206.643L298.817 207.086L298.69 208.143L297.218 220.198C297.088 221.273 295.33 222.113 293.207 222.113H285.568C283.445 222.113 281.691 221.273 281.557 220.198L280.085 208.143L279.955 207.086L279.902 206.643L279.772 205.583L279.716 205.14L279.589 204.08L279.496 203.33C279.425 202.71 280.374 202.208 281.576 202.208H297.202C298.402 202.208 299.353 202.719 299.279 203.33Z" fill="#65617D"/>
<path d="M299.186 204.08L299.059 205.14H279.72L279.589 204.08H299.186Z" fill="#9D9CB5"/>
<path d="M299.003 205.583L298.876 206.643H279.903L279.772 205.583H299.003Z" fill="#9D9CB5"/>
<path d="M298.82 207.086L298.69 208.146H280.085L279.958 207.086H298.82Z" fill="#9D9CB5"/>
</g>
<defs>
<linearGradient id="paint0_linear" x1="169.416" y1="155.546" x2="169.416" y2="0.000105047" gradientUnits="userSpaceOnUse">
<stop stop-color="#808080" stop-opacity="0.25"/>
<stop offset="0.54" stop-color="#808080" stop-opacity="0.12"/>
<stop offset="1" stop-color="#808080" stop-opacity="0.1"/>
</linearGradient>
<clipPath id="clip0">
<rect width="317" height="252" fill="white"/>
</clipPath>
</defs>
</svg>
