<svg width="812" height="620" viewBox="0 0 812 620" fill="none" xmlns="http://www.w3.org/2000/svg">
<g clip-path="url(#clip0)">
<path d="M74.9128 619.032L74.875 619.278C74.83 619.038 74.7868 618.793 74.7457 618.552C74.6706 618.162 74.6054 617.772 74.544 617.379C72.1064 602.034 73.4478 586.325 78.4519 571.615C79.4138 568.744 80.5093 565.925 81.7385 563.159C86.4392 552.448 93.1032 542.711 101.386 534.451C104.076 531.698 107.144 529.344 110.499 527.458C110.992 527.197 111.487 526.95 111.993 526.722C115.096 525.217 118.589 524.711 121.991 525.273C123.227 525.506 124.425 525.908 125.551 526.468C125.945 526.66 126.325 526.871 126.698 527.096C128.972 528.587 130.914 530.532 132.402 532.808C133.89 535.085 134.892 537.644 135.345 540.325C135.991 544.325 135.843 548.414 134.91 552.356C134.83 552.733 134.743 553.108 134.651 553.482C133.99 556.11 133.158 558.692 132.162 561.213C122.194 586.862 100.77 609.619 74.9128 619.032Z" fill="#F2F2F2"/>
<path d="M125.484 526.551C117.706 537.728 110.358 549.19 103.44 560.934C96.5316 572.669 90.0744 584.655 84.0691 596.892C80.7096 603.738 77.497 610.653 74.4313 617.638C74.0919 618.411 75.2369 619.084 75.5807 618.301C81.0558 605.832 86.9973 593.582 93.4053 581.552C99.8093 569.534 106.663 557.771 113.967 546.262C118.053 539.823 122.276 533.474 126.634 527.213C127.121 526.513 125.97 525.853 125.484 526.551Z" fill="white"/>
<path d="M133.807 552.424C127.962 560.02 119.358 565.007 109.861 566.302C107.212 566.664 104.529 566.717 101.867 566.461C101.016 566.38 101.01 567.707 101.854 567.787C111.76 568.62 121.594 565.513 129.223 559.139C131.362 557.35 133.287 555.319 134.957 553.086C135.468 552.406 134.315 551.748 133.807 552.424Z" fill="white"/>
<path d="M83.8835 593.632C82.5245 591.696 81.3954 589.608 80.5189 587.411C78.5165 582.403 77.8057 576.971 78.4519 571.615C79.4138 568.744 80.5093 565.925 81.7385 563.159C81.8129 563.268 81.8577 563.395 81.8685 563.526C81.8792 563.657 81.8555 563.789 81.7997 563.909C80.9342 565.984 80.312 568.152 79.9455 570.37C78.6298 578.28 80.4562 586.391 85.0353 592.974C85.0932 593.046 85.1318 593.131 85.1472 593.222C85.1626 593.313 85.1544 593.407 85.1234 593.494C85.0722 593.609 84.9916 593.709 84.8898 593.783C84.788 593.858 84.6684 593.904 84.5431 593.918C84.4177 593.932 84.2908 593.913 84.1751 593.863C84.0594 593.813 83.9588 593.733 83.8835 593.632Z" fill="white"/>
<path d="M110.697 526.618C109.097 532.993 109.574 539.712 112.057 545.798C112.145 545.95 112.289 546.061 112.459 546.107C112.628 546.153 112.809 546.131 112.962 546.045C113.112 545.955 113.221 545.81 113.267 545.642C113.313 545.473 113.292 545.294 113.209 545.14C110.884 539.366 110.452 533.003 111.977 526.967C112.016 526.8 111.989 526.624 111.902 526.476C111.814 526.328 111.672 526.22 111.506 526.174C111.34 526.129 111.163 526.15 111.012 526.233C110.861 526.316 110.748 526.454 110.697 526.618H110.697Z" fill="white"/>
<path d="M74.7499 586.997L74.8305 587.233C74.6796 587.042 74.5275 586.845 74.379 586.65C74.1313 586.34 73.8923 586.024 73.6554 585.705C64.3686 573.248 58.2596 558.714 55.858 543.363C55.376 540.374 55.0368 537.369 54.8404 534.348C54.0275 522.679 55.4057 510.96 58.9039 499.798C60.007 496.111 61.6306 492.601 63.7257 489.373C64.0407 488.913 64.3644 488.464 64.7067 488.027C66.755 485.253 69.6132 483.182 72.8876 482.1C74.09 481.731 75.3376 481.531 76.5949 481.504C77.0337 481.491 77.4682 481.501 77.9028 481.527C80.6095 481.791 83.2324 482.611 85.6074 483.936C87.9824 485.261 90.0583 487.062 91.7051 489.226C94.1354 492.468 95.9036 496.157 96.9087 500.082C97.0127 500.453 97.1107 500.825 97.2027 501.199C97.8374 503.834 98.3006 506.507 98.5894 509.201C101.676 536.546 93.2758 566.65 74.7499 586.997Z" fill="#F2F2F2"/>
<path d="M76.5742 481.608C74.8782 495.12 73.6952 508.683 73.0251 522.297C72.3579 535.898 72.2074 549.512 72.5734 563.138C72.7786 570.761 73.1461 578.377 73.6759 585.987C73.7344 586.829 75.0608 586.893 75.0015 586.04C74.0579 572.455 73.6294 558.847 73.7158 545.217C73.8044 531.599 74.4095 517.998 75.5311 504.414C76.159 496.814 76.9486 489.229 77.8998 481.661C78.0061 480.814 76.6801 480.765 76.5742 481.608V481.608Z" fill="white"/>
<path d="M95.9633 500.654C94.3157 510.096 89.0128 518.509 81.2041 524.068C79.0256 525.619 76.6747 526.912 74.1986 527.921C73.4071 528.246 74.0183 529.424 74.8031 529.102C83.9623 525.239 91.2278 517.918 95.0223 508.73C96.0865 506.153 96.8471 503.46 97.2889 500.707C97.4257 499.867 96.0991 499.819 95.9633 500.654V500.654Z" fill="white"/>
<path d="M70.895 560.337C68.7922 559.254 66.8226 557.93 65.0259 556.391C60.926 552.886 57.7733 548.406 55.8579 543.363C55.3759 540.374 55.0367 537.369 54.8403 534.348C54.9568 534.41 55.0552 534.501 55.1257 534.612C55.1962 534.724 55.2365 534.851 55.2426 534.983C55.4401 537.223 55.8963 539.432 56.6021 541.567C59.1114 549.183 64.4965 555.517 71.6093 559.219C71.694 559.256 71.7679 559.314 71.8238 559.387C71.8797 559.461 71.9159 559.547 71.9288 559.639C71.937 559.764 71.912 559.89 71.8565 560.004C71.8009 560.117 71.7167 560.214 71.6121 560.284C71.5076 560.355 71.3864 560.397 71.2606 560.406C71.1347 560.415 71.0087 560.391 70.895 560.337Z" fill="white"/>
<path d="M63.5106 488.537C65.0552 494.925 68.5983 500.654 73.6243 504.89C73.7728 504.983 73.9522 505.015 74.1237 504.977C74.2952 504.939 74.4449 504.835 74.5403 504.688C74.6308 504.539 74.6604 504.36 74.6229 504.19C74.5853 504.019 74.4835 503.87 74.3387 503.772C69.5972 499.739 66.2592 494.304 64.806 488.252C64.7633 488.085 64.6575 487.941 64.511 487.851C64.3644 487.761 64.1885 487.731 64.0205 487.768C63.8524 487.805 63.7053 487.906 63.6101 488.049C63.515 488.193 63.4793 488.368 63.5106 488.537L63.5106 488.537Z" fill="white"/>
<path d="M75.3238 619.195L75.5183 619.35C75.2884 619.27 75.0542 619.186 74.8243 619.102C74.4484 618.974 74.0771 618.837 73.7055 618.696C59.1717 613.201 46.1971 604.245 35.9061 592.604C33.8898 590.345 31.9856 587.996 30.1935 585.556C23.2238 576.162 18.074 565.546 15.0099 554.256C13.9538 550.556 13.4312 546.724 13.458 542.875C13.4757 542.318 13.5066 541.766 13.5597 541.213C13.7914 537.772 15.0844 534.488 17.2606 531.813C18.0753 530.855 19.0186 530.014 20.0637 529.315C20.4262 529.067 20.7977 528.842 21.178 528.629C23.6008 527.394 26.2526 526.673 28.9672 526.51C31.6818 526.347 34.4008 526.746 36.954 527.683C40.7478 529.106 44.2244 531.262 47.1852 534.028C47.4726 534.284 47.7556 534.545 48.0344 534.811C49.988 536.689 51.8179 538.691 53.5125 540.806C70.8404 562.184 79.9753 592.074 75.3238 619.195Z" fill="#F2F2F2"/>
<path d="M20.1022 529.413C25.9502 541.711 32.2579 553.777 39.0253 565.608C45.7883 577.428 52.9933 588.98 60.6401 600.263C64.9186 606.576 69.3302 612.796 73.8749 618.922C74.3777 619.6 75.5296 618.94 75.0202 618.253C66.9087 607.314 59.219 596.079 51.9511 584.548C44.6919 573.027 37.8768 561.241 31.5057 549.191C27.9416 542.449 24.5222 535.633 21.2476 528.744C20.8812 527.973 19.7372 528.645 20.1022 529.413Z" fill="white"/>
<path d="M46.6967 535.019C50.3939 543.862 50.4564 553.806 46.8707 562.695C45.8703 565.175 44.586 567.531 43.0434 569.715C42.5511 570.415 43.7007 571.078 44.1887 570.385C49.8253 562.197 52.0046 552.115 50.2535 542.33C49.762 539.585 48.9527 536.907 47.8421 534.349C47.5048 533.567 46.3617 534.242 46.6967 535.019Z" fill="white"/>
<path d="M57.7173 598.808C55.3622 599.027 52.9896 598.973 50.6472 598.644C45.3048 597.898 40.2356 595.822 35.9059 592.604C33.8897 590.345 31.9855 587.996 30.1934 585.556C30.3247 585.546 30.4566 585.569 30.576 585.625C30.6955 585.681 30.7982 585.767 30.8743 585.875C32.2469 587.655 33.8211 589.271 35.5655 590.69C41.7814 595.755 49.7303 598.192 57.7173 597.481C57.8084 597.466 57.9018 597.475 57.9884 597.507C58.0751 597.539 58.1522 597.592 58.2123 597.662C58.287 597.764 58.3338 597.884 58.348 598.009C58.3622 598.134 58.3433 598.261 58.2932 598.377C58.2432 598.493 58.1637 598.593 58.0626 598.669C57.9616 598.745 57.8425 598.792 57.7173 598.808Z" fill="white"/>
<path d="M12.8266 542.287C17.5687 546.838 23.6395 549.757 30.1554 550.618C30.5135 550.666 30.8153 550.279 30.8186 549.955C30.8145 549.781 30.7433 549.614 30.6198 549.491C30.4963 549.367 30.33 549.296 30.1554 549.292C23.9883 548.447 18.2488 545.666 13.7646 541.349C13.1498 540.756 12.2106 541.693 12.8266 542.287H12.8266Z" fill="white"/>
<path d="M165.862 444.249C167.157 443.361 168.242 442.2 169.04 440.847C169.838 439.494 170.33 437.983 170.48 436.42C170.631 434.857 170.437 433.279 169.913 431.799C169.388 430.319 168.545 428.972 167.443 427.852L171.611 334.834L150.395 337.216L151.628 428.2C149.87 430.176 148.898 432.727 148.896 435.372C148.894 438.016 149.862 440.569 151.616 442.547C153.371 444.525 155.79 445.791 158.416 446.105C161.041 446.418 163.69 445.758 165.862 444.249Z" fill="#FFB8B8"/>
<path d="M204.564 601.708L216.639 603.83L228.573 558.267L212.752 555.134L204.564 601.708Z" fill="#FFB8B8"/>
<path d="M237.954 619.136L200.005 612.465L202.583 597.803L225.87 601.897C227.795 602.235 229.635 602.95 231.284 603.999C232.934 605.049 234.36 606.413 235.482 608.014C236.604 609.614 237.4 611.421 237.824 613.329C238.249 615.238 238.293 617.211 237.954 619.136Z" fill="#2F2E41"/>
<path d="M171.422 607.752L183.682 607.751L189.514 560.463L171.42 560.464L171.422 607.752Z" fill="#FFB8B8"/>
<path d="M207.326 619.135L168.795 619.136L168.794 604.249L192.438 604.248C196.386 604.248 200.173 605.816 202.965 608.608C205.757 611.4 207.326 615.186 207.326 619.135L207.326 619.135Z" fill="#2F2E41"/>
<path d="M223.574 594.802C223.383 594.803 223.192 594.791 223.002 594.769L208.572 593.581C207.915 593.504 207.28 593.294 206.707 592.964C206.134 592.634 205.633 592.191 205.237 591.661C204.84 591.132 204.555 590.528 204.399 589.885C204.243 589.242 204.219 588.574 204.329 587.922L217.654 513.241L208.65 465.767C208.577 465.381 208.367 465.035 208.058 464.792C207.749 464.549 207.363 464.426 206.971 464.446C206.579 464.465 206.207 464.626 205.924 464.898C205.641 465.17 205.466 465.536 205.431 465.927L194.176 592.554C194.052 593.825 193.44 594.998 192.468 595.826C191.496 596.654 190.24 597.072 188.966 596.991L175.371 596.485C174.18 596.401 173.061 595.883 172.225 595.03C171.389 594.177 170.895 593.047 170.835 591.854L169.921 440.086L240.402 431.277L245.326 507.317L245.306 507.398L228.315 591.073C228.057 592.135 227.449 593.081 226.589 593.757C225.729 594.433 224.668 594.801 223.574 594.802Z" fill="#2F2E41"/>
<path d="M194.687 290.249C208.252 290.249 219.248 279.252 219.248 265.688C219.248 252.123 208.252 241.127 194.687 241.127C181.122 241.127 170.126 252.123 170.126 265.688C170.126 279.252 181.122 290.249 194.687 290.249Z" fill="#FFB8B8"/>
<path d="M216.301 451.179C212.46 451.202 208.692 450.124 205.444 448.073C193.547 440.637 180.034 443.593 173.037 446.016C172.343 446.259 171.603 446.342 170.872 446.259C170.141 446.176 169.439 445.928 168.817 445.535C168.202 445.149 167.683 444.63 167.298 444.014C166.912 443.399 166.671 442.705 166.593 441.984L153.87 328.358C151.738 309.321 163.206 291.422 181.138 285.799C181.811 285.587 182.496 285.387 183.193 285.197C188.773 283.684 194.617 283.413 200.314 284.401C206.01 285.39 211.421 287.615 216.165 290.92C220.997 294.261 225.038 298.621 228.004 303.692C230.97 308.763 232.789 314.423 233.332 320.273L244.042 434.66C244.115 435.401 244.015 436.148 243.75 436.843C243.485 437.539 243.062 438.163 242.515 438.667C238.76 442.14 227.863 451.178 216.301 451.179Z" fill="#E9C46A"/>
<path d="M177.56 352.724L148.857 349.568C148.04 349.479 147.252 349.214 146.547 348.792C145.842 348.37 145.236 347.802 144.77 347.125C144.305 346.448 143.991 345.678 143.849 344.869C143.708 344.06 143.743 343.229 143.951 342.435L151.257 314.588C151.74 310.412 153.86 306.599 157.151 303.983C160.441 301.367 164.635 300.163 168.812 300.635C172.989 301.107 176.809 303.215 179.434 306.499C182.058 309.783 183.274 313.973 182.814 318.151L183.898 346.827C183.929 347.648 183.783 348.466 183.469 349.225C183.155 349.984 182.681 350.667 182.08 351.227C181.478 351.786 180.763 352.21 179.983 352.468C179.203 352.727 178.377 352.814 177.56 352.724V352.724Z" fill="#E9C46A"/>
<path d="M243.927 440.266C245.106 439.228 246.043 437.945 246.672 436.506C247.302 435.067 247.608 433.507 247.569 431.937C247.53 430.367 247.148 428.825 246.449 427.419C245.749 426.012 244.75 424.777 243.522 423.798L236.449 330.956L215.66 335.636L227.863 426.05C226.356 428.223 225.699 430.873 226.016 433.498C226.332 436.123 227.601 438.541 229.581 440.293C231.561 442.045 234.115 443.01 236.759 443.005C239.403 443 241.954 442.026 243.927 440.266Z" fill="#FFB8B8"/>
<path d="M207.69 346.888C207.089 346.329 206.615 345.646 206.301 344.887C205.987 344.127 205.841 343.309 205.872 342.488L206.956 313.813C206.496 309.634 207.712 305.444 210.336 302.16C212.961 298.877 216.781 296.768 220.958 296.296C225.135 295.825 229.329 297.029 232.619 299.644C235.91 302.26 238.03 306.074 238.513 310.25L245.819 338.096C246.027 338.891 246.062 339.721 245.921 340.53C245.779 341.34 245.465 342.109 245 342.786C244.534 343.463 243.928 344.032 243.223 344.453C242.518 344.875 241.73 345.14 240.913 345.23L212.21 348.386C211.393 348.476 210.567 348.389 209.787 348.13C209.007 347.872 208.292 347.448 207.69 346.888Z" fill="#E9C46A"/>
<path d="M193.226 291.174C192.79 291.174 192.355 291.123 191.93 291.023L191.805 290.992C170.21 287.689 165.438 275.181 164.391 269.957C163.306 264.549 164.541 259.329 167.331 257.302C165.81 252.499 166.054 248.241 168.058 244.639C171.553 238.359 179.139 236.236 180.156 235.976C186.215 231.507 193.463 234.49 194.782 235.095C206.5 230.76 210.979 234.368 211.789 235.174C217.028 236.115 220.22 238.138 221.28 241.19C223.271 246.921 216.975 254.05 216.706 254.35L216.566 254.506L207.186 254.953C206.296 254.995 205.425 255.224 204.629 255.625C203.833 256.026 203.131 256.59 202.567 257.28C202.003 257.97 201.59 258.77 201.355 259.63C201.121 260.49 201.07 261.389 201.205 262.27C201.459 263.406 201.78 264.527 202.165 265.625C203.767 270.632 204.968 274.908 203.42 276.534C203.069 276.849 202.637 277.059 202.172 277.139C201.708 277.22 201.231 277.168 200.794 276.99C199.328 276.598 198.332 276.68 197.836 277.234C197.066 278.094 197.301 280.269 198.498 283.36C198.874 284.337 198.975 285.398 198.79 286.429C198.606 287.46 198.143 288.42 197.452 289.207C196.932 289.821 196.284 290.314 195.555 290.654C194.825 290.994 194.031 291.171 193.226 291.174Z" fill="#2F2E41"/>
<path d="M481.76 354H360.76C356.253 353.995 351.932 352.202 348.745 349.015C345.557 345.828 343.765 341.507 343.76 337V155.168C343.765 150.661 345.557 146.34 348.745 143.153C351.932 139.966 356.253 138.174 360.76 138.168H481.76C486.267 138.174 490.588 139.966 493.775 143.153C496.962 146.34 498.755 150.661 498.76 155.168V337C498.755 341.507 496.962 345.828 493.775 349.015C490.588 352.202 486.267 353.995 481.76 354ZM360.76 140.168C356.783 140.173 352.97 141.755 350.158 144.567C347.346 147.379 345.764 151.192 345.76 155.168V337C345.764 340.977 347.346 344.79 350.158 347.602C352.97 350.414 356.783 351.995 360.76 352H481.76C485.737 351.995 489.549 350.414 492.361 347.602C495.173 344.79 496.755 340.977 496.76 337V155.168C496.755 151.192 495.173 147.379 492.361 144.567C489.549 141.755 485.737 140.173 481.76 140.168H360.76Z" fill="#3F3D56"/>
<path d="M463.26 225.584H379.26C377.006 225.582 374.846 224.686 373.252 223.092C371.659 221.499 370.762 219.338 370.76 217.084V177.084C370.762 174.831 371.659 172.67 373.252 171.077C374.846 169.483 377.006 168.587 379.26 168.584H463.26C465.513 168.587 467.674 169.483 469.267 171.077C470.861 172.67 471.757 174.831 471.76 177.084V217.084C471.757 219.338 470.861 221.499 469.267 223.092C467.674 224.686 465.513 225.582 463.26 225.584Z" fill="#E9C46A"/>
<path d="M457.26 263.084H385.26C383.138 263.084 381.103 262.241 379.603 260.741C378.103 259.241 377.26 257.206 377.26 255.084C377.26 252.963 378.103 250.928 379.603 249.427C381.103 247.927 383.138 247.084 385.26 247.084H457.26C459.382 247.084 461.416 247.927 462.917 249.427C464.417 250.928 465.26 252.963 465.26 255.084C465.26 257.206 464.417 259.241 462.917 260.741C461.416 262.241 459.382 263.084 457.26 263.084Z" fill="#CCCCCC"/>
<path d="M457.26 293.084H385.26C383.138 293.084 381.103 292.241 379.603 290.741C378.103 289.241 377.26 287.206 377.26 285.084C377.26 282.963 378.103 280.928 379.603 279.427C381.103 277.927 383.138 277.084 385.26 277.084H457.26C459.382 277.084 461.416 277.927 462.917 279.427C464.417 280.928 465.26 282.963 465.26 285.084C465.26 287.206 464.417 289.241 462.917 290.741C461.416 292.241 459.382 293.084 457.26 293.084Z" fill="#CCCCCC"/>
<path d="M457.26 323.084H385.26C383.138 323.084 381.103 322.241 379.603 320.741C378.103 319.241 377.26 317.206 377.26 315.084C377.26 312.963 378.103 310.928 379.603 309.427C381.103 307.927 383.138 307.084 385.26 307.084H457.26C459.382 307.084 461.416 307.927 462.917 309.427C464.417 310.928 465.26 312.963 465.26 315.084C465.26 317.206 464.417 319.241 462.917 320.741C461.416 322.241 459.382 323.084 457.26 323.084Z" fill="#CCCCCC"/>
<path d="M776.76 456H655.76C651.253 455.995 646.932 454.202 643.745 451.015C640.557 447.828 638.765 443.507 638.76 439V257.168C638.765 252.661 640.557 248.34 643.745 245.153C646.932 241.966 651.253 240.174 655.76 240.168H776.76C781.267 240.174 785.588 241.966 788.775 245.153C791.962 248.34 793.755 252.661 793.76 257.168V439C793.755 443.507 791.962 447.828 788.775 451.015C785.588 454.202 781.267 455.995 776.76 456ZM655.76 242.168C651.783 242.173 647.97 243.755 645.158 246.567C642.346 249.379 640.764 253.192 640.76 257.168V439C640.764 442.977 642.346 446.79 645.158 449.602C647.97 452.414 651.783 453.995 655.76 454H776.76C780.737 453.995 784.549 452.414 787.361 449.602C790.173 446.79 791.755 442.977 791.76 439V257.168C791.755 253.192 790.173 249.379 787.361 246.567C784.549 243.755 780.737 242.173 776.76 242.168H655.76Z" fill="#3F3D56"/>
<path d="M752.26 285.084H680.26C678.138 285.084 676.103 284.241 674.603 282.741C673.103 281.241 672.26 279.206 672.26 277.084C672.26 274.963 673.103 272.928 674.603 271.427C676.103 269.927 678.138 269.084 680.26 269.084H752.26C754.382 269.084 756.416 269.927 757.917 271.427C759.417 272.928 760.26 274.963 760.26 277.084C760.26 279.206 759.417 281.241 757.917 282.741C756.416 284.241 754.382 285.084 752.26 285.084Z" fill="#CCCCCC"/>
<path d="M752.26 315.084H680.26C678.138 315.084 676.103 314.241 674.603 312.741C673.103 311.241 672.26 309.206 672.26 307.084C672.26 304.963 673.103 302.928 674.603 301.427C676.103 299.927 678.138 299.084 680.26 299.084H752.26C754.382 299.084 756.416 299.927 757.917 301.427C759.417 302.928 760.26 304.963 760.26 307.084C760.26 309.206 759.417 311.241 757.917 312.741C756.416 314.241 754.382 315.084 752.26 315.084Z" fill="#CCCCCC"/>
<path d="M758.26 391.584H674.26C672.006 391.581 669.846 390.685 668.252 389.091C666.659 387.498 665.762 385.337 665.76 383.084V343.084C665.762 340.83 666.659 338.67 668.252 337.077C669.846 335.483 672.006 334.587 674.26 334.584H758.26C760.513 334.587 762.674 335.483 764.267 337.077C765.861 338.67 766.757 340.83 766.76 343.084V383.084C766.757 385.337 765.861 387.498 764.267 389.091C762.674 390.685 760.513 391.581 758.26 391.584Z" fill="#E9C46A"/>
<path d="M752.26 427.084H680.26C678.138 427.084 676.103 426.242 674.603 424.741C673.103 423.241 672.26 421.206 672.26 419.084C672.26 416.963 673.103 414.928 674.603 413.427C676.103 411.927 678.138 411.084 680.26 411.084H752.26C754.382 411.084 756.416 411.927 757.917 413.427C759.417 414.928 760.26 416.963 760.26 419.084C760.26 421.206 759.417 423.241 757.917 424.741C756.416 426.242 754.382 427.084 752.26 427.084Z" fill="#CCCCCC"/>
<path d="M702.76 167H581.76C577.253 166.995 572.932 165.202 569.745 162.015C566.557 158.828 564.765 154.507 564.76 150V37.1685C564.765 32.6613 566.557 28.3403 569.745 25.1532C572.932 21.9662 577.253 20.1735 581.76 20.1685H702.76C707.267 20.1735 711.588 21.9662 714.775 25.1532C717.962 28.3403 719.755 32.6613 719.76 37.1685V150C719.755 154.507 717.962 158.828 714.775 162.015C711.588 165.202 707.267 166.995 702.76 167ZM581.76 22.1685C577.783 22.173 573.97 23.7548 571.158 26.5668C568.346 29.3789 566.764 33.1916 566.76 37.1685V150C566.764 153.977 568.346 157.79 571.158 160.602C573.97 163.414 577.783 164.995 581.76 165H702.76C706.737 164.995 710.549 163.414 713.361 160.602C716.173 157.79 717.755 153.977 717.76 150V37.1685C717.755 33.1916 716.173 29.3789 713.361 26.5668C710.549 23.7548 706.737 22.173 702.76 22.1685H581.76Z" fill="#3F3D56"/>
<path d="M678.26 131.584H606.26C604.138 131.584 602.103 130.741 600.603 129.241C599.103 127.741 598.26 125.706 598.26 123.584C598.26 121.463 599.103 119.428 600.603 117.928C602.103 116.427 604.138 115.584 606.26 115.584H678.26C680.382 115.584 682.416 116.427 683.917 117.928C685.417 119.428 686.26 121.463 686.26 123.584C686.26 125.706 685.417 127.741 683.917 129.241C682.416 130.741 680.382 131.584 678.26 131.584Z" fill="#CCCCCC"/>
<path d="M678.26 101.584H606.26C604.138 101.584 602.103 100.742 600.603 99.2412C599.103 97.7409 598.26 95.7061 598.26 93.5844C598.26 91.4626 599.103 89.4278 600.603 87.9275C602.103 86.4272 604.138 85.5844 606.26 85.5844H678.26C680.382 85.5844 682.416 86.4272 683.917 87.9275C685.417 89.4278 686.26 91.4626 686.26 93.5844C686.26 95.7061 685.417 97.7409 683.917 99.2412C682.416 100.742 680.382 101.584 678.26 101.584Z" fill="#CCCCCC"/>
<path d="M678.26 71.5844H606.26C604.138 71.5844 602.103 70.7415 600.603 69.2412C599.103 67.7409 598.26 65.7061 598.26 63.5844C598.26 61.4626 599.103 59.4278 600.603 57.9275C602.103 56.4272 604.138 55.5844 606.26 55.5844H678.26C680.382 55.5844 682.416 56.4272 683.917 57.9275C685.417 59.4278 686.26 61.4626 686.26 63.5844C686.26 65.7061 685.417 67.7409 683.917 69.2412C682.416 70.7415 680.382 71.5844 678.26 71.5844Z" fill="#CCCCCC"/>
<path d="M488.76 166C501.462 166 511.76 155.703 511.76 143C511.76 130.297 501.462 120 488.76 120C476.057 120 465.76 130.297 465.76 143C465.76 155.703 476.057 166 488.76 166Z" fill="#264653"/>
<path d="M486.48 151.774C485.963 151.775 485.459 151.608 485.045 151.297L485.019 151.278L479.614 147.14C479.363 146.948 479.151 146.709 478.992 146.436C478.833 146.163 478.73 145.861 478.688 145.548C478.646 145.234 478.666 144.916 478.747 144.61C478.829 144.305 478.969 144.019 479.162 143.768C479.354 143.517 479.594 143.306 479.868 143.148C480.141 142.99 480.444 142.888 480.757 142.847C481.07 142.806 481.389 142.827 481.694 142.91C481.999 142.992 482.285 143.134 482.535 143.327L486.036 146.012L494.31 135.222C494.502 134.972 494.741 134.762 495.014 134.604C495.287 134.446 495.588 134.344 495.901 134.302C496.214 134.261 496.531 134.282 496.836 134.363C497.141 134.445 497.426 134.586 497.677 134.777L497.625 134.847L497.678 134.778C498.183 135.166 498.513 135.739 498.596 136.37C498.68 137.001 498.509 137.64 498.122 138.145L488.391 150.837C488.166 151.129 487.876 151.366 487.545 151.528C487.214 151.691 486.849 151.775 486.48 151.774Z" fill="white"/>
<path d="M788.76 269C801.462 269 811.76 258.703 811.76 246C811.76 233.297 801.462 223 788.76 223C776.057 223 765.76 233.297 765.76 246C765.76 258.703 776.057 269 788.76 269Z" fill="#264653"/>
<path d="M786.48 254.774C785.963 254.775 785.459 254.608 785.045 254.297L785.019 254.278L779.614 250.14C779.363 249.948 779.151 249.709 778.992 249.436C778.833 249.163 778.73 248.861 778.688 248.548C778.646 248.234 778.666 247.916 778.747 247.61C778.829 247.305 778.969 247.019 779.162 246.768C779.354 246.517 779.594 246.306 779.868 246.148C780.141 245.99 780.444 245.888 780.757 245.847C781.07 245.806 781.389 245.828 781.694 245.91C781.999 245.992 782.285 246.134 782.535 246.327L786.036 249.012L794.31 238.222C794.502 237.972 794.741 237.762 795.014 237.604C795.287 237.446 795.588 237.344 795.901 237.302C796.214 237.261 796.531 237.282 796.836 237.363C797.141 237.445 797.426 237.586 797.677 237.777L797.625 237.847L797.678 237.779C798.183 238.166 798.513 238.739 798.596 239.37C798.68 240.001 798.509 240.64 798.122 241.145L788.391 253.837C788.166 254.129 787.876 254.366 787.545 254.529C787.214 254.691 786.849 254.775 786.48 254.774Z" fill="white"/>
<path d="M715.76 46C728.462 46 738.76 35.7025 738.76 23C738.76 10.2975 728.462 0 715.76 0C703.057 0 692.76 10.2975 692.76 23C692.76 35.7025 703.057 46 715.76 46Z" fill="#264653"/>
<path d="M713.48 31.774C712.963 31.775 712.459 31.6076 712.045 31.2973L712.019 31.278L706.614 27.1396C706.363 26.9483 706.151 26.7091 705.992 26.4359C705.833 26.1627 705.73 25.8609 705.688 25.5476C705.646 25.2343 705.666 24.9159 705.747 24.6104C705.829 24.305 705.969 24.0186 706.162 23.7677C706.354 23.5168 706.594 23.3064 706.868 23.1484C707.141 22.9904 707.444 22.888 707.757 22.8471C708.07 22.8061 708.389 22.8275 708.694 22.9099C708.999 22.9923 709.285 23.1341 709.535 23.3272L713.036 26.0118L721.31 15.2219C721.502 14.9716 721.741 14.7616 722.014 14.6038C722.287 14.4461 722.588 14.3436 722.901 14.3023C723.214 14.2611 723.531 14.2818 723.836 14.3633C724.141 14.4448 724.426 14.5855 724.677 14.7774L724.625 14.8473L724.678 14.7785C725.183 15.1664 725.513 15.7388 725.596 16.37C725.68 17.0012 725.509 17.6396 725.122 18.1453L715.391 30.8368C715.166 31.1293 714.876 31.3659 714.545 31.5285C714.214 31.691 713.849 31.775 713.48 31.774Z" fill="white"/>
<path d="M382 620H1C0.734784 620 0.480429 619.895 0.292892 619.707C0.105356 619.52 0 619.265 0 619C0 618.735 0.105356 618.48 0.292892 618.293C0.480429 618.105 0.734784 618 1 618H382C382.265 618 382.52 618.105 382.707 618.293C382.895 618.48 383 618.735 383 619C383 619.265 382.895 619.52 382.707 619.707C382.52 619.895 382.265 620 382 620Z" fill="#3F3D56"/>
</g>
<defs>
<clipPath id="clip0">
<rect width="811.76" height="620" fill="white"/>
</clipPath>
</defs>
</svg>
