<svg width="1920" height="194" viewBox="0 0 1920 194" fill="none" xmlns="http://www.w3.org/2000/svg">
<path d="M-19.6016 130L45.0519 103.3C109.705 77.0002 239.012 23.0001 368.319 28.7001C497.625 34.0001 626.933 98.0001 756.239 92.7001C885.546 87.0001 1014.86 13.0001 1144.16 2.0001C1273.46 -8.9999 1402.78 45.0002 1532.08 71.3002C1661.38 98.0002 1790.7 98.0001 1855.34 98.0001H1920V194H1855.34C1790.7 194 1661.38 194 1532.08 194C1402.78 194 1273.46 194 1144.16 194C1014.86 194 885.546 194 756.239 194C626.933 194 497.625 194 368.319 194C239.012 194 109.705 194 45.0519 194H-19.6016V130Z" fill="#E9C46A"/>
</svg>
