<svg width="764" height="732" viewBox="0 0 764 732" fill="none" xmlns="http://www.w3.org/2000/svg">
<path d="M190.126 208.681C150.209 247.17 128.852 310.691 135.567 370.875C137.805 391.528 143.401 412.076 154.126 428.556C172.592 456.823 203.555 469.235 233.399 475.285C263.243 481.334 294.113 482.586 322.372 495.102C339.719 502.717 355.48 514.399 372.267 523.578C426.266 553.305 488.006 556.747 547.414 552.574C572.222 550.801 597.309 547.672 620.438 536.824C648.883 523.473 673.318 498.44 688.333 466.94C696.074 450.877 701.39 433.25 708.758 416.978C726.105 379.115 755.296 347.511 762.384 305.268C769.378 263.233 752.591 220.781 732.26 185.213C721.255 165.916 708.385 146.933 690.758 136.607C672.292 125.759 650.003 125.237 632.842 111.782C614.376 97.3879 605.516 71.103 589.662 52.8497C573.621 34.492 551.518 25.7304 529.881 19.0549C493.975 8.10287 457.136 1.84457 420.111 0.175693C351.19 -2.74484 287.865 30.6327 258.767 108.757C251.772 127.532 247.296 148.497 236.57 164.977C224.633 183.231 205.048 194.183 190.126 208.681Z" fill="#DFD3C3"/>
<path d="M479.994 103.185C479.994 156.5 479.994 209.677 479.994 262.991C479.994 316.306 479.994 369.483 479.994 422.798C479.994 452.848 479.994 482.898 479.994 512.949C479.994 514.749 482.248 514.749 482.248 512.949C482.248 459.634 482.248 406.457 482.248 353.142C482.248 299.827 482.248 246.651 482.248 193.336C482.248 163.286 482.248 133.235 482.248 103.185C482.248 101.385 479.994 101.385 479.994 103.185Z" fill="black"/>
<path d="M533.738 529.976C537.569 526.93 541.625 521.944 541.4 515.159C541.287 509.62 538.245 505.327 535.316 502.28C520.443 487.047 441.683 487.047 426.809 502.28C423.88 505.327 420.838 509.62 420.725 515.159C420.612 521.944 424.556 526.93 428.387 529.976C444.499 542.716 517.626 542.716 533.738 529.976Z" fill="#282633"/>
<path d="M478.753 201.641C501.739 202.057 524.387 199.149 546.584 190.563C541.851 154.835 537.232 119.107 532.499 83.379C530.133 65.6535 531.485 60.3912 518.077 56.3753C505.232 52.6363 491.936 51.2515 478.866 52.0824C465.796 51.2515 452.5 52.6363 439.655 56.3753C426.247 60.2527 427.486 65.6535 425.233 83.379C420.5 119.107 415.88 154.835 411.148 190.563C410.697 194.025 452.838 199.841 457.796 200.256C464.782 200.949 471.767 201.503 478.753 201.641Z" fill="#E9C46A"/>
<path d="M508.5 75.4855C515.823 74.3777 523.373 72.5774 528.894 66.6228C529.232 66.3458 529.457 65.9304 529.795 65.6534C528.218 60.9451 525.288 58.4525 518.077 56.3753C505.232 52.6363 491.936 51.2515 478.866 52.0824C465.796 51.2515 452.5 52.6363 439.655 56.3753C431.655 58.7294 428.838 61.499 427.486 67.1767C427.824 68.2846 428.388 69.2539 429.064 70.0848C432.557 74.3777 438.078 74.9316 443.148 75.2086C448.106 75.4855 453.064 75.7625 458.021 76.0394C474.697 77.0088 491.711 77.9782 508.5 75.4855Z" fill="#E9C46A"/>
<path d="M520.402 308.67C541.697 322.241 567.5 311.578 589.697 323.349C588.232 304.515 583.725 282.497 569.528 272.249C566.486 270.034 563.218 268.51 560.176 266.433C553.077 261.448 547.782 253.554 541.134 247.6C522.317 230.844 496.965 232.644 473.754 235.137C471.388 235.414 468.684 235.829 467.106 238.045C465.078 240.953 465.979 245.661 468.008 248.431C470.036 251.2 472.965 252.862 475.669 254.801C493.923 267.679 501.697 296.76 520.402 308.67Z" fill="#264653" fill-opacity="0.8"/>
<path d="M587.439 322.238C579.777 314.898 570.763 309.913 561.298 307.697C552.848 305.759 543.608 304.374 536.172 298.558C530.876 294.265 527.045 287.756 522.2 282.633C516.116 276.262 508.679 272.108 501.355 268.231C495.384 265.046 481.299 253.967 470.82 251.336C472.398 252.582 474.088 253.552 475.665 254.659C493.919 267.538 501.693 296.757 520.397 308.667C541.017 321.822 565.805 312.267 587.439 322.238Z" fill="#264653" fill-opacity="0.8"/>
<path d="M721.972 220.455C721.296 218.794 719.831 218.101 718.366 217.547C708.338 213.808 696.507 218.24 689.972 228.349C688.507 230.564 687.38 232.919 685.578 234.719C681.296 239.15 674.986 238.596 669.465 239.981C660.564 242.197 652.902 249.952 648.395 259.784C645.691 265.6 644.113 272.109 641.522 277.925C636.339 289.142 626.085 297.174 627.55 311.299C627.663 312.545 627.888 313.791 628.001 315.037C627.775 313.514 632.846 308.806 633.86 307.56C636.339 304.513 638.592 301.466 641.409 298.835C647.043 293.573 653.465 289.834 659.775 286.372C670.028 280.833 680.62 275.571 688.733 266.015C694.479 259.23 698.535 250.506 703.268 242.612C706.084 237.904 709.127 233.334 712.845 229.595C714.76 227.518 723.324 223.779 721.972 220.455Z" fill="#264653" fill-opacity="0.8"/>
<path d="M633.301 370.711C628.344 373.342 623.611 376.942 619.668 381.651C617.865 383.866 612.907 389.821 613.808 393.422C610.654 379.85 612.682 361.017 624.963 355.478C630.034 353.124 636.005 353.678 640.625 350.216C643.104 348.415 645.132 345.507 647.724 343.846C651.216 341.491 655.273 341.491 659.216 341.63C664.061 341.63 669.019 341.768 673.864 341.768C671.498 345.092 669.582 348.969 667.104 352.154C663.385 357.14 657.977 359.909 652.907 362.125C646.372 365.033 639.611 367.249 633.301 370.711Z" fill="#264653" fill-opacity="0.8"/>
<path d="M677.249 343.706C682.995 341.075 689.53 340.105 693.361 333.597C693.924 332.489 694.375 330.965 693.699 330.135C693.023 329.165 691.671 329.581 690.657 329.996C684.234 332.766 677.136 331.796 670.375 331.519C663.502 331.242 656.178 331.796 650.882 337.059C645.474 342.321 643.108 351.461 637.474 356.307C634.432 358.938 630.714 360.046 627.221 361.985C621.7 365.17 606.488 384.003 614.826 391.897C618.657 379.572 629.362 372.786 639.39 368.078C645.587 365.17 651.897 362.4 658.094 359.631C661.136 358.246 664.291 356.861 666.657 354.092C667.896 352.568 668.911 350.768 670.037 349.245C672.065 346.475 674.544 344.952 677.249 343.706Z" fill="#264653" fill-opacity="0.8"/>
<path d="M538.434 175.589C537.984 188.052 537.42 200.654 539.448 212.84C542.941 234.305 550.941 250.507 567.73 259.508C579.786 266.017 593.195 269.34 604.124 278.341C606.603 280.419 617.983 239.013 618.547 235.274C620.913 219.626 620.8 205.085 614.828 190.683C611.11 181.682 606.152 173.373 600.518 165.895C591.392 154.124 580.012 144.846 567.617 139.03C563.11 136.953 558.378 135.291 553.533 135.845C538.209 137.645 538.885 161.879 538.434 175.589Z" fill="#264653" fill-opacity="0.8"/>
<path d="M652.235 174.893C645.024 183.756 644.235 198.296 637.813 208.267C635.221 212.144 631.841 215.191 629.024 218.93C624.743 224.608 624.067 230.562 624.292 238.04C624.292 239.979 627.447 261.443 628.236 260.889C640.292 251.334 652.235 241.641 664.292 232.086C668.461 228.762 672.742 225.3 676.01 220.592C679.165 215.883 681.193 210.067 683.108 204.251C687.615 190.818 692.01 177.524 696.517 164.092C698.432 158.414 701.7 152.875 702.263 146.782C703.953 129.61 671.841 160.491 669.813 162.153C664.517 166.723 657.869 168.8 653.024 174.201C652.686 174.339 652.461 174.616 652.235 174.893Z" fill="#264653" fill-opacity="0.8"/>
<path d="M667.893 235.963C683.217 223.5 691.104 201.343 697.076 180.017C698.766 173.924 700.344 167.692 701.808 161.461C703.273 155.229 704.4 147.751 700.794 143.043C707.442 151.767 689.189 171.154 684.344 173.786C679.611 176.278 674.316 178.909 671.837 184.449C670.372 187.911 670.259 191.927 669.245 195.527C666.428 205.636 657.752 211.037 650.203 216.438C637.133 225.577 627.781 246.488 626.992 265.044C627.105 262.275 642.992 251.335 645.584 249.257C652.457 243.718 660.907 241.641 667.893 235.963Z" fill="#264653" fill-opacity="0.8"/>
<path d="M587.224 321.688C591.506 327.781 593.421 335.674 594.773 343.429C596.238 352.431 597.365 361.57 598.379 370.71C600.407 389.543 601.646 408.515 602.097 427.625C602.322 438.288 602.322 448.951 602.097 459.614C602.097 461.415 604.351 461.415 604.351 459.614C604.801 440.089 604.463 420.701 603.224 401.176C602.097 382.204 600.182 363.094 597.252 344.399C595.9 335.536 593.759 326.673 588.914 319.888C587.787 318.364 586.21 320.303 587.224 321.688Z" fill="#264653" fill-opacity="0.8"/>
<path d="M613.248 389.264C607.614 412.667 610.206 437.455 606.15 461.135C605.812 462.936 608.065 463.628 608.291 461.828C612.347 438.148 609.755 413.36 615.389 389.957C615.84 388.295 613.699 387.603 613.248 389.264Z" fill="#264653" fill-opacity="0.8"/>
<path d="M619.9 325.843C614.041 341.491 611.449 358.525 609.872 375.558C608.182 393.56 607.28 411.839 606.041 429.98C605.252 440.782 604.576 451.445 603.787 462.246C603.675 464.047 605.928 464.047 606.041 462.246C607.28 443.69 608.52 425.134 609.872 406.577C610.999 389.267 611.9 371.819 614.717 354.786C616.294 345.369 618.548 336.091 621.815 327.228C622.491 325.705 620.463 324.181 619.9 325.843Z" fill="#264653" fill-opacity="0.8"/>
<path d="M550.603 138.889C557.251 144.843 562.66 152.598 567.279 160.907C572.012 169.354 576.181 178.356 580.012 187.357C587.899 206.19 594.096 225.993 598.152 246.488C600.18 256.736 601.758 267.122 602.659 277.508C603.561 288.171 603.673 298.834 603.561 309.497C603.448 333.177 603.448 356.718 603.673 380.399C603.899 403.94 604.237 427.343 604.8 450.885C604.913 453.932 604.913 456.84 605.026 459.886C605.026 461.687 607.279 461.687 607.279 459.886C606.603 435.929 606.265 411.972 605.927 388.015C605.702 364.196 605.589 340.378 605.702 316.421C605.702 305.204 605.927 294.125 605.251 283.047C604.575 272.522 603.223 262.136 601.42 251.75C597.702 231.117 591.843 211.037 584.293 192.065C580.575 182.649 576.406 173.37 571.786 164.369C567.392 155.922 562.434 147.752 556.35 140.966C554.885 139.304 553.308 137.781 551.73 136.396C550.603 135.565 549.477 137.919 550.603 138.889Z" fill="#264653" fill-opacity="0.8"/>
<path d="M627.339 260.205C618.55 283.746 613.142 308.95 609.761 334.569C606.156 361.434 604.691 388.576 603.452 415.718C602.663 431.505 601.987 447.153 600.973 462.94C600.86 464.74 603.114 464.74 603.226 462.94C605.029 435.521 605.818 407.963 607.621 380.544C609.311 354.371 612.128 328.337 617.536 302.857C620.578 288.732 624.409 275.022 629.367 261.728C629.93 259.928 628.015 258.543 627.339 260.205Z" fill="#264653" fill-opacity="0.8"/>
<path d="M699.78 234.309C705.752 227.662 713.189 225.862 720.625 223.369C713.865 230.016 708.006 238.187 703.611 247.326C702.372 249.957 701.132 252.727 699.78 255.22C694.034 265.883 685.02 273.361 675.668 279.038C664.4 285.962 652.119 290.809 641.978 300.226C638.147 303.826 634.429 306.734 631.048 311.166C628.908 313.797 626.992 316.705 625.077 319.613C624.288 320.859 619.443 327.229 619.781 328.614C614.372 304.519 622.823 273.499 644.006 265.052C658.428 259.236 676.457 265.467 687.724 252.865C692.569 247.603 695.048 239.71 699.78 234.309Z" fill="#264653" fill-opacity="0.8"/>
<path d="M649.109 548.077C654.743 511.795 659.25 474.128 659.362 437.016C624.771 436.877 590.292 437.016 555.701 437.016C553.673 437.016 564.152 540.183 565.391 551.262C565.504 552.647 565.729 554.17 566.631 555.001C567.194 555.555 567.983 555.693 568.771 555.832C593.673 560.125 616.546 557.216 641.222 556.524C643.024 556.524 644.94 556.386 646.292 555.001C648.095 553.616 648.658 550.708 649.109 548.077Z" fill="#090B0A"/>
<path d="M0.507812 535.861V732C254.14 732 507.771 732 761.403 732V535.861C507.659 535.861 254.14 535.861 0.507812 535.861Z" fill="#264653"/>
<path d="M239.943 493.58C233.408 507.319 226.422 520.821 218.985 534.205C216.845 538.114 214.591 542.378 215.38 546.76C215.943 550.076 218.309 552.919 220.901 554.932C230.366 562.631 244.675 562.986 254.478 555.88C263.83 549.129 268.563 537.403 272.957 526.506C282.196 503.529 292.45 480.906 303.492 458.758C308.788 448.098 316.675 437.438 320.731 426.186C323.886 417.303 325.689 407.117 328.28 397.879C330.421 390.18 331.999 380.942 327.041 374.901C324.562 371.94 320.844 370.282 317.013 369.808C307.435 368.505 297.971 373.717 291.436 381.179C273.633 401.195 267.774 428.911 257.746 453.546C252.112 467.049 246.14 480.433 239.943 493.58Z" fill="#F6D1BA"/>
<path d="M480.499 512.411C480.725 512.411 480.95 512.293 481.176 512.293C474.866 498.317 470.809 483.748 463.824 470.246C456.725 456.625 449.176 443.241 444.105 428.555C442.19 422.87 440.162 417.184 438.246 411.499C435.88 404.511 433.401 397.405 433.514 390.061C433.627 382.718 436.669 374.901 442.866 371.466C449.627 367.676 458.302 370.163 464.274 375.375C476.218 385.797 483.88 403.919 490.19 418.369C497.851 435.78 504.95 453.309 512.161 470.838C515.879 479.84 519.598 488.96 523.203 497.961C528.612 511.108 533.795 526.743 526.922 539.061C523.091 545.93 515.992 550.194 508.668 552.089C501.344 554.103 493.682 553.984 486.133 553.866C456.049 553.51 426.866 550.786 396.782 549.365C392.05 549.128 387.204 548.891 382.472 549.602C377.289 550.312 372.331 551.971 367.261 553.274C351.937 557.064 335.825 556.59 320.726 551.971C319.599 547.825 322.529 543.917 325.233 540.719C328.951 536.455 332.557 532.073 336.275 527.809C342.811 520.228 350.81 516.438 359.261 511.345C361.177 510.161 363.092 508.976 365.233 508.384C369.515 507.081 374.247 508.147 378.529 509.569C395.88 515.135 408.387 518.57 426.528 517.741C444.556 516.794 462.584 515.017 480.499 512.411Z" fill="#F6D1BA"/>
<path d="M490.199 418.25C483.889 403.8 476.227 385.679 464.284 375.256C458.424 370.163 449.748 367.676 442.875 371.347C436.678 374.782 433.523 382.599 433.523 389.943C433.411 397.286 435.889 404.511 438.256 411.38C440.171 417.066 442.199 422.751 444.115 428.436C448.734 441.82 455.495 454.256 462.03 466.693C474.988 455.677 484.452 440.162 492.79 424.409C492.002 422.395 491.1 420.382 490.199 418.25Z" fill="#EFA294"/>
<path d="M328.278 397.879C330.419 390.18 331.996 380.942 327.039 374.901C324.56 371.94 320.841 370.282 317.01 369.808C307.433 368.505 297.968 373.717 291.433 381.179C277.236 397.168 270.588 418.132 263.377 438.504C272.166 451.888 284.222 462.785 298.194 469.773C299.996 466.101 301.799 462.429 303.602 458.876C308.898 448.216 316.785 437.557 320.841 426.305C323.884 417.303 325.686 407.117 328.278 397.879Z" fill="#EFA294"/>
<path d="M433.516 269.253C433.629 266.529 433.854 263.686 434.192 260.844C434.981 253.145 432.052 245.209 431.488 237.392C431.376 236.208 431.263 235.023 430.7 234.076C429.685 232.536 427.77 232.062 425.967 231.825C408.503 229.101 390.813 227.562 373.123 227.562C364.109 227.562 355.094 227.798 346.08 228.391C338.869 228.864 329.968 228.154 327.376 237.037C326.475 240.116 326.475 243.433 326.588 246.631C327.151 270.911 326.7 296.613 314.982 317.459C311.489 323.618 307.208 329.303 305.179 336.054C304.616 338.186 304.165 340.436 304.841 342.45C305.968 346.121 309.799 347.898 313.292 349.083C338.419 357.847 365.348 358.676 391.939 359.387C408.164 359.861 424.84 360.216 440.164 354.649C443.319 353.583 446.361 352.162 448.728 349.675C451.094 347.187 452.446 343.516 451.432 340.199C450.418 336.646 447.375 334.159 445.911 330.843C444.221 326.579 442.981 321.367 441.404 316.748C437.685 305.97 435.094 294.718 433.854 283.229C433.291 278.373 433.291 273.872 433.516 269.253Z" fill="#D4664E"/>
<path d="M253.353 563.462C242.423 560.857 232.733 552.092 236.339 538.945C236.677 537.879 237.128 536.813 237.916 536.221C239.268 535.392 240.959 535.984 242.311 536.813C248.62 540.366 253.127 546.051 259.888 549.012C263.043 550.315 275.775 551.618 274.648 557.303C274.085 559.909 271.719 561.567 269.353 562.515C264.733 564.528 258.874 564.765 253.353 563.462Z" fill="#EFA294"/>
<path d="M385.174 558.608C401.512 558.844 417.737 561.332 433.512 555.883C440.16 553.515 453.005 551.501 454.244 543.447C455.483 535.748 447.934 520.351 446.019 512.652C444.216 505.664 442.526 498.321 443.314 491.096C443.765 486.832 445.005 482.687 446.244 478.66C448.047 472.856 450.413 466.815 451.54 460.775C452.329 456.63 451.652 451.418 453.906 447.628C455.033 445.733 456.948 444.549 458.751 443.364C474.638 433.06 483.765 424.769 493.004 407.476C493.793 405.937 494.694 404.16 494.469 402.383C494.244 400.488 492.892 398.949 491.652 397.527C480.047 384.854 468.441 372.062 456.835 359.389C452.216 354.296 447.258 348.966 441.061 346.361C428.103 340.912 413.568 347.663 400.498 349.44C387.766 351.217 374.019 347.427 361.512 344.347C352.498 342.215 343.372 339.491 334.132 339.136C316.104 338.307 304.273 349.085 294.02 363.653C284.668 377.037 275.203 390.421 265.851 403.686C264.95 405.108 263.936 406.529 263.823 408.187C263.71 409.727 264.386 411.148 265.062 412.451C269.457 421.334 276.217 428.677 283.879 434.481C290.64 439.692 299.992 441.587 300.893 451.655C301.794 462.196 304.161 472.619 307.879 482.45C309.569 487.069 311.71 491.807 311.485 496.781C311.372 499.268 310.808 501.637 310.132 504.125C307.316 514.784 305.175 526.036 301.456 536.341C298.414 544.75 296.611 548.777 307.428 551.383C333.005 557.66 359.259 558.134 385.174 558.608Z" fill="#264653"/>
<path d="M226.984 564.292C226.195 575.78 216.392 582.768 207.604 587.861C202.871 590.586 198.026 592.836 193.294 595.323C187.886 598.166 181.801 601.245 177.97 606.22C174.027 611.431 173.351 619.367 178.759 623.749C184.28 628.25 192.505 627.895 198.928 626C206.364 623.868 213.012 619.367 219.097 614.748C225.744 609.655 232.054 604.206 238.702 599.113C245.801 593.665 253.124 588.572 261.35 585.137C269.237 581.821 277.575 580.4 286.138 580.992C287.603 581.11 287.603 578.741 286.138 578.623C278.927 578.149 271.716 578.978 264.73 581.347C257.631 583.716 251.096 587.388 244.899 591.652C238.364 596.152 232.167 601.245 225.97 606.338C219.773 611.313 213.576 616.406 206.702 620.196C200.167 623.749 192.505 626.118 185.181 624.223C182.027 623.394 178.759 621.617 177.519 618.182C176.28 614.748 177.52 610.721 179.548 607.996C181.801 604.917 184.956 602.785 188.111 600.89C190.252 599.587 192.505 598.284 194.759 597.1C199.378 594.731 203.998 592.481 208.505 589.993C218.195 584.545 228.449 576.846 229.35 564.292C229.35 562.752 227.097 562.752 226.984 564.292Z" fill="#282633"/>
<path d="M226.309 518.335C223.267 523.664 220.788 530.889 218.985 534.206C216.845 538.114 214.591 542.378 215.38 546.761C215.943 550.077 218.309 552.92 220.901 554.933C230.366 562.632 244.675 562.987 254.478 555.881C259.436 552.327 263.154 547.353 266.084 541.786C265.971 542.023 243.774 514.663 241.52 513.242C238.704 511.465 235.323 510.636 232.281 511.702C230.14 512.413 228.112 515.018 226.309 518.335Z" fill="#EFA294"/>
<path d="M245.236 567.013C239.264 570.448 230.137 571.514 225.63 571.751C221.912 571.988 197.124 570.211 197.011 564.289C196.673 548.773 208.391 536.337 222.926 534.323C231.94 533.02 241.856 536.929 246.475 545.102C247.827 547.47 248.729 550.195 249.63 552.8C250.306 554.814 250.982 556.946 250.87 559.196C250.757 562.631 248.391 565.118 245.236 567.013Z" fill="#282633"/>
<path d="M255.269 556.119C253.579 544.631 250.086 532.076 244.227 522.127C235.889 507.795 228.227 521.298 218.875 525.088C215.044 526.628 210.65 525.798 206.932 527.575C204.227 528.76 202.312 531.128 200.396 533.379C195.889 538.709 190.706 544.394 189.016 551.619C188.115 555.29 188.566 559.554 191.044 562.278C192.397 563.818 194.199 564.766 196.115 565.358C200.847 567.016 206.03 566.898 211.101 566.779C217.861 566.661 225.072 567.371 231.833 566.069C232.847 565.832 233.861 565.595 234.65 565.003C236.002 563.937 236.34 562.042 236.565 560.383C237.692 552.685 238.03 544.868 237.579 537.169C241.974 543.565 245.354 549.961 247.269 557.541C248.058 560.502 249.861 564.292 252.678 563.581C255.382 563.108 255.72 559.081 255.269 556.119Z" fill="#F6D1BA"/>
<path d="M380.224 355.835C400.956 356.071 422.252 354.413 441.632 346.596C441.519 346.596 441.406 346.478 441.294 346.478C428.336 341.029 413.801 347.781 400.731 349.557C387.998 351.334 374.252 347.544 361.745 344.464C352.731 342.332 343.604 339.608 334.365 339.253C326.478 338.897 319.83 340.674 313.971 344.109C334.59 353.347 357.689 355.598 380.224 355.835Z" fill="white"/>
<path d="M327.945 378.695C345.409 381.893 363.325 382.959 381.015 383.67C409.972 384.973 440.169 383.078 466.085 369.339C463.042 366.022 460.113 362.824 457.071 359.508C455.831 358.205 454.592 356.902 453.352 355.599C430.705 366.733 405.015 369.22 380.226 368.983C353.747 368.746 326.593 365.667 302.706 353.23C299.663 356.428 296.846 359.982 294.142 363.89C293.241 365.075 292.452 366.378 291.551 367.562C302.593 373.839 316.565 376.563 327.945 378.695Z" fill="white"/>
<path d="M376.047 416.243C396.892 418.375 419.089 421.099 439.709 416.598C457.286 412.69 471.934 402.385 485.905 391.133C482.3 387.106 478.581 383.198 474.976 379.171C446.018 395.989 411.427 398.24 378.751 396.582C359.709 395.634 340.329 394.331 321.512 390.66C309.456 388.291 295.372 384.856 284.104 377.986C280.273 383.435 276.442 388.883 272.611 394.331C283.766 401.556 298.639 403.807 310.696 406.294C332.329 410.558 354.188 413.992 376.047 416.243Z" fill="white"/>
<path d="M494.251 400.723C481.631 411.027 468.448 420.739 453.124 426.188C435.772 432.347 416.955 432.347 398.815 431.044C379.773 429.741 360.843 427.609 342.027 424.766C323.999 422.042 305.632 419.081 287.942 414.225C279.943 412.093 272.281 409.014 265.52 404.513C264.731 405.697 264.055 406.882 264.055 408.303C263.943 409.843 264.619 411.264 265.295 412.567C269.689 421.45 276.45 428.793 284.112 434.597C286.14 436.137 288.281 437.321 290.421 438.505C347.998 454.969 409.181 453.784 466.194 435.189C467.772 434.715 469.124 434.834 470.251 435.308C479.715 427.964 486.476 420.029 493.237 407.355C494.025 405.816 494.927 404.039 494.701 402.262C494.589 401.907 494.476 401.315 494.251 400.723Z" fill="white"/>
<path d="M301.35 454.97C302.026 460.418 302.927 465.866 304.392 471.196C328.166 477.237 352.504 479.961 377.067 480.316C393.405 480.553 409.743 479.843 426.081 478.303C433.179 477.711 440.391 477 447.377 475.697C448.954 470.841 450.757 465.866 451.771 460.773C452.222 458.286 452.222 455.444 452.56 452.838C403.095 465.866 351.039 466.577 301.35 454.97Z" fill="white"/>
<path d="M367.822 528.399C349.005 528.517 329.851 528.399 311.147 525.912C309.118 525.675 307.203 525.319 305.175 524.964C304.161 528.873 303.034 532.781 301.682 536.453C298.64 544.862 296.837 548.889 307.654 551.495C333.006 557.535 359.259 558.128 385.174 558.483C401.512 558.72 417.737 561.207 433.512 555.759C440.16 553.39 453.005 551.376 454.244 543.322C455.258 537.282 450.751 526.385 447.822 518.213C422.019 525.793 394.864 528.28 367.822 528.399Z" fill="white"/>
<path d="M308.211 512.414C311.591 513.006 314.971 513.361 318.352 513.716C335.366 515.256 352.718 515.493 369.844 515.375C394.971 515.138 420.323 513.006 444.548 506.018C443.534 501.043 442.858 496.069 443.421 491.094C443.534 490.502 443.534 489.91 443.646 489.317C439.477 489.91 435.421 490.383 431.252 490.739C413.9 492.515 396.548 493.463 379.196 493.226C355.76 492.989 332.211 490.739 309.225 485.527C310.577 489.199 311.817 492.871 311.704 496.779C311.591 499.267 311.028 501.635 310.352 504.123C309.563 506.965 308.887 509.689 308.211 512.414Z" fill="white"/>
<path d="M424.953 344.696C416.728 345.644 408.503 348.486 400.615 349.552C387.883 351.329 374.137 347.539 361.63 344.459C352.616 342.328 343.489 339.603 334.25 339.248C334.137 339.248 333.912 339.248 333.799 339.248C334.362 357.962 337.066 377.031 349.235 390.059C361.968 403.562 383.714 406.286 399.151 396.337C409.855 389.349 416.953 377.386 420.897 364.831C422.812 358.199 424.052 351.566 424.953 344.696Z" fill="white"/>
<path d="M400.623 349.555C387.891 351.331 374.145 347.541 361.638 344.462C355.553 343.041 349.582 341.382 343.384 340.316C341.244 349.436 341.807 359.267 345.075 368.032C349.244 378.928 357.807 387.93 368.173 392.431C371.779 393.97 375.61 395.036 379.44 394.918C391.722 394.563 401.074 383.192 406.821 371.822C410.877 363.768 414.032 355.122 416.173 346.238C410.877 347.423 405.581 348.844 400.623 349.555Z" fill="#F6D1BA"/>
<path d="M557.455 578.853C558.243 572.22 558.919 565.469 559.821 558.836C560.159 556.704 562.525 532.424 561.849 532.424C543.934 532.424 525.906 532.424 507.99 532.424C508.666 532.424 509.68 552.204 509.793 553.625C510.244 559.073 510.694 564.403 511.37 569.733C511.934 574.234 512.948 578.261 514.187 582.643C514.3 582.998 514.413 583.235 514.525 583.472C514.751 583.709 515.089 583.946 515.427 584.064C520.61 586.67 527.37 587.025 533.004 587.381C539.99 587.736 547.99 587.144 554.525 584.183C555.426 583.709 556.441 583.235 556.891 582.288C557.229 581.695 557.342 580.866 557.455 580.156C557.342 579.8 557.342 579.327 557.455 578.853Z" fill="white"/>
<path d="M518.238 536.457C515.083 536.22 503.252 535.036 509.9 530.772C511.477 529.824 515.646 529.35 517.562 528.995C525.674 527.692 534.012 527.218 542.237 527.692C548.66 528.048 555.308 528.995 560.604 532.075C560.942 532.311 561.392 532.548 561.618 532.904C562.068 533.614 561.618 534.562 560.942 535.036C560.153 535.509 559.139 535.746 558.125 535.865C545.054 538.115 531.533 537.286 518.238 536.457Z" fill="#1A1C25"/>
<path d="M472.617 533.855C473.969 511.825 476.898 489.676 476.786 466.58C410.758 465.988 344.279 463.856 278.364 466.58C277.35 466.58 276.224 466.698 275.66 467.528C274.984 468.238 275.097 469.423 275.097 470.37C275.773 484.82 276.449 499.151 276.674 513.246C276.9 528.406 277.35 543.448 278.026 558.254C278.477 568.203 278.702 577.915 279.153 587.627C279.266 590.114 279.379 592.602 280.393 594.852C280.505 595.207 280.731 595.563 281.069 595.918C281.519 596.392 282.308 596.51 282.871 596.51C303.491 598.761 325.125 597.102 345.857 597.221C367.829 597.221 389.688 597.339 411.659 597.339C420.561 597.339 429.575 597.458 438.476 597.576C446.363 597.576 455.152 598.642 462.814 596.629C464.053 596.273 465.405 595.918 466.645 595.681C466.983 595.563 467.321 595.444 467.546 595.207C467.772 594.97 467.772 594.615 467.884 594.378C469.349 584.548 469.462 574.599 470.588 564.531C471.377 554.345 472.053 544.159 472.617 533.855Z" fill="#282633"/>
<path d="M352.502 362.344C352.052 364.476 351.714 366.608 351.263 368.858C350.249 374.188 356.559 378.571 360.502 380.347C372.784 385.677 384.953 382.953 396.784 377.386C398.361 376.675 399.939 375.728 400.728 374.07C401.291 372.885 401.291 371.582 401.291 370.28C401.178 356.422 400.502 342.683 400.277 328.825C400.052 319.587 402.756 310.111 394.53 306.084C388.559 303.242 364.671 299.925 360.277 306.913C358.812 309.164 358.812 312.125 358.7 314.849C358.249 330.839 355.432 346.591 352.502 362.344Z" fill="#F6D1BA"/>
<path d="M400.17 328.831C400.057 324.685 400.621 320.54 400.395 316.75C386.987 314.263 373.128 314.499 359.832 317.342C359.382 317.46 358.931 317.579 358.48 317.697C358.03 326.817 357.016 335.819 355.551 344.82C359.156 350.861 363.889 355.954 370.199 358.204C380.001 361.758 391.269 356.902 398.142 348.847C399.043 347.782 399.832 346.716 400.621 345.531C400.508 339.964 400.283 334.398 400.17 328.831Z" fill="#EFA294"/>
<path d="M334.473 262.505C336.051 286.549 333.797 318.528 353.853 335.821C380.67 358.917 410.416 335.702 418.416 305.855C421.346 294.84 423.487 283.588 424.613 272.218C426.078 258.005 425.853 242.607 417.853 231C410.867 220.814 398.811 215.484 386.867 214.181C369.402 212.405 355.318 211.931 343.713 226.973C335.6 237.633 333.572 249.714 334.473 262.505Z" fill="#F6D1BA"/>
<path d="M419.09 280.742C421.343 276.478 423.709 272.095 427.765 269.727C428.892 269.134 430.132 268.661 431.371 269.016C433.85 269.727 434.301 273.161 433.963 275.886C432.949 285.479 427.878 294.599 420.554 300.284C419.766 300.877 418.864 301.469 418.075 300.995C417.287 300.521 417.174 299.455 417.174 298.508C416.949 291.875 417.399 285.124 418.413 278.491" fill="#F6D1BA"/>
<path d="M339.768 281.212C338.641 278.132 337.177 275.171 335.148 272.684C334.022 271.263 332.219 269.723 330.754 270.789C329.853 271.381 329.627 272.802 329.515 273.987C329.064 278.843 328.726 283.936 329.627 288.673C330.529 293.53 332.895 298.267 336.839 300.873C337.853 301.584 339.317 301.939 340.106 300.991C340.331 300.754 340.444 300.399 340.557 300.044C342.585 293.648 342.81 286.66 341.12 280.264" fill="#F6D1BA"/>
<path d="M384.283 292.586C384.621 292.349 384.847 292.112 385.185 291.757C385.523 291.401 385.861 291.046 385.973 290.572C386.199 289.743 385.973 288.914 385.748 288.085C383.607 280.386 385.973 272.569 383.833 264.871C382.03 258.593 377.297 263.094 375.945 267.002C374.143 272.451 373.129 278.018 371.551 283.584C371.326 284.177 371.213 284.887 370.875 285.361C369.974 286.664 368.058 287.138 367.833 288.796C367.72 289.743 368.283 290.691 368.96 291.401C373.241 296.494 379.1 296.85 384.283 292.586Z" fill="#EFA294"/>
<path d="M382.925 314.023C385.403 313.194 394.981 307.509 391.037 306.088C390.136 305.733 388.896 305.733 387.657 305.851C379.77 306.206 371.432 305.496 363.432 305.614C362.192 305.614 360.84 305.614 359.826 306.088C357.685 306.917 358.7 308.812 360.164 309.996C362.643 311.891 366.023 313.55 370.08 314.497C374.249 315.208 379.094 315.208 382.925 314.023Z" fill="white"/>
<path d="M366.928 240.587C368.28 241.298 369.52 242.482 369.52 244.022C369.52 245.562 368.28 246.864 366.928 247.338C365.576 247.812 364.111 247.694 362.647 247.694C358.816 247.694 354.872 248.523 351.379 250.181C350.478 250.536 349.464 251.01 348.562 250.655C346.872 249.944 347.21 247.22 348.562 246.035C352.844 241.771 360.957 237.507 366.928 240.587Z" fill="#D4664E"/>
<path d="M394.648 242.961C393.296 243.672 392.057 244.857 392.057 246.396C392.057 247.936 393.296 249.239 394.648 249.713C396 250.186 397.465 250.068 398.93 250.068C402.761 250.068 406.704 250.897 410.197 252.555C411.099 252.911 412.113 253.384 413.014 253.029C414.704 252.318 414.366 249.594 413.014 248.41C408.62 244.264 400.62 239.882 394.648 242.961Z" fill="#D4664E"/>
<path d="M358.25 271.982C361.855 271.982 361.855 266.06 358.25 266.06C354.531 266.06 354.531 271.982 358.25 271.982Z" fill="#D4664E"/>
<path d="M150.817 635.712C159.831 614.985 167.719 594.139 173.803 572.346C159.606 568.438 145.522 564.411 131.324 560.502C129.972 560.147 128.508 559.673 127.043 560.147C124.789 560.857 121.296 569.977 119.719 572.346C116.226 577.558 112.733 582.769 109.24 587.98C107.325 590.823 91.7755 617.472 89.9727 616.999C109.015 626.829 129.747 633.225 150.817 635.712Z" fill="#264653"/>
<path d="M399.269 273.515C402.874 273.515 402.874 267.593 399.269 267.593C395.663 267.593 395.663 273.515 399.269 273.515Z" fill="#D4664E"/>
<path d="M420.783 256.701C419.206 251.845 416.163 249.121 411.656 244.738C407.713 240.83 408.051 233.486 403.656 230.051C398.023 225.669 388.783 231.236 383.375 226.617C381.009 224.722 380.107 221.524 379.319 218.444C376.164 222.353 374.248 226.617 368.84 226.972C365.798 227.09 362.755 226.024 359.713 226.854C355.206 228.038 352.953 232.539 349.798 235.618C346.417 238.935 341.347 240.001 338.643 244.028C337.403 245.923 336.727 248.291 336.277 250.542C333.798 261.794 335.037 272.454 334.361 283.705C334.361 284.298 334.249 285.008 333.91 285.364C333.572 285.837 332.784 285.956 332.446 285.482C332.22 285.245 332.22 284.89 332.22 284.535C331.882 269.374 324.784 255.28 325.009 240.001C325.46 218.444 343.601 198.072 363.769 195.585C369.854 194.874 376.614 196.059 380.558 200.915C386.868 197.954 394.192 196.059 400.727 198.428C408.839 201.389 416.276 209.68 423.037 215.128C446.248 233.486 428.558 264.281 423.825 286.666C423.6 287.732 422.586 289.035 421.91 288.206C421.008 287.14 422.473 277.665 422.473 275.77C422.473 271.151 422.022 266.65 421.684 262.149C421.572 260.017 421.234 258.241 420.783 256.701Z" fill="#D4664E"/>
<path d="M137.63 560.149C123.996 579.336 110.362 598.406 96.7285 617.593C121.179 623.041 146.418 621.739 171.432 620.436C179.432 601.248 185.291 581.232 189.009 560.741C171.883 560.978 154.869 560.741 137.742 559.912" fill="white"/>
<path d="M55.1367 486.731C56.3761 505.445 58.7423 524.041 61.8972 542.281C65.7282 545.242 101.334 544.886 105.052 542.399C108.207 524.159 110.686 505.445 111.925 486.731H55.1367Z" fill="black"/>
<path d="M108.649 484.599C100.762 483.533 92.6496 483.77 84.537 483.533C75.861 483.296 66.9596 483.651 58.6217 484.717C56.9315 484.954 54.678 485.665 55.1287 486.849C55.354 487.442 56.2554 487.797 57.1568 488.152C64.1427 490.284 73.9455 489.81 81.4947 489.929C90.058 489.929 101.664 490.403 109.551 487.915C110.565 487.56 111.804 487.086 111.804 486.257C111.917 485.31 110.114 484.836 108.649 484.599Z" fill="#1A1A1A"/>
<path d="M93.3266 446.933C86.6787 460.554 83.2984 475.951 81.8337 491.112C81.383 495.376 81.1576 499.521 81.0449 503.785C81.0449 504.496 82.1717 504.496 82.1717 503.785C82.6224 488.624 84.8759 473.345 89.7209 459.014C91.0731 455.105 92.6505 451.197 94.4533 447.407C94.566 446.933 93.6646 446.341 93.3266 446.933Z" fill="black"/>
<path d="M114.404 464.108C108.658 466.951 103.137 470.267 98.4045 474.768C96.0383 477.018 93.8974 479.387 92.0946 482.111C90.0664 485.191 88.6017 488.507 87.2495 491.942C85.5594 496.087 84.0946 500.351 82.7425 504.733C82.5172 505.444 83.6439 505.799 83.8693 505.089C84.996 501.299 86.3482 497.627 87.7003 493.955C89.0524 490.402 90.5172 486.849 92.4327 483.651C95.8129 478.203 100.545 473.82 105.616 470.385C108.545 468.372 111.7 466.595 114.855 465.055C115.644 464.819 114.968 463.753 114.404 464.108Z" fill="black"/>
<path d="M67.1838 448.485C74.5078 461.869 79.9162 476.437 83.0711 491.598C83.9725 495.861 84.7613 500.244 85.212 504.508C85.3247 505.218 86.4514 505.218 86.3388 504.508C84.4233 488.992 80.1416 473.831 73.9444 459.737C72.1416 455.71 70.2261 451.801 68.0852 447.893C67.7472 447.301 66.7331 447.893 67.1838 448.485Z" fill="black"/>
<path d="M52.4264 472.872C56.032 470.622 60.0882 468.49 64.3699 468.371C68.5388 468.253 72.2571 470.503 75.2993 473.346C80.7077 478.202 84.426 484.953 85.8907 492.178C86.7921 496.324 86.7921 500.588 86.1161 504.733C86.0034 505.444 87.1302 505.799 87.2428 505.088C88.5949 497.271 87.1302 489.217 83.6372 482.229C81.8344 478.794 79.581 475.715 76.7641 473.109C73.7219 470.267 70.1163 467.661 65.9474 467.305C60.877 466.832 56.032 469.319 51.863 471.925C51.187 472.162 51.863 473.228 52.4264 472.872Z" fill="black"/>
<path d="M107.861 449.899C105.72 451.558 88.1431 463.402 87.6924 461.388C83.9741 446.228 86.791 428.461 94.4528 415.196C96.819 411.05 99.8612 407.142 103.917 404.655C107.974 402.167 113.157 401.457 117.213 403.707C119.917 405.128 121.945 407.734 123.298 410.577C126.565 417.446 125.889 426.093 122.622 432.962C119.354 439.832 113.833 445.399 107.861 449.899Z" fill="#264653" fill-opacity="0.8"/>
<path d="M94.7969 479.627C99.3039 459.966 111.022 442.318 127.022 431.066C130.064 428.934 134.459 427.158 137.05 429.763C138.064 430.711 138.515 432.014 138.853 433.435C142.684 446.937 136.262 462.808 124.318 469.086C114.966 474.06 103.248 473.587 95.0222 480.338" fill="#264653" fill-opacity="0.8"/>
<path d="M48.7036 441.129C51.5205 444.09 54.7881 446.577 57.943 448.946C62.2246 452.144 66.7317 455.342 70.2246 459.369C71.5767 460.908 72.8161 462.567 74.1682 463.988C74.2809 464.106 76.9851 452.262 77.2105 450.722C77.6612 445.156 76.9851 439.352 75.7457 434.022C74.0555 427.034 70.9007 420.283 65.4922 415.901C57.3796 409.031 43.2952 409.268 41.4924 422.415C40.7037 427.863 42.8445 433.548 45.9994 437.931C46.9008 439.115 47.8022 440.181 48.7036 441.129Z" fill="#264653" fill-opacity="0.8"/>
<path d="M65.3838 442.077C60.5388 438.05 54.2289 436.866 48.7079 433.905C46.0037 432.483 43.4122 430.352 41.6094 427.864C42.1727 431.536 43.8629 435.089 46.1164 437.932C46.9051 438.998 47.8065 440.064 48.7079 441.011C51.5247 443.972 54.7923 446.46 57.9472 448.828C62.2289 452.026 66.7359 455.224 70.2288 459.251C71.3556 460.554 72.4823 461.975 73.6091 463.278C73.8344 455.343 71.4682 447.052 65.3838 442.077Z" fill="#264653" fill-opacity="0.8"/>
<path d="M55.8057 480.691C59.0733 474.887 63.2423 472.163 68.2 468.136C68.3127 468.018 68.538 467.899 68.538 467.662C68.6507 467.425 68.4254 467.07 68.2 466.833C62.9043 459.964 56.031 454.871 47.2423 455.463C40.5945 455.937 34.2847 459.845 30.7917 465.649C28.3129 469.676 27.1861 474.532 26.9607 479.388C26.7354 483.889 27.4115 488.626 29.7776 492.417C32.1438 496.207 36.3129 498.931 40.5945 498.457C44.5382 497.983 47.8058 495.022 50.1719 491.587C52.3128 488.271 53.7776 484.363 55.8057 480.691Z" fill="#264653" fill-opacity="0.8"/>
<path d="M139.746 437.344C139.521 443.384 134.901 448.596 129.831 451.675C124.535 454.992 118.563 456.768 113.38 460.203C107.972 463.875 103.803 469.086 99.7464 474.297C98.3943 475.956 97.0422 477.732 95.8027 479.509C103.915 473.35 115.183 473.705 124.31 468.849C135.126 463.401 141.436 449.899 139.746 437.344Z" fill="#264653" fill-opacity="0.8"/>
<path d="M102.123 469.321C98.8553 466.597 94.2356 467.545 89.7286 468.848C85.4469 470.032 80.7145 468.966 76.6582 470.387C73.278 471.572 70.123 473.941 68.6582 477.257C67.5315 479.744 67.4188 482.469 67.6442 485.193C68.0949 490.523 70.123 495.852 73.7286 499.643C75.9821 501.893 78.7991 503.67 81.7286 504.736C87.5877 506.868 94.6863 506.631 99.5313 502.485C102.574 499.879 104.376 496.089 105.503 492.181C107.419 484.482 107.757 479.744 104.376 472.638C103.813 471.098 103.024 470.032 102.123 469.321Z" fill="#264653" fill-opacity="0.8"/>
</svg>
