<svg width="882" height="654" viewBox="0 0 882 654" fill="none" xmlns="http://www.w3.org/2000/svg">
<g clip-path="url(#clip0)">
<path opacity="0.1" d="M375.229 25.1081C339.376 10.6771 301.49 -1.37745 262.814 0.137979C205.948 2.35946 151.359 36.2241 124.626 85.9491C101.945 128.08 99.146 177.46 89.3754 224.215C77.3512 281.81 54.2792 336.563 29.6452 390.094C16.4171 418.853 2.4567 448.231 0.284543 479.754C-2.72556 523.521 18.4021 567.132 51.5376 596.244C84.6731 625.356 128.678 640.716 172.845 644.066C196.348 645.848 220.909 644.195 241.784 633.363C263.872 621.903 279.972 601.195 302.149 589.898C322.699 579.428 346.739 577.964 369.811 579.324C399.935 581.1 429.672 587.361 458.145 597.923C490.394 609.909 520.381 627.276 552.516 639.434C584.651 651.591 620.642 658.376 653.525 648.233C684.44 638.702 708.846 615.557 730.852 592.12C766.836 553.865 799.817 512.574 829.47 468.655C849.328 439.199 867.812 408.124 876.59 373.794C893.381 308.157 870.277 234.108 819.032 189.282C776.573 152.146 719.593 136.027 663.816 126.246C612.954 117.325 554.143 116.774 507.324 93.5263C462.677 71.3287 422.048 43.9649 375.229 25.1081Z" fill="#E9C46A"/>
<path d="M514.629 532.983V564.265H523.033L521.406 530.684L514.629 532.983Z" fill="#AAABB0"/>
<path d="M388.393 526.672V557.953H396.805L395.177 524.373L388.393 526.672Z" fill="#AAABB0"/>
<path d="M535.237 480.753C535.237 477.581 532.809 475.01 529.814 475.01C526.82 475.01 524.392 477.581 524.392 480.753V524.95C524.392 528.122 526.82 530.693 529.814 530.693C532.809 530.693 535.237 528.122 535.237 524.95V480.753Z" fill="#AAABB0"/>
<path d="M396.121 468.405C396.121 465.234 393.693 462.662 390.699 462.662C387.704 462.662 385.276 465.234 385.276 468.405V524.941C385.276 528.113 387.704 530.685 390.699 530.685C393.693 530.685 396.121 528.113 396.121 524.941V468.405Z" fill="#AAABB0"/>
<path d="M549.075 141.787C549.075 141.787 559.919 136.905 561.546 141.787C563.173 146.669 563.987 188.86 563.987 188.86H553.679L549.075 141.787Z" fill="#AAABB0"/>
<path d="M430.298 141.787C430.298 141.787 419.445 136.905 417.818 141.787C416.191 146.669 415.377 188.86 415.377 188.86H425.685L430.298 141.787Z" fill="#AAABB0"/>
<path d="M431.917 99.8806L430.29 134.899H437.611V99.0195L431.917 99.8806Z" fill="#AAABB0"/>
<path d="M425.685 188.86L427.857 138.343C427.857 138.343 427.044 127.15 452.8 130.594C478.557 134.038 553.956 140.926 553.956 140.926V188.86H425.685Z" fill="#33323D"/>
<path d="M528.736 454.922L524.669 532.122C524.669 532.122 465.004 567.141 392.599 533.844L399.107 452.623L528.736 454.922Z" fill="#33323D"/>
<path d="M472.057 150.966L473.407 200.906H557.478L552.597 134.899L472.057 150.966Z" fill="#264653"/>
<path d="M480.599 421.909H401.409V528.101H480.599V421.909Z" fill="#E76F51"/>
<path d="M451.45 465.254C451.45 465.254 462.84 455.783 464.735 458.65C466.631 461.517 457.967 473.864 454.436 472.426C450.905 470.988 451.45 465.254 451.45 465.254Z" fill="#FFB9B9"/>
<path d="M767.559 185.985H247.731V461.517H767.559V185.985Z" fill="#504F60"/>
<path d="M425.954 97.8743C425.954 97.8743 421.886 57.6896 425.954 52.8161C430.022 47.9426 498.359 1.72207 561.547 55.9675C561.547 55.9675 567.51 56.2603 566.428 70.6052C565.79 79.6843 565.834 88.8025 566.558 97.8743C566.558 97.8743 430.567 108.207 425.954 97.8743Z" fill="#33323D"/>
<path opacity="0.1" d="M425.954 97.8743C425.954 97.8743 421.886 57.6896 425.954 52.8161C430.022 47.9426 498.359 1.72207 561.547 55.9675C561.547 55.9675 567.51 56.2603 566.428 70.6052C565.79 79.6843 565.834 88.8025 566.558 97.8743C566.558 97.8743 430.567 108.207 425.954 97.8743Z" fill="black"/>
<path d="M425.954 103.041C425.954 103.041 421.886 62.8559 425.954 57.9824C430.022 53.1089 498.359 6.88833 561.547 61.1338C561.547 61.1338 567.51 61.4265 566.428 75.7715C565.79 84.8505 565.834 93.9688 566.558 103.041C566.558 103.041 430.567 113.373 425.954 103.041Z" fill="#33323D"/>
<path d="M568.868 84.6746C568.868 84.6746 573.205 101.895 571.854 104.763C570.504 107.63 570.748 115.672 570.748 115.672C570.748 115.672 571.041 120.838 568.868 121.406C566.696 121.975 564.801 122.268 566.558 123.99C568.315 125.712 566.558 128.295 566.558 128.295C566.558 128.295 565.606 132.316 566.558 134.899C567.51 137.482 560.993 138.558 561.547 141.787C562.1 145.016 563.922 154.126 561.547 154.419C559.171 154.711 562.36 165.896 560.22 165.896C558.081 165.896 556.559 185.984 556.559 185.984C556.559 185.984 541.509 172.501 531.478 176.229C531.478 176.229 532.292 165.035 535.546 161.014C538.8 156.993 537.816 146.669 537.816 146.669L553.956 95.2912L568.868 84.6746Z" fill="#264653"/>
<path d="M488.328 322.132C484.805 326.257 481.006 304.231 481.006 304.231C481.006 304.231 470.975 318.869 464.467 309.113C459.96 302.354 463.515 283.205 466.094 272.089C467.249 267.146 468.225 263.788 468.225 263.788L482.869 261.205C482.869 261.205 482.918 264.58 483.243 268.679C483.683 274.215 484.634 281.086 486.66 282.731C490.232 285.581 491.859 317.973 488.328 322.132Z" fill="#AE6E79"/>
<path opacity="0.1" d="M480.737 64.2936C480.737 64.2936 455.241 64.0094 449.009 78.3543C442.778 92.6992 442.501 97.5899 440.06 99.8803C437.62 102.171 466.631 114.234 466.631 114.234L467.989 163.597C467.989 163.597 473.684 157.492 482.901 160.256C492.119 163.02 503.785 160.256 503.785 160.256C503.785 160.256 503.24 159.214 510.838 160.256C518.437 161.298 542.566 147.814 542.566 147.814C542.566 147.814 542.965 126.219 542.428 121.622C541.891 117.024 559.643 83.2364 559.643 83.2364C559.643 83.2364 573.473 69.1757 559.106 64.2936C559.106 64.2936 554.021 56.1826 540.939 56.2601C527.858 56.3376 480.737 64.2936 480.737 64.2936Z" fill="black"/>
<path d="M480.737 63.4327C480.737 63.4327 455.241 63.1486 449.009 77.4935C442.778 91.8384 442.501 96.7291 440.06 99.0195C437.62 101.31 466.631 113.373 466.631 113.373L467.989 162.736C467.989 162.736 473.684 156.632 482.901 159.396C492.119 162.159 503.785 159.396 503.785 159.396C503.785 159.396 503.24 158.354 510.838 159.396C518.437 160.437 542.566 146.954 542.566 146.954C542.566 146.954 552.052 130.594 551.515 126.004C550.978 121.415 570.495 86.6808 570.495 86.6808C570.495 86.6808 573.481 68.3148 559.106 63.4327C559.106 63.4327 554.021 55.3217 540.939 55.3992C527.858 55.4767 480.737 63.4327 480.737 63.4327Z" fill="#264653"/>
<path opacity="0.1" d="M483.308 268.653C477.719 266.81 468.949 270.874 466.159 272.097C467.314 267.155 468.29 263.796 468.29 263.796L482.934 261.213C482.934 261.213 482.958 264.589 483.308 268.653Z" fill="black"/>
<path d="M447.919 99.0195H440.061C440.061 99.0195 438.433 116.533 440.061 121.699C441.688 126.866 442.501 126.116 441.956 129.939C441.411 133.762 445.755 139.618 445.755 139.618C445.755 139.618 446.292 154.049 449.01 159.421C451.727 164.794 446.024 188.886 446.024 188.886C447.579 193.045 449.88 196.846 452.801 200.08C457.413 204.953 459.854 223.035 458.495 229.923C457.137 236.812 462.295 239.395 462.295 239.395C462.295 239.395 464.467 271.546 465.28 271.546C466.094 271.546 481.82 262.936 486.701 270.392L482.902 240.833L483.178 183.72C483.178 183.72 478.02 176.539 480.738 170.227C483.455 163.916 478.565 148.986 478.565 148.986L471.512 115.698L447.919 99.0195Z" fill="#264653"/>
<path d="M399.107 552.787C399.107 552.787 387.717 550.204 387.449 552.787C387.18 555.37 373.887 581.778 390.434 589.528C406.982 597.277 451.173 613.921 523.042 592.395C523.042 592.395 527.646 594.117 526.564 583.5C525.482 572.884 525.482 561.113 525.482 561.113C525.482 561.113 514.63 557.953 506.494 559.107C498.359 560.261 427.581 575.467 399.107 552.787Z" fill="#33323D"/>
<path opacity="0.1" d="M399.107 552.787C399.107 552.787 387.717 550.204 387.449 552.787C387.18 555.37 373.887 581.778 390.434 589.528C406.982 597.277 451.173 613.921 523.042 592.395C523.042 592.395 527.646 594.117 526.564 583.5C525.482 572.884 525.482 561.113 525.482 561.113C525.482 561.113 514.63 557.953 506.494 559.107C498.359 560.261 427.581 575.467 399.107 552.787Z" fill="black"/>
<path d="M399.107 549.343C399.107 549.343 387.717 546.76 387.449 549.343C387.18 551.926 373.887 578.334 390.434 586.084C406.982 593.833 451.173 610.477 523.042 588.951C523.042 588.951 527.646 590.673 526.564 580.056C525.482 569.44 525.482 557.669 525.482 557.669C525.482 557.669 514.63 554.509 506.494 555.663C498.359 556.817 427.581 572.023 399.107 549.343Z" fill="#33323D"/>
<path d="M465.524 109.335C464.824 113.545 463.238 117.592 462.994 121.854C462.75 126.117 464.304 130.964 468.022 132.635C469.059 132.963 470.064 133.395 471.024 133.926C472.455 134.951 473.041 136.88 473.342 138.688C473.742 141.022 473.837 143.403 473.627 145.765C473.424 148.142 472.944 150.699 474.05 152.774C475.994 156.451 481.063 155.908 484.919 154.875L483.593 165.75C483.487 166.611 483.422 167.584 484.016 168.17C484.296 168.379 484.614 168.526 484.949 168.603C485.285 168.68 485.631 168.685 485.968 168.617C489.32 168.394 492.769 167.903 495.641 166.034C498.513 164.166 500.653 160.687 500.108 157.183C499.473 153.119 495.503 149.89 496.04 145.808C496.455 142.648 499.375 140.642 501.295 138.214C504.769 133.771 504.956 127.021 502.231 121.992C499.506 116.964 494.242 113.847 488.824 113.278C485.822 112.96 482.698 113.347 479.875 112.245C478.893 111.864 478.007 111.247 477.287 110.444C476.568 109.64 476.033 108.671 475.726 107.613" fill="#444053"/>
<path d="M370.909 492.23L373.748 485.686C373.748 485.686 389.076 470.575 392.598 469.516C396.121 468.457 410.496 463.842 412.668 463.842C414.84 463.842 454.435 461.543 454.435 461.543L459.04 473.029L409.349 484.576L392.598 497.491L370.909 492.23Z" fill="#E76F51"/>
<path d="M490.297 316.001L487.702 337.14L486.701 345.277L475.043 346.999C475.043 346.999 473.782 344.14 472 339.749C466.59 326.42 456.405 298.936 462.311 294.191C470.162 287.871 472.073 308.829 472.073 308.829L481.022 304.231L490.297 316.001Z" fill="#FFB9B9"/>
<path d="M488.352 355.325H429.476V449.462H488.352V355.325Z" fill="white"/>
<path opacity="0.1" d="M488.352 355.325H429.476V449.462H488.352V355.325Z" fill="black"/>
<path d="M514.814 360.422L456.571 351.308L443.563 444.433L501.806 453.547L514.814 360.422Z" fill="white"/>
<path d="M492.032 364.88L462.054 360.189L455.358 408.119L485.337 412.81L492.032 364.88Z" fill="#264653"/>
<path d="M488.465 427.443L452.145 421.759L450.691 432.168L487.011 437.851L488.465 427.443Z" fill="#E76F51"/>
<path opacity="0.1" d="M503.785 117.816C522.579 117.816 537.815 101.691 537.815 81.7988C537.815 61.907 522.579 45.7815 503.785 45.7815C484.99 45.7815 469.754 61.907 469.754 81.7988C469.754 101.691 484.99 117.816 503.785 117.816Z" fill="black"/>
<path d="M503.785 116.955C522.579 116.955 537.815 100.829 537.815 80.9377C537.815 61.0459 522.579 44.9204 503.785 44.9204C484.99 44.9204 469.754 61.0459 469.754 80.9377C469.754 100.829 484.99 116.955 503.785 116.955Z" fill="#AE6E79"/>
<path d="M475.726 107.63C475.494 106.702 475.578 105.718 475.962 104.849C477.255 101.999 480.941 101.749 483.926 101.895C490.947 102.24 498.651 102.283 504.143 97.5902C506.421 95.6615 508.967 90.8138 512.278 91.7351C515.223 92.5531 516.452 96.7808 519.519 97.7194C521.74 98.3996 524.042 97.3147 526.304 96.8583C529.558 96.1781 532.893 96.7464 536.196 96.7722C539.499 96.798 543.087 96.135 545.341 93.5778C548.383 90.1336 547.887 84.7521 547.618 80.0336C547.285 73.9385 547.676 67.8232 548.782 61.8313C549.888 55.8729 551.589 49.2084 548.481 44.1025C545.52 39.2376 539.385 37.903 535.196 34.1747C531.274 30.7305 529.2 25.2113 525.059 22.0168C519.844 17.9957 512.758 18.5726 506.348 19.2701L492.436 20.8372C488.848 21.2419 485.114 21.6982 482.161 23.9628C476.832 28.0441 476.1 36.5253 471.056 40.9941C468.811 42.9745 465.939 43.9561 463.376 45.4371C460.814 46.9181 458.341 49.2601 458.048 52.3254C457.804 54.9085 459.121 57.2936 459.764 59.782C461.286 65.7231 458.91 71.8365 457.389 77.8207C455.867 83.805 455.574 91.0721 459.992 95.0415C460.887 95.8509 461.928 96.4708 462.799 97.3147C465.784 100.199 466.191 105.064 465.5 109.266" fill="#444053"/>
<path d="M506.559 125.927C507.008 125.927 507.373 124.963 507.373 123.774C507.373 122.586 507.008 121.622 506.559 121.622C506.11 121.622 505.746 122.586 505.746 123.774C505.746 124.963 506.11 125.927 506.559 125.927Z" fill="#444053"/>
<path d="M506.559 134.899C507.008 134.899 507.373 133.935 507.373 132.746C507.373 131.557 507.008 130.594 506.559 130.594C506.11 130.594 505.746 131.557 505.746 132.746C505.746 133.935 506.11 134.899 506.559 134.899Z" fill="#444053"/>
<path d="M488.515 322.072C489.385 321.012 489.963 318.292 490.297 314.701L480.599 301.906C480.599 301.906 484.708 326.713 488.515 322.072Z" fill="#AE6E79"/>
<path opacity="0.1" d="M499.449 533.56C499.449 533.56 483.536 559.598 433.82 556.808C386.985 554.225 364.124 529.832 365.214 521.221C366.305 512.611 362.229 491.653 372.26 485.626C378.077 482.139 385.732 484.205 391.134 486.565C393 487.367 395.043 487.593 397.026 487.216C399.009 486.84 400.85 485.877 402.336 484.438C407.274 479.728 416.484 474.424 431.022 478.6C432.892 479.128 434.866 479.089 436.717 478.488C442.769 476.533 457.177 473.141 467.631 480.675C469.283 481.88 471.226 482.563 473.231 482.644C475.236 482.725 477.222 482.2 478.956 481.131L479.102 481.037C483.983 477.877 506.762 507.729 506.762 507.729C506.762 507.729 507.853 530.693 499.449 533.56Z" fill="black"/>
<path d="M499.449 534.421C499.449 534.421 483.536 560.459 433.82 557.669C386.985 555.086 364.124 530.693 365.214 522.082C366.305 513.472 362.229 492.514 372.26 486.487C378.077 483 385.732 485.066 391.134 487.426C393 488.228 395.043 488.454 397.026 488.077C399.009 487.701 400.85 486.738 402.336 485.299C407.274 480.589 416.484 475.285 431.022 479.461C432.892 479.989 434.866 479.95 436.717 479.349C442.769 477.394 457.177 474.002 467.631 481.536C469.283 482.741 471.226 483.424 473.231 483.505C475.236 483.586 477.222 483.061 478.956 481.992L479.102 481.898C483.983 478.738 506.762 508.59 506.762 508.59C506.762 508.59 507.853 531.554 499.449 534.421Z" fill="#E76F51"/>
<path opacity="0.1" d="M433.821 544.616C451.721 544.616 466.232 529.257 466.232 510.312C466.232 491.366 451.721 476.008 433.821 476.008C415.92 476.008 401.409 491.366 401.409 510.312C401.409 529.257 415.92 544.616 433.821 544.616Z" fill="black"/>
<path d="M433.821 545.477C451.721 545.477 466.232 530.119 466.232 511.173C466.232 492.228 451.721 476.869 433.821 476.869C415.92 476.869 401.409 492.228 401.409 511.173C401.409 530.119 415.92 545.477 433.821 545.477Z" fill="#FFB9B9"/>
<path d="M424.53 481.519C421.129 482.492 417.777 484.352 416.118 487.409C415.117 489.251 414.767 491.464 413.319 492.997C411.269 495.175 407.812 495.218 405.037 496.441C402.263 497.664 400.433 501.969 403.15 503.329C400.319 503.484 398.22 506.248 397.87 508.995C397.52 511.741 398.505 514.48 399.456 517.097C402.564 525.57 405.908 534.413 412.758 540.44C423.92 550.273 440.744 549.817 455.737 548.775C456.962 548.818 458.177 548.521 459.26 547.914C460.887 546.777 461.09 544.599 461.359 542.687C462.49 534.525 466.671 527.111 469.405 519.319C472.138 511.526 473.261 502.373 468.656 495.476C461.879 485.247 435.936 478.247 424.53 481.519Z" fill="#B96B6B"/>
<path opacity="0.1" d="M487.702 337.14L486.701 345.277L475.043 346.999C475.043 346.999 473.782 344.14 472 339.749L487.514 336.666L487.702 337.14Z" fill="black"/>
<path d="M499.986 516.916L506.771 508.59L505.412 462.671C506.08 459.358 506.534 456.001 506.771 452.623C507.039 447.741 503.378 436.84 503.378 436.84C503.946 434.658 504.717 432.541 505.681 430.52C507.308 427.076 503.386 419.326 503.386 419.326C503.386 419.326 497.545 399.238 499.986 389.19C502.426 379.142 499.392 373.407 499.392 373.407C499.392 373.407 497.008 362.214 497.277 357.624C497.545 353.035 491.85 348.721 491.85 348.721L487.514 337.528L470.161 340.972V379.719C470.161 379.719 471.243 416.743 470.161 423.924C469.079 431.105 472.325 437.985 472.325 437.985C472.325 437.985 470.43 448.602 472.057 452.623C473.684 456.644 476.938 466.399 476.938 466.399C476.334 469.886 476.521 473.474 477.483 476.87C479.11 481.898 477.483 484.765 477.483 484.765L499.986 516.916Z" fill="#E76F51"/>
<g opacity="0.1">
<path opacity="0.1" d="M548.806 58.9984C547.889 64.0386 547.477 69.1673 547.578 74.299C547.648 70.0319 548.069 65.7795 548.839 61.5901C549.555 57.7671 550.466 53.6513 550.271 49.8369C549.971 52.9211 549.482 55.9814 548.806 58.9984Z" fill="black"/>
<path opacity="0.1" d="M462.823 94.5423C461.953 93.6813 460.911 93.0785 460.016 92.2605C457.641 90.1166 456.64 87.0082 456.445 83.6501C456.209 87.9553 457.039 92.1228 460.016 94.8437C460.911 95.6616 461.953 96.2816 462.823 97.1254C464.643 99.0312 465.698 101.607 465.768 104.315C466.004 100.699 465.313 96.936 462.823 94.5423Z" fill="black"/>
<path opacity="0.1" d="M460.228 62.3908C460.37 60.5722 460.222 58.7412 459.789 56.9749C459.317 55.1323 458.471 53.3327 458.162 51.4814C458.162 51.6795 458.097 51.8861 458.072 52.1014C457.836 54.6845 459.154 57.0696 459.789 59.558C460.023 60.4848 460.17 61.4336 460.228 62.3908Z" fill="black"/>
<path opacity="0.1" d="M545.365 90.7449C543.111 93.328 539.524 93.9651 536.221 93.9393C532.918 93.9135 529.574 93.3452 526.328 94.034C524.066 94.5162 521.764 95.5925 519.543 94.8951C516.476 93.9565 515.248 89.7288 512.311 88.9108C508.967 87.9809 506.421 92.8286 504.175 94.7573C498.684 99.4069 490.98 99.3638 483.959 99.0625C480.973 98.9161 477.288 99.1658 476.003 102.024C475.61 102.891 475.527 103.879 475.767 104.806L465.825 106.459C465.788 107.325 465.698 108.188 465.557 109.042L475.767 107.32C475.527 106.393 475.61 105.406 476.003 104.539C477.288 101.68 480.973 101.43 483.959 101.577C490.98 101.921 498.684 101.964 504.175 97.2715C506.453 95.3428 509 90.4952 512.311 91.4251C515.248 92.2345 516.476 96.4708 519.543 97.4093C521.764 98.0809 524.066 97.0046 526.328 96.5483C529.582 95.8594 532.918 96.4277 536.221 96.4535C539.524 96.4794 543.111 95.8164 545.365 93.2591C547.618 90.7018 547.944 86.8874 547.806 83.1677C547.708 86.0522 547.147 88.7214 545.365 90.7449Z" fill="black"/>
</g>
<g opacity="0.1">
<path opacity="0.1" d="M470.055 132.101C469.097 131.567 468.092 131.134 467.053 130.809C465.288 129.96 463.886 128.443 463.124 126.555C463.734 129.526 465.28 132.23 467.867 133.392C468.905 133.717 469.911 134.15 470.869 134.684C471.482 135.142 471.976 135.754 472.309 136.466C471.983 134.778 471.39 133.056 470.055 132.101Z" fill="black"/>
<path opacity="0.1" d="M483.951 153.05C480.2 154.057 475.303 154.582 473.245 151.216C473.309 152.027 473.53 152.815 473.895 153.532C475.653 156.847 479.948 156.735 483.601 155.917L483.951 153.05Z" fill="black"/>
<path opacity="0.1" d="M499.147 155.409C499.668 158.905 497.52 162.392 494.673 164.226C491.826 166.06 488.352 166.568 485 166.809C484.467 166.882 483.926 166.817 483.422 166.62C483.269 166.984 483.22 167.387 483.28 167.78C483.34 168.173 483.508 168.539 483.761 168.833C484.015 169.128 484.344 169.337 484.709 169.436C485.073 169.536 485.457 169.52 485.813 169.392C489.165 169.168 492.615 168.678 495.486 166.809C498.358 164.941 500.506 161.462 499.953 157.958C499.797 157.073 499.526 156.215 499.147 155.409Z" fill="black"/>
<path opacity="0.1" d="M502.76 124.239C503.256 126.333 503.295 128.519 502.872 130.63C502.449 132.742 501.576 134.723 500.319 136.423C498.399 138.886 495.478 140.857 495.064 144.017C494.925 145.47 495.209 146.933 495.877 148.211C495.804 147.677 495.804 147.134 495.877 146.6C496.292 143.44 499.213 141.434 501.133 139.006C504.289 134.968 504.728 129.018 502.76 124.239Z" fill="black"/>
</g>
<g opacity="0.1">
<path opacity="0.1" d="M405.046 497.767C407.812 496.553 411.269 496.51 413.327 494.323C414.776 492.79 415.125 490.577 416.126 488.743C417.753 485.678 421.129 483.826 424.53 482.853C435.919 479.582 461.888 486.573 468.656 496.708C470.64 499.774 471.721 503.393 471.764 507.109C472.025 502.819 470.935 498.559 468.664 494.994C461.896 484.86 435.952 477.868 424.538 481.14C421.137 482.113 417.786 483.964 416.134 487.03C415.133 488.864 414.784 491.076 413.336 492.609C411.277 494.788 407.82 494.831 405.054 496.053C402.947 496.975 401.385 499.695 401.954 501.521C402.181 500.695 402.575 499.932 403.109 499.283C403.643 498.635 404.304 498.117 405.046 497.767Z" fill="black"/>
<path opacity="0.1" d="M397.886 510.278C398.228 507.522 400.327 504.767 403.166 504.612C402.868 504.48 402.602 504.28 402.386 504.025C402.171 503.77 402.012 503.468 401.922 503.14C400.842 503.564 399.892 504.293 399.175 505.248C398.458 506.202 398.001 507.346 397.854 508.556C397.777 509.256 397.777 509.964 397.854 510.665C397.886 510.536 397.886 510.407 397.886 510.278Z" fill="black"/>
</g>
<path d="M570.219 198.245H496.187V300.425H570.219V198.245Z" fill="white"/>
<path opacity="0.1" d="M570.219 198.245H496.187V300.425H570.219V198.245Z" fill="black"/>
<path d="M598.504 204.24L525.543 217.523L541.91 318.224L614.87 304.941L598.504 204.24Z" fill="white"/>
<path d="M560.368 283.05L543.227 286.17L547.072 309.829L564.213 306.708L560.368 283.05Z" fill="#E9C46A"/>
<path d="M584.088 278.727L566.947 281.848L570.792 305.506L587.933 302.385L584.088 278.727Z" fill="#E9C46A"/>
<path d="M600.851 244.065L540.735 254.991L544.591 278.757L604.707 267.831L600.851 244.065Z" fill="#264653"/>
<path d="M595.841 215.701L535.725 226.626L536.585 231.929L596.701 221.003L595.841 215.701Z" fill="#E76F51"/>
<path d="M597.812 225.454L537.696 236.38L538.557 241.682L598.672 230.756L597.812 225.454Z" fill="#264653"/>
<path d="M537.815 170.486C537.815 170.486 503.785 206.649 520.869 215.837C537.954 225.024 549.075 185.27 549.075 185.27L551.776 176.229L537.815 170.486Z" fill="#AE6E79"/>
<path opacity="0.1" d="M534.838 167.291L530.632 177.124C530.632 177.124 551.377 180.207 555.713 186.845L553.143 169.496L550.092 162.091L534.838 167.291Z" fill="black"/>
<path d="M535.651 166.43L531.445 176.263C531.445 176.263 552.191 179.346 556.527 185.984L553.956 168.634L550.905 161.229L535.651 166.43Z" fill="#264653"/>
<path d="M661.23 347.222L660.782 347.55L661.401 347.842L662.068 347.782L662.149 347.291L661.23 347.222Z" fill="#464A5F"/>
<path opacity="0.1" d="M661.23 347.222L660.782 347.55L661.401 347.842L662.068 347.782L662.149 347.291L661.23 347.222Z" fill="black"/>
<path d="M661.23 347.223L660.774 347.533L660.416 347.068L660.636 346.689L660.839 346.62L661.23 347.223Z" fill="#9C9CA1"/>
<path opacity="0.1" d="M661.23 347.223L660.774 347.533L660.416 347.068L660.636 346.689L660.839 346.62L661.23 347.223Z" fill="black"/>
<path d="M741.306 287.716L708 236.803C707.705 236.349 707.328 235.96 706.891 235.66C706.454 235.36 705.965 235.154 705.453 235.054C704.941 234.954 704.415 234.962 703.905 235.078C703.396 235.193 702.913 235.414 702.484 235.727L628.24 289.662C627.372 290.293 626.775 291.263 626.581 292.359C626.388 293.455 626.613 294.588 627.207 295.509L660.424 347.068L741.306 287.716Z" fill="#9C9CA1"/>
<path opacity="0.1" d="M741.306 287.716L708 236.803C707.705 236.349 707.328 235.96 706.891 235.66C706.454 235.36 705.965 235.154 705.453 235.054C704.941 234.954 704.415 234.962 703.905 235.078C703.396 235.193 702.913 235.414 702.484 235.727L628.24 289.662C627.372 290.293 626.775 291.263 626.581 292.359C626.388 293.455 626.613 294.588 627.207 295.509L660.424 347.068L741.306 287.716Z" fill="black"/>
<path d="M742.12 287.837L708.814 236.924C708.518 236.469 708.14 236.08 707.703 235.78C707.265 235.48 706.776 235.274 706.263 235.174C705.75 235.074 705.223 235.082 704.713 235.198C704.203 235.313 703.719 235.534 703.29 235.847L629.054 289.817C628.186 290.448 627.589 291.418 627.394 292.513C627.199 293.609 627.422 294.741 628.013 295.664L661.23 347.249L742.12 287.837Z" fill="#9C9CA1"/>
<path d="M769.959 297.902L742.299 288.5L661.4 347.851L689.5 357.581C690.129 357.797 690.797 357.855 691.451 357.75C692.105 357.646 692.726 357.381 693.267 356.978L770.187 299.495C770.331 299.409 770.447 299.279 770.52 299.122C770.592 298.965 770.618 298.788 770.593 298.615C770.569 298.442 770.495 298.281 770.381 298.154C770.268 298.027 770.121 297.939 769.959 297.902Z" fill="#464A5F"/>
<path opacity="0.1" d="M769.959 297.902L742.299 288.5L661.4 347.851L689.5 357.581C690.129 357.797 690.797 357.855 691.451 357.75C692.105 357.646 692.726 357.381 693.267 356.978L770.187 299.495C770.331 299.409 770.447 299.279 770.52 299.122C770.592 298.965 770.618 298.788 770.593 298.615C770.569 298.442 770.495 298.281 770.381 298.154C770.268 298.027 770.121 297.939 769.959 297.902Z" fill="black"/>
<path d="M769.788 297.308L742.128 287.897L661.229 347.248L689.329 356.961C689.957 357.181 690.625 357.242 691.279 357.139C691.934 357.036 692.556 356.771 693.096 356.367L770.016 298.884C770.155 298.796 770.265 298.666 770.334 298.512C770.403 298.357 770.427 298.184 770.402 298.015C770.378 297.846 770.306 297.689 770.197 297.563C770.088 297.437 769.945 297.348 769.788 297.308Z" fill="#464A5F"/>
<g opacity="0.1">
<path opacity="0.1" d="M729.054 285.563L727.012 282.464C726.89 282.284 726.706 282.161 726.5 282.121C726.294 282.081 726.081 282.127 725.906 282.249L722.872 284.392C722.701 284.52 722.584 284.711 722.543 284.927C722.502 285.144 722.541 285.368 722.652 285.555L724.531 288.612C724.649 288.795 724.829 288.923 725.033 288.969C725.238 289.016 725.451 288.977 725.629 288.861L728.827 286.734C729 286.609 729.121 286.416 729.164 286.198C729.206 285.979 729.167 285.752 729.054 285.563Z" fill="black"/>
<path opacity="0.1" d="M723.604 289.559L721.553 286.468C721.431 286.288 721.247 286.165 721.041 286.125C720.835 286.085 720.622 286.131 720.447 286.252L717.421 288.414C717.249 288.539 717.13 288.73 717.087 288.947C717.045 289.163 717.083 289.388 717.193 289.576L719.072 292.633C719.189 292.817 719.368 292.947 719.572 292.995C719.777 293.043 719.991 293.006 720.17 292.891L723.376 290.764C723.466 290.702 723.544 290.621 723.605 290.526C723.665 290.431 723.708 290.324 723.729 290.212C723.75 290.1 723.75 289.984 723.728 289.872C723.707 289.76 723.664 289.653 723.604 289.559Z" fill="black"/>
<path opacity="0.1" d="M717.876 293.752L715.826 290.661C715.703 290.481 715.52 290.358 715.314 290.318C715.108 290.278 714.895 290.324 714.72 290.446L711.685 292.607C711.513 292.734 711.393 292.927 711.352 293.146C711.312 293.364 711.352 293.591 711.466 293.778L713.345 296.835C713.462 297.018 713.642 297.146 713.847 297.192C714.051 297.239 714.265 297.2 714.443 297.084L717.64 294.958C717.732 294.896 717.81 294.815 717.872 294.721C717.933 294.626 717.976 294.52 717.998 294.407C718.02 294.295 718.02 294.179 718 294.067C717.979 293.954 717.937 293.847 717.876 293.752Z" fill="black"/>
<path opacity="0.1" d="M712.076 298.006L710.025 294.906C709.903 294.728 709.721 294.607 709.517 294.567C709.312 294.527 709.102 294.571 708.927 294.691L705.893 296.86C705.722 296.987 705.605 297.179 705.564 297.395C705.523 297.611 705.562 297.836 705.673 298.023L707.552 301.079C707.668 301.262 707.846 301.39 708.049 301.438C708.251 301.486 708.464 301.45 708.642 301.338L711.848 299.202C711.937 299.14 712.014 299.059 712.074 298.965C712.134 298.871 712.176 298.765 712.197 298.654C712.218 298.543 712.218 298.428 712.197 298.317C712.176 298.206 712.135 298.1 712.076 298.006Z" fill="black"/>
<path opacity="0.1" d="M706.283 302.25L704.233 299.159C704.11 298.979 703.927 298.857 703.721 298.816C703.515 298.776 703.302 298.822 703.127 298.944L700.1 301.105C699.929 301.231 699.809 301.422 699.767 301.638C699.725 301.854 699.762 302.08 699.873 302.267L701.752 305.324C701.868 305.509 702.047 305.638 702.252 305.687C702.457 305.735 702.671 305.697 702.85 305.582L706.055 303.447C706.145 303.385 706.222 303.304 706.282 303.21C706.342 303.116 706.383 303.01 706.404 302.899C706.426 302.788 706.426 302.673 706.405 302.562C706.384 302.45 706.343 302.345 706.283 302.25Z" fill="black"/>
<path opacity="0.1" d="M700.743 306.883L698.197 303.042C698.17 303 698.135 302.963 698.095 302.935C698.054 302.906 698.009 302.887 697.961 302.877C697.913 302.868 697.864 302.868 697.817 302.879C697.769 302.889 697.724 302.91 697.684 302.939L693.958 305.6C693.917 305.628 693.882 305.664 693.854 305.706C693.827 305.749 693.807 305.797 693.798 305.847C693.788 305.898 693.788 305.95 693.797 306.001C693.806 306.051 693.825 306.099 693.852 306.142L696.187 309.939C696.241 310.027 696.324 310.088 696.42 310.111C696.516 310.133 696.617 310.115 696.7 310.06L700.637 307.477C700.685 307.448 700.726 307.409 700.757 307.363C700.789 307.316 700.81 307.262 700.82 307.206C700.83 307.149 700.829 307.091 700.815 307.035C700.802 306.979 700.777 306.927 700.743 306.883Z" fill="black"/>
<path opacity="0.1" d="M694.951 311.128L692.388 307.288C692.36 307.245 692.325 307.208 692.284 307.179C692.242 307.151 692.196 307.131 692.148 307.122C692.1 307.112 692.05 307.113 692.002 307.124C691.954 307.134 691.908 307.155 691.867 307.184L688.141 309.845C688.062 309.904 688.007 309.994 687.989 310.095C687.97 310.197 687.99 310.301 688.044 310.387L690.379 314.185C690.404 314.23 690.437 314.269 690.477 314.3C690.517 314.33 690.562 314.352 690.61 314.363C690.658 314.375 690.708 314.375 690.756 314.365C690.805 314.355 690.851 314.335 690.891 314.305L694.821 311.722C694.871 311.697 694.915 311.661 694.95 311.615C694.985 311.569 695.01 311.516 695.022 311.459C695.035 311.401 695.035 311.342 695.023 311.285C695.01 311.227 694.986 311.174 694.951 311.128Z" fill="black"/>
<path opacity="0.1" d="M689.817 314.891L687.271 311.085C687.214 311.002 687.128 310.945 687.033 310.928C686.937 310.91 686.839 310.932 686.758 310.99L683.032 313.642C682.951 313.702 682.894 313.792 682.874 313.895C682.855 313.998 682.873 314.105 682.927 314.193L685.262 317.99C685.316 318.076 685.4 318.136 685.495 318.158C685.59 318.181 685.69 318.164 685.774 318.111L689.712 315.528C689.766 315.501 689.813 315.46 689.849 315.41C689.886 315.359 689.91 315.301 689.92 315.238C689.931 315.176 689.927 315.112 689.909 315.051C689.891 314.991 689.86 314.936 689.817 314.891Z" fill="black"/>
<path opacity="0.1" d="M684.074 319.093L681.527 315.252C681.47 315.169 681.385 315.113 681.289 315.095C681.194 315.078 681.095 315.1 681.015 315.158L677.289 317.81C677.248 317.838 677.212 317.875 677.184 317.919C677.157 317.962 677.137 318.011 677.128 318.062C677.118 318.113 677.118 318.166 677.127 318.217C677.137 318.268 677.156 318.317 677.183 318.361L679.518 322.158C679.573 322.243 679.656 322.304 679.752 322.326C679.847 322.348 679.947 322.331 680.031 322.278L683.968 319.695C684.016 319.666 684.056 319.626 684.088 319.579C684.12 319.531 684.141 319.477 684.151 319.42C684.161 319.362 684.16 319.304 684.146 319.247C684.133 319.191 684.108 319.138 684.074 319.093Z" fill="black"/>
<path opacity="0.1" d="M678.509 323.139L675.963 319.299C675.936 319.256 675.901 319.22 675.861 319.191C675.82 319.163 675.775 319.143 675.727 319.134C675.679 319.124 675.63 319.125 675.583 319.135C675.535 319.146 675.49 319.166 675.45 319.196L671.724 321.856C671.683 321.884 671.648 321.92 671.62 321.963C671.593 322.006 671.574 322.053 671.564 322.104C671.554 322.155 671.554 322.207 671.563 322.257C671.572 322.308 671.591 322.356 671.619 322.399L673.954 326.196C674.007 326.283 674.091 326.345 674.186 326.367C674.282 326.39 674.383 326.372 674.466 326.316L678.404 323.733C678.451 323.705 678.492 323.666 678.523 323.619C678.555 323.572 678.577 323.519 678.587 323.462C678.597 323.406 678.595 323.348 678.582 323.292C678.568 323.236 678.544 323.184 678.509 323.139Z" fill="black"/>
<path opacity="0.1" d="M672.944 327.255L670.422 323.406C670.365 323.323 670.28 323.267 670.184 323.249C670.089 323.232 669.99 323.254 669.91 323.312L666.184 325.964C666.143 325.992 666.107 326.029 666.079 326.073C666.052 326.116 666.032 326.165 666.023 326.216C666.013 326.267 666.013 326.32 666.022 326.371C666.032 326.422 666.051 326.471 666.078 326.515L668.413 330.312C668.468 330.397 668.551 330.458 668.647 330.48C668.742 330.502 668.842 330.485 668.926 330.432L672.863 327.849C672.909 327.819 672.947 327.778 672.976 327.73C673.006 327.682 673.025 327.628 673.033 327.572C673.04 327.516 673.036 327.458 673.021 327.403C673.006 327.349 672.98 327.298 672.944 327.255Z" fill="black"/>
<path opacity="0.1" d="M667.38 331.328L664.833 327.488C664.806 327.445 664.772 327.408 664.731 327.38C664.691 327.351 664.645 327.332 664.598 327.322C664.55 327.313 664.501 327.313 664.453 327.324C664.406 327.334 664.361 327.355 664.321 327.384L660.595 330.028C660.554 330.055 660.519 330.092 660.491 330.134C660.463 330.177 660.444 330.225 660.434 330.275C660.424 330.326 660.424 330.378 660.434 330.429C660.443 330.479 660.462 330.527 660.489 330.57L662.824 334.367C662.877 334.455 662.961 334.516 663.057 334.539C663.153 334.561 663.253 334.543 663.337 334.488L667.274 331.905C667.319 331.876 667.357 331.838 667.387 331.792C667.417 331.747 667.438 331.695 667.448 331.641C667.458 331.587 667.457 331.531 667.445 331.477C667.434 331.423 667.411 331.372 667.38 331.328Z" fill="black"/>
<path opacity="0.1" d="M725.393 279.958L723.343 276.858C723.22 276.679 723.037 276.556 722.831 276.516C722.625 276.476 722.412 276.521 722.237 276.643L719.235 278.813C719.063 278.939 718.944 279.13 718.901 279.346C718.859 279.562 718.897 279.788 719.007 279.975L720.886 283.032C721.004 283.215 721.184 283.343 721.388 283.39C721.593 283.436 721.806 283.397 721.984 283.282L725.19 281.155C725.367 281.025 725.487 280.825 725.525 280.601C725.563 280.377 725.516 280.145 725.393 279.958Z" fill="black"/>
<path opacity="0.1" d="M717.38 267.706L715.33 264.589C715.207 264.411 715.025 264.29 714.821 264.25C714.617 264.21 714.406 264.254 714.232 264.373L711.197 266.535C711.025 266.66 710.906 266.851 710.864 267.068C710.821 267.284 710.859 267.509 710.969 267.697L712.849 270.754C712.965 270.938 713.144 271.068 713.349 271.116C713.553 271.164 713.768 271.127 713.947 271.012L717.152 268.885C717.328 268.759 717.451 268.565 717.493 268.345C717.536 268.124 717.495 267.895 717.38 267.706Z" fill="black"/>
<path opacity="0.1" d="M719.935 283.953L717.885 280.862C717.762 280.685 717.58 280.564 717.376 280.524C717.172 280.484 716.961 280.528 716.786 280.647L713.752 282.808C713.582 282.935 713.464 283.127 713.423 283.343C713.382 283.559 713.421 283.784 713.532 283.971L715.403 287.027C715.52 287.212 715.699 287.342 715.904 287.39C716.108 287.438 716.322 287.401 716.502 287.286L719.707 285.159C719.798 285.096 719.875 285.015 719.936 284.921C719.997 284.826 720.039 284.719 720.06 284.607C720.081 284.495 720.081 284.379 720.06 284.267C720.038 284.155 719.996 284.048 719.935 283.953Z" fill="black"/>
<path opacity="0.1" d="M714.207 288.147L712.157 285.056C712.034 284.876 711.851 284.753 711.645 284.713C711.439 284.673 711.226 284.718 711.051 284.84L708.024 286.976C707.85 287.102 707.73 287.294 707.687 287.513C707.645 287.731 707.684 287.958 707.797 288.147L709.676 291.203C709.793 291.386 709.973 291.515 710.178 291.561C710.382 291.608 710.596 291.569 710.774 291.453L713.979 289.326C714.155 289.2 714.278 289.006 714.32 288.786C714.363 288.565 714.322 288.336 714.207 288.147Z" fill="black"/>
<path opacity="0.1" d="M708.407 292.4L706.365 289.3C706.242 289.121 706.058 288.998 705.852 288.958C705.646 288.918 705.433 288.963 705.258 289.085L702.224 291.281C702.053 291.408 701.936 291.599 701.895 291.816C701.854 292.032 701.893 292.257 702.004 292.443L703.883 295.5C704.001 295.683 704.181 295.811 704.385 295.858C704.59 295.904 704.803 295.865 704.982 295.75L708.179 293.623C708.272 293.56 708.352 293.478 708.414 293.382C708.476 293.286 708.519 293.177 708.54 293.063C708.561 292.949 708.56 292.831 708.538 292.717C708.515 292.603 708.47 292.495 708.407 292.4Z" fill="black"/>
<path opacity="0.1" d="M712.051 271.899L710.001 268.808C709.879 268.63 709.697 268.509 709.493 268.469C709.288 268.429 709.077 268.473 708.903 268.592L705.868 270.754C705.697 270.879 705.577 271.07 705.535 271.287C705.493 271.503 705.53 271.728 705.641 271.916L707.52 274.973C707.636 275.157 707.815 275.287 708.02 275.335C708.225 275.383 708.439 275.346 708.618 275.231L711.824 273.104C711.914 273.042 711.992 272.961 712.053 272.866C712.113 272.771 712.155 272.664 712.177 272.552C712.198 272.44 712.198 272.324 712.176 272.212C712.155 272.1 712.112 271.993 712.051 271.899Z" fill="black"/>
<path opacity="0.1" d="M706.324 276.101L704.274 273.001C704.151 272.821 703.968 272.698 703.762 272.658C703.556 272.618 703.343 272.664 703.168 272.786L700.141 274.921C699.97 275.047 699.85 275.238 699.808 275.454C699.766 275.67 699.803 275.896 699.914 276.083L701.793 279.14C701.911 279.323 702.09 279.451 702.295 279.498C702.499 279.544 702.713 279.506 702.891 279.39L706.097 277.263C706.268 277.137 706.388 276.946 706.43 276.73C706.472 276.514 706.435 276.288 706.324 276.101Z" fill="black"/>
<path opacity="0.1" d="M700.523 280.346L698.473 277.254C698.352 277.076 698.17 276.953 697.966 276.911C697.762 276.869 697.55 276.912 697.375 277.031L694.34 279.226C694.17 279.353 694.052 279.545 694.011 279.761C693.971 279.977 694.01 280.202 694.121 280.389L696 283.445C696.116 283.63 696.296 283.76 696.5 283.808C696.705 283.856 696.919 283.819 697.098 283.704L700.296 281.568C700.388 281.506 700.468 281.424 700.53 281.328C700.592 281.231 700.635 281.123 700.657 281.009C700.678 280.894 700.677 280.777 700.654 280.663C700.631 280.549 700.587 280.441 700.523 280.346Z" fill="black"/>
<path opacity="0.1" d="M702.615 296.645L700.564 293.554C700.443 293.375 700.262 293.252 700.057 293.211C699.853 293.169 699.642 293.212 699.466 293.33L696.456 295.5C696.286 295.627 696.168 295.819 696.127 296.035C696.086 296.251 696.125 296.476 696.236 296.662L698.083 299.719C698.199 299.901 698.377 300.03 698.58 300.078C698.782 300.126 698.995 300.09 699.173 299.977L702.379 297.842C702.469 297.78 702.546 297.7 702.607 297.606C702.668 297.512 702.71 297.407 702.732 297.296C702.754 297.184 702.755 297.07 702.735 296.958C702.715 296.846 702.674 296.74 702.615 296.645Z" fill="black"/>
<path opacity="0.1" d="M696.822 300.89L694.772 297.799C694.649 297.619 694.465 297.496 694.259 297.456C694.053 297.416 693.84 297.462 693.665 297.584L690.639 299.745C690.467 299.871 690.348 300.062 690.306 300.278C690.263 300.494 690.301 300.72 690.411 300.907L692.29 303.964C692.407 304.149 692.586 304.278 692.791 304.327C692.995 304.375 693.209 304.337 693.389 304.222L696.594 302.096C696.685 302.033 696.762 301.952 696.823 301.857C696.884 301.762 696.926 301.656 696.947 301.543C696.968 301.431 696.968 301.316 696.947 301.203C696.925 301.091 696.883 300.985 696.822 300.89Z" fill="black"/>
<path opacity="0.1" d="M691.282 305.523L688.735 301.682C688.708 301.64 688.674 301.603 688.633 301.575C688.593 301.546 688.547 301.527 688.5 301.517C688.452 301.507 688.403 301.508 688.355 301.519C688.308 301.529 688.263 301.55 688.223 301.579L684.497 304.24C684.456 304.267 684.42 304.304 684.393 304.346C684.365 304.389 684.346 304.437 684.336 304.487C684.326 304.538 684.326 304.59 684.336 304.641C684.345 304.691 684.364 304.739 684.391 304.782L686.726 308.579C686.752 308.623 686.785 308.662 686.825 308.692C686.865 308.722 686.91 308.743 686.958 308.754C687.006 308.765 687.055 308.766 687.103 308.757C687.152 308.748 687.198 308.728 687.238 308.7L691.176 306.117C691.223 306.088 691.264 306.049 691.296 306.002C691.327 305.956 691.349 305.902 691.359 305.846C691.369 305.789 691.367 305.731 691.354 305.675C691.341 305.619 691.316 305.567 691.282 305.523Z" fill="black"/>
<path opacity="0.1" d="M686.148 309.285L683.602 305.436C683.545 305.353 683.459 305.297 683.364 305.279C683.268 305.261 683.17 305.284 683.089 305.341L679.371 307.993C679.29 308.053 679.233 308.144 679.213 308.246C679.193 308.349 679.212 308.456 679.266 308.545L681.6 312.342C681.655 312.427 681.739 312.487 681.834 312.51C681.929 312.532 682.029 312.515 682.113 312.462L686.05 309.879C686.099 309.852 686.142 309.814 686.174 309.767C686.207 309.72 686.229 309.665 686.238 309.608C686.248 309.55 686.245 309.491 686.229 309.435C686.213 309.379 686.186 309.328 686.148 309.285Z" fill="black"/>
<path opacity="0.1" d="M680.405 313.487L677.858 309.647C677.801 309.564 677.716 309.507 677.62 309.49C677.525 309.472 677.426 309.494 677.346 309.552L673.62 312.204C673.579 312.232 673.544 312.268 673.516 312.311C673.488 312.353 673.469 312.401 673.459 312.452C673.449 312.502 673.449 312.554 673.459 312.605C673.468 312.656 673.487 312.704 673.514 312.747L675.849 316.552C675.904 316.638 675.987 316.698 676.083 316.72C676.178 316.743 676.278 316.726 676.362 316.673L680.299 314.09C680.347 314.06 680.387 314.021 680.419 313.973C680.451 313.926 680.472 313.871 680.482 313.814C680.492 313.757 680.491 313.698 680.477 313.642C680.464 313.585 680.439 313.532 680.405 313.487Z" fill="black"/>
<path opacity="0.1" d="M674.84 317.568L672.293 313.728C672.266 313.685 672.232 313.649 672.191 313.62C672.151 313.592 672.105 313.572 672.058 313.563C672.01 313.553 671.961 313.554 671.913 313.564C671.866 313.575 671.821 313.595 671.781 313.625L668.055 316.251C668.014 316.279 667.979 316.315 667.951 316.358C667.923 316.4 667.904 316.448 667.894 316.499C667.884 316.549 667.884 316.601 667.894 316.652C667.903 316.702 667.922 316.751 667.949 316.793L670.284 320.591C670.337 320.678 670.421 320.739 670.517 320.762C670.613 320.784 670.713 320.766 670.797 320.711L674.734 318.128C674.776 318.099 674.813 318.062 674.841 318.018C674.87 317.974 674.89 317.924 674.899 317.872C674.909 317.82 674.909 317.766 674.899 317.714C674.889 317.661 674.869 317.612 674.84 317.568Z" fill="black"/>
<path opacity="0.1" d="M710.392 282.317L708.342 279.226C708.219 279.049 708.037 278.928 707.833 278.888C707.629 278.848 707.418 278.892 707.244 279.011L704.209 281.181C704.039 281.308 703.921 281.499 703.88 281.716C703.839 281.932 703.878 282.157 703.989 282.343L705.869 285.4C705.986 285.581 706.164 285.707 706.367 285.754C706.57 285.8 706.781 285.763 706.959 285.65L710.164 283.523C710.255 283.46 710.333 283.379 710.393 283.284C710.454 283.19 710.496 283.083 710.517 282.971C710.538 282.859 710.538 282.743 710.517 282.631C710.495 282.519 710.453 282.412 710.392 282.317Z" fill="black"/>
<path opacity="0.1" d="M704.591 286.571L702.541 283.471C702.418 283.291 702.234 283.169 702.028 283.128C701.822 283.088 701.609 283.134 701.434 283.256L698.408 285.426C698.236 285.551 698.117 285.742 698.075 285.959C698.032 286.175 698.07 286.4 698.18 286.588L700.059 289.645C700.176 289.829 700.355 289.959 700.56 290.007C700.764 290.055 700.979 290.018 701.158 289.903L704.363 287.768C704.453 287.705 704.529 287.624 704.589 287.53C704.649 287.436 704.691 287.331 704.712 287.219C704.733 287.108 704.733 286.994 704.713 286.882C704.692 286.771 704.65 286.665 704.591 286.571Z" fill="black"/>
<path opacity="0.1" d="M698.807 290.816L696.757 287.725C696.634 287.545 696.45 287.422 696.244 287.382C696.038 287.342 695.825 287.388 695.65 287.51L692.616 289.671C692.445 289.798 692.328 289.989 692.287 290.206C692.246 290.422 692.285 290.646 692.396 290.833L694.275 293.89C694.392 294.074 694.571 294.204 694.775 294.252C694.98 294.3 695.194 294.263 695.374 294.148L698.571 292.013C698.661 291.951 698.739 291.871 698.799 291.777C698.86 291.683 698.902 291.578 698.924 291.466C698.946 291.355 698.947 291.24 698.927 291.129C698.907 291.017 698.866 290.911 698.807 290.816Z" fill="black"/>
<path opacity="0.1" d="M693.006 295.061L690.956 291.97C690.834 291.792 690.652 291.671 690.447 291.631C690.243 291.591 690.032 291.635 689.858 291.754L686.823 293.916C686.653 294.043 686.535 294.234 686.494 294.451C686.453 294.667 686.493 294.891 686.604 295.078L688.483 298.169C688.599 298.351 688.777 298.48 688.979 298.528C689.182 298.576 689.394 298.54 689.573 298.428L692.778 296.301C692.874 296.238 692.956 296.156 693.019 296.058C693.083 295.96 693.127 295.85 693.148 295.733C693.169 295.617 693.168 295.497 693.143 295.381C693.119 295.266 693.072 295.157 693.006 295.061Z" fill="black"/>
<path opacity="0.1" d="M687.507 299.693L684.96 295.853C684.933 295.811 684.899 295.774 684.858 295.746C684.818 295.717 684.772 295.698 684.725 295.688C684.677 295.678 684.628 295.679 684.58 295.69C684.533 295.7 684.488 295.721 684.448 295.75L680.722 298.411C680.641 298.468 680.584 298.558 680.564 298.659C680.545 298.76 680.563 298.866 680.616 298.953L682.951 302.759C682.977 302.802 683.011 302.84 683.052 302.869C683.092 302.898 683.137 302.918 683.185 302.929C683.233 302.939 683.282 302.939 683.33 302.93C683.378 302.92 683.423 302.9 683.463 302.871L687.401 300.288C687.448 300.259 687.489 300.22 687.521 300.173C687.552 300.127 687.574 300.073 687.584 300.016C687.594 299.96 687.592 299.902 687.579 299.846C687.566 299.79 687.541 299.738 687.507 299.693Z" fill="black"/>
<path opacity="0.1" d="M682.341 303.456L679.794 299.607C679.736 299.523 679.649 299.467 679.552 299.449C679.455 299.432 679.355 299.454 679.274 299.512L675.556 302.164C675.474 302.224 675.418 302.314 675.398 302.417C675.378 302.52 675.397 302.627 675.45 302.715L677.785 306.513C677.838 306.6 677.922 306.661 678.018 306.684C678.114 306.706 678.214 306.688 678.298 306.633L682.235 304.05C682.282 304.022 682.323 303.983 682.355 303.936C682.386 303.889 682.408 303.835 682.418 303.779C682.428 303.722 682.426 303.664 682.413 303.608C682.4 303.553 682.375 303.501 682.341 303.456Z" fill="black"/>
<path opacity="0.1" d="M676.598 307.641L674.051 303.792C673.993 303.708 673.906 303.652 673.809 303.634C673.712 303.616 673.612 303.639 673.531 303.697L669.804 306.349C669.724 306.41 669.669 306.501 669.649 306.603C669.63 306.705 669.647 306.811 669.699 306.9L672.042 310.697C672.095 310.785 672.179 310.846 672.275 310.869C672.371 310.891 672.471 310.873 672.554 310.818L676.484 308.235C676.533 308.208 676.575 308.17 676.609 308.124C676.642 308.078 676.665 308.024 676.676 307.967C676.687 307.91 676.686 307.851 676.672 307.794C676.658 307.738 676.633 307.685 676.598 307.641Z" fill="black"/>
<path opacity="0.1" d="M671.032 311.739L668.486 307.899C668.458 307.856 668.423 307.819 668.382 307.791C668.341 307.762 668.294 307.743 668.246 307.733C668.198 307.724 668.148 307.724 668.1 307.735C668.052 307.746 668.006 307.766 667.965 307.796L664.24 310.456C664.16 310.516 664.105 310.605 664.087 310.707C664.068 310.808 664.088 310.913 664.142 310.999L666.477 314.796C666.502 314.841 666.535 314.88 666.575 314.911C666.615 314.942 666.66 314.963 666.708 314.975C666.756 314.986 666.806 314.987 666.854 314.977C666.903 314.967 666.949 314.946 666.989 314.917L670.919 312.333C670.968 312.307 671.01 312.269 671.044 312.223C671.077 312.176 671.1 312.122 671.111 312.065C671.122 312.008 671.12 311.949 671.107 311.893C671.093 311.836 671.068 311.784 671.032 311.739Z" fill="black"/>
<path opacity="0.1" d="M669.275 321.641L666.729 317.801C666.672 317.718 666.586 317.662 666.491 317.644C666.395 317.626 666.297 317.649 666.217 317.706L662.491 320.358C662.449 320.386 662.414 320.422 662.387 320.465C662.359 320.507 662.34 320.555 662.33 320.606C662.32 320.656 662.32 320.708 662.329 320.759C662.339 320.81 662.358 320.858 662.385 320.901L664.72 324.706C664.774 324.792 664.858 324.852 664.953 324.875C665.049 324.897 665.148 324.88 665.232 324.827L669.17 322.244C669.217 322.215 669.258 322.175 669.29 322.127C669.321 322.08 669.343 322.025 669.353 321.968C669.363 321.911 669.361 321.852 669.348 321.796C669.335 321.739 669.31 321.687 669.275 321.641Z" fill="black"/>
<path opacity="0.1" d="M663.711 325.722L661.165 321.882C661.138 321.839 661.103 321.803 661.062 321.774C661.022 321.746 660.977 321.726 660.929 321.717C660.881 321.707 660.832 321.708 660.785 321.718C660.737 321.729 660.692 321.75 660.652 321.779L656.926 324.439C656.885 324.467 656.85 324.503 656.822 324.546C656.794 324.589 656.775 324.636 656.765 324.687C656.756 324.738 656.755 324.79 656.765 324.84C656.774 324.891 656.793 324.939 656.82 324.982L659.155 328.779C659.209 328.866 659.292 328.928 659.388 328.95C659.484 328.973 659.584 328.955 659.668 328.899L663.605 326.316C663.653 326.288 663.693 326.249 663.725 326.202C663.757 326.155 663.778 326.102 663.788 326.045C663.798 325.989 663.797 325.931 663.783 325.875C663.77 325.819 663.745 325.767 663.711 325.722Z" fill="black"/>
<path opacity="0.1" d="M672.448 301.321L670.008 297.704C669.931 297.592 669.816 297.515 669.687 297.491C669.557 297.467 669.425 297.497 669.316 297.575L665.802 300.081C665.747 300.119 665.7 300.168 665.663 300.226C665.627 300.283 665.601 300.348 665.588 300.416C665.575 300.484 665.575 300.554 665.588 300.622C665.601 300.69 665.627 300.755 665.663 300.812L667.86 304.386C667.894 304.445 667.939 304.496 667.992 304.536C668.045 304.577 668.105 304.605 668.169 304.621C668.233 304.636 668.299 304.637 668.363 304.625C668.427 304.613 668.488 304.587 668.543 304.549L672.261 302.078C672.322 302.044 672.376 301.996 672.419 301.938C672.462 301.88 672.493 301.814 672.511 301.743C672.529 301.671 672.532 301.597 672.521 301.525C672.51 301.452 672.486 301.382 672.448 301.321Z" fill="black"/>
<path opacity="0.1" d="M666.884 305.402L664.484 301.786C664.447 301.728 664.4 301.679 664.345 301.641C664.29 301.603 664.229 301.577 664.165 301.564C664.101 301.552 664.035 301.552 663.971 301.567C663.907 301.581 663.846 301.609 663.792 301.648L660.278 304.196C660.223 304.234 660.176 304.282 660.14 304.339C660.103 304.396 660.078 304.46 660.065 304.527C660.052 304.595 660.052 304.664 660.065 304.731C660.077 304.799 660.103 304.863 660.139 304.92L662.336 308.502C662.408 308.617 662.519 308.699 662.646 308.73C662.774 308.76 662.907 308.737 663.019 308.665L666.737 306.194C666.8 306.156 666.854 306.104 666.896 306.042C666.938 305.98 666.967 305.909 666.981 305.833C666.995 305.758 666.994 305.681 666.977 305.606C666.96 305.532 666.928 305.462 666.884 305.402Z" fill="black"/>
<path opacity="0.1" d="M661.319 309.483L658.919 305.858C658.842 305.746 658.727 305.669 658.598 305.645C658.469 305.621 658.336 305.651 658.228 305.729L654.713 308.235C654.658 308.273 654.611 308.322 654.575 308.38C654.538 308.437 654.513 308.502 654.5 308.57C654.487 308.638 654.487 308.708 654.5 308.776C654.513 308.844 654.538 308.909 654.575 308.967L656.771 312.54C656.806 312.599 656.85 312.65 656.904 312.69C656.957 312.731 657.017 312.759 657.08 312.775C657.144 312.79 657.21 312.791 657.275 312.779C657.339 312.767 657.4 312.741 657.455 312.703L661.173 310.232C661.23 310.195 661.28 310.145 661.319 310.086C661.358 310.028 661.385 309.961 661.399 309.891C661.413 309.821 661.413 309.749 661.399 309.678C661.385 309.608 661.358 309.542 661.319 309.483Z" fill="black"/>
<path opacity="0.1" d="M655.828 313.668L653.281 309.819C653.224 309.736 653.139 309.68 653.043 309.662C652.947 309.644 652.849 309.667 652.769 309.725L649.043 312.376C648.961 312.436 648.904 312.527 648.885 312.629C648.865 312.732 648.884 312.839 648.937 312.928L651.272 316.725C651.327 316.81 651.41 316.87 651.505 316.893C651.601 316.915 651.701 316.898 651.784 316.845L655.722 314.262C655.771 314.236 655.815 314.198 655.848 314.151C655.882 314.105 655.904 314.05 655.914 313.993C655.925 313.935 655.922 313.876 655.907 313.82C655.892 313.763 655.865 313.711 655.828 313.668Z" fill="black"/>
<path opacity="0.1" d="M721.676 273.931L719.471 270.616C719.347 270.437 719.163 270.316 718.957 270.278C718.751 270.24 718.539 270.287 718.365 270.409L709.757 276.79C709.591 276.918 709.476 277.108 709.437 277.322C709.398 277.536 709.437 277.758 709.546 277.943L711.62 281.336C711.68 281.43 711.757 281.51 711.846 281.573C711.935 281.635 712.035 281.679 712.14 281.7C712.245 281.722 712.353 281.721 712.458 281.699C712.563 281.676 712.663 281.632 712.751 281.568L721.489 275.102C721.656 274.969 721.769 274.774 721.803 274.556C721.838 274.338 721.793 274.114 721.676 273.931Z" fill="black"/>
<path opacity="0.1" d="M665.452 315.691L662.751 311.653C662.723 311.61 662.688 311.573 662.646 311.545C662.605 311.516 662.558 311.497 662.51 311.488C662.461 311.479 662.411 311.481 662.363 311.493C662.315 311.505 662.27 311.527 662.23 311.558L652.94 318.447C652.86 318.504 652.806 318.593 652.787 318.692C652.769 318.792 652.789 318.896 652.842 318.981L655.38 323.139C655.407 323.184 655.443 323.223 655.484 323.253C655.526 323.283 655.573 323.304 655.622 323.314C655.671 323.325 655.722 323.325 655.772 323.314C655.821 323.303 655.868 323.282 655.909 323.251L665.354 316.251C665.437 316.19 665.493 316.097 665.512 315.992C665.53 315.888 665.508 315.779 665.452 315.691Z" fill="black"/>
<path opacity="0.1" d="M695.007 284.806L692.518 280.948C692.462 280.864 692.377 280.806 692.282 280.787C692.186 280.767 692.087 280.788 692.006 280.845L671.374 295.586C671.293 295.644 671.236 295.733 671.217 295.834C671.197 295.936 671.215 296.041 671.268 296.128L673.815 300.261C673.842 300.306 673.877 300.345 673.919 300.375C673.96 300.405 674.007 300.426 674.057 300.436C674.106 300.447 674.157 300.447 674.206 300.436C674.255 300.425 674.302 300.404 674.344 300.373L694.91 285.357C694.95 285.327 694.985 285.29 695.012 285.246C695.039 285.203 695.058 285.154 695.067 285.103C695.076 285.052 695.075 284.999 695.065 284.948C695.055 284.897 695.035 284.849 695.007 284.806Z" fill="black"/>
</g>
<path d="M729.6 285.667L727.55 282.567C727.427 282.387 727.243 282.265 727.037 282.225C726.831 282.185 726.618 282.23 726.443 282.352L723.417 284.522C723.245 284.648 723.126 284.838 723.083 285.055C723.041 285.271 723.079 285.497 723.189 285.684L725.068 288.741C725.185 288.925 725.364 289.055 725.568 289.103C725.773 289.152 725.987 289.114 726.167 288.999L729.372 286.864C729.461 286.801 729.538 286.721 729.598 286.627C729.658 286.532 729.7 286.427 729.721 286.316C729.742 286.204 729.742 286.09 729.721 285.979C729.701 285.867 729.659 285.761 729.6 285.667Z" fill="#464A5F"/>
<path d="M724.116 289.662L722.066 286.571C721.944 286.394 721.762 286.272 721.557 286.232C721.353 286.192 721.142 286.237 720.968 286.356L717.933 288.517C717.762 288.643 717.642 288.834 717.6 289.05C717.558 289.266 717.595 289.492 717.706 289.679L719.585 292.736C719.701 292.921 719.88 293.05 720.085 293.099C720.29 293.147 720.504 293.109 720.683 292.994L723.888 290.868C723.979 290.805 724.057 290.724 724.118 290.629C724.178 290.534 724.22 290.428 724.241 290.315C724.263 290.203 724.263 290.088 724.241 289.975C724.22 289.863 724.177 289.757 724.116 289.662Z" fill="#464A5F"/>
<path d="M718.421 293.864L716.371 290.773C716.249 290.593 716.065 290.47 715.859 290.43C715.653 290.39 715.44 290.436 715.265 290.558L712.239 292.727C712.067 292.853 711.948 293.044 711.905 293.26C711.863 293.477 711.901 293.702 712.011 293.89L713.89 296.946C714.008 297.13 714.187 297.258 714.392 297.304C714.596 297.351 714.81 297.312 714.988 297.196L718.194 295.069C718.284 295.007 718.362 294.926 718.423 294.831C718.483 294.736 718.525 294.63 718.547 294.517C718.568 294.405 718.568 294.289 718.546 294.177C718.525 294.065 718.482 293.959 718.421 293.864Z" fill="#464A5F"/>
<path d="M712.613 298.109L710.563 295.009C710.44 294.832 710.258 294.71 710.054 294.67C709.85 294.63 709.639 294.675 709.464 294.794L706.43 296.964C706.341 297.028 706.264 297.11 706.205 297.205C706.146 297.3 706.106 297.407 706.086 297.52C706.066 297.632 706.068 297.747 706.091 297.858C706.113 297.97 706.157 298.075 706.218 298.169L708.098 301.226C708.214 301.41 708.393 301.54 708.598 301.588C708.802 301.636 709.017 301.599 709.196 301.484L712.393 299.349C712.488 299.285 712.569 299.202 712.632 299.104C712.695 299.006 712.738 298.896 712.758 298.779C712.779 298.663 712.777 298.543 712.752 298.428C712.727 298.313 712.679 298.204 712.613 298.109Z" fill="#464A5F"/>
<path d="M706.821 302.354L704.77 299.263C704.648 299.085 704.466 298.964 704.262 298.924C704.058 298.884 703.847 298.928 703.672 299.047L700.638 301.209C700.467 301.336 700.35 301.527 700.309 301.744C700.268 301.96 700.307 302.184 700.418 302.371L702.289 305.428C702.406 305.612 702.585 305.742 702.789 305.79C702.994 305.838 703.208 305.801 703.387 305.686L706.593 303.551C706.682 303.488 706.759 303.407 706.819 303.313C706.879 303.219 706.921 303.114 706.942 303.002C706.963 302.891 706.963 302.777 706.942 302.665C706.922 302.554 706.88 302.448 706.821 302.354Z" fill="#464A5F"/>
<path d="M701.28 306.986L698.734 303.146C698.707 303.103 698.672 303.067 698.632 303.039C698.591 303.01 698.546 302.991 698.498 302.981C698.45 302.971 698.401 302.972 698.354 302.983C698.306 302.993 698.261 303.014 698.221 303.043L694.495 305.703C694.454 305.731 694.419 305.768 694.391 305.81C694.364 305.853 694.345 305.901 694.335 305.951C694.325 306.002 694.325 306.054 694.334 306.104C694.343 306.155 694.362 306.203 694.39 306.246L696.724 310.043C696.778 310.13 696.862 310.192 696.957 310.214C697.053 310.237 697.154 310.219 697.237 310.164L701.175 307.581C701.222 307.552 701.263 307.513 701.294 307.466C701.326 307.42 701.348 307.366 701.358 307.309C701.368 307.253 701.366 307.195 701.353 307.139C701.339 307.083 701.315 307.031 701.28 306.986Z" fill="#464A5F"/>
<path d="M695.488 311.231L692.941 307.391C692.914 307.348 692.878 307.311 692.837 307.283C692.796 307.254 692.75 307.235 692.701 307.225C692.653 307.215 692.603 307.216 692.555 307.227C692.507 307.238 692.461 307.258 692.421 307.288L688.703 309.948C688.662 309.976 688.627 310.012 688.599 310.055C688.571 310.098 688.552 310.145 688.542 310.196C688.532 310.246 688.532 310.299 688.542 310.349C688.551 310.4 688.57 310.448 688.597 310.491L690.932 314.297C690.958 314.34 690.993 314.377 691.033 314.407C691.073 314.436 691.118 314.456 691.166 314.467C691.214 314.477 691.263 314.477 691.311 314.467C691.359 314.457 691.404 314.437 691.445 314.408L695.382 311.825C695.428 311.796 695.468 311.756 695.499 311.71C695.53 311.663 695.551 311.609 695.561 311.553C695.571 311.497 695.569 311.44 695.557 311.384C695.544 311.329 695.521 311.276 695.488 311.231Z" fill="#464A5F"/>
<path d="M690.354 314.994L687.808 311.145C687.75 311.062 687.665 311.006 687.569 310.988C687.474 310.97 687.375 310.993 687.295 311.05L683.569 313.668C683.487 313.727 683.431 313.818 683.411 313.921C683.391 314.024 683.41 314.131 683.463 314.219L685.798 318.016C685.853 318.102 685.936 318.162 686.032 318.184C686.127 318.207 686.227 318.19 686.311 318.137L690.248 315.554C690.291 315.525 690.327 315.487 690.356 315.443C690.384 315.399 690.404 315.35 690.414 315.298C690.423 315.245 690.423 315.192 690.413 315.139C690.403 315.087 690.383 315.038 690.354 314.994Z" fill="#464A5F"/>
<path d="M684.61 319.205L682.064 315.39C682.007 315.307 681.922 315.251 681.826 315.233C681.73 315.216 681.632 315.238 681.552 315.296L677.826 317.948C677.784 317.976 677.749 318.013 677.721 318.057C677.693 318.1 677.674 318.149 677.664 318.2C677.654 318.251 677.654 318.304 677.664 318.355C677.673 318.406 677.692 318.455 677.72 318.499L680.055 322.296C680.109 322.381 680.193 322.441 680.288 322.464C680.384 322.486 680.483 322.469 680.567 322.416L684.505 319.833C684.557 319.806 684.603 319.766 684.639 319.716C684.674 319.666 684.698 319.608 684.708 319.547C684.718 319.486 684.715 319.423 684.698 319.364C684.681 319.304 684.651 319.25 684.61 319.205Z" fill="#464A5F"/>
<path d="M679.046 323.277L676.5 319.437C676.473 319.394 676.438 319.357 676.397 319.329C676.357 319.301 676.311 319.281 676.264 319.271C676.216 319.262 676.167 319.262 676.12 319.273C676.072 319.284 676.027 319.304 675.987 319.333L672.261 321.994C672.22 322.022 672.185 322.058 672.157 322.101C672.129 322.143 672.11 322.191 672.1 322.242C672.09 322.292 672.09 322.344 672.1 322.395C672.109 322.446 672.128 322.494 672.155 322.536L674.49 326.334C674.516 326.378 674.55 326.416 674.589 326.446C674.629 326.476 674.675 326.497 674.722 326.509C674.77 326.52 674.82 326.521 674.868 326.511C674.916 326.502 674.962 326.483 675.003 326.454L678.94 323.871C678.987 323.843 679.028 323.804 679.06 323.757C679.092 323.71 679.113 323.657 679.123 323.6C679.133 323.543 679.132 323.485 679.118 323.429C679.105 323.374 679.08 323.322 679.046 323.277Z" fill="#464A5F"/>
<path d="M673.481 327.358L670.935 323.51C670.878 323.427 670.793 323.37 670.697 323.353C670.601 323.335 670.503 323.357 670.423 323.415L666.696 326.067C666.615 326.126 666.558 326.217 666.538 326.32C666.519 326.423 666.537 326.53 666.591 326.618L668.926 330.415C668.98 330.501 669.064 330.561 669.159 330.583C669.255 330.606 669.354 330.589 669.438 330.536L673.376 327.953C673.423 327.924 673.464 327.885 673.496 327.838C673.527 327.792 673.549 327.738 673.559 327.682C673.569 327.625 673.567 327.567 673.554 327.511C673.54 327.455 673.516 327.403 673.481 327.358Z" fill="#464A5F"/>
<path d="M667.917 331.431L665.371 327.591C665.344 327.548 665.309 327.512 665.268 327.483C665.228 327.455 665.183 327.435 665.135 327.426C665.087 327.416 665.038 327.417 664.991 327.427C664.943 327.438 664.898 327.458 664.858 327.488L661.132 330.148C661.091 330.176 661.056 330.213 661.028 330.255C661.001 330.298 660.981 330.346 660.971 330.396C660.962 330.447 660.961 330.499 660.971 330.549C660.98 330.6 660.999 330.648 661.026 330.691L663.361 334.488C663.387 334.532 663.421 334.57 663.461 334.6C663.5 334.63 663.546 334.652 663.593 334.663C663.641 334.674 663.691 334.675 663.739 334.666C663.787 334.656 663.833 334.637 663.874 334.609L667.811 332.025C667.859 331.997 667.899 331.958 667.931 331.911C667.963 331.864 667.984 331.811 667.994 331.754C668.004 331.698 668.003 331.64 667.989 331.584C667.976 331.528 667.951 331.476 667.917 331.431Z" fill="#464A5F"/>
<path d="M725.93 280.088L723.88 276.988C723.758 276.81 723.576 276.689 723.372 276.649C723.167 276.609 722.956 276.653 722.782 276.773L719.748 278.942C719.577 279.069 719.46 279.261 719.419 279.477C719.378 279.693 719.417 279.918 719.528 280.105L721.399 283.161C721.515 283.346 721.695 283.476 721.899 283.524C722.104 283.572 722.318 283.535 722.497 283.42L725.703 281.284C725.792 281.222 725.869 281.141 725.929 281.047C725.989 280.953 726.03 280.847 726.052 280.736C726.073 280.625 726.073 280.51 726.052 280.399C726.031 280.288 725.99 280.182 725.93 280.088Z" fill="#464A5F"/>
<path d="M717.917 267.809L715.867 264.718C715.744 264.541 715.562 264.419 715.358 264.379C715.154 264.339 714.943 264.384 714.768 264.503L711.734 266.664C711.564 266.791 711.446 266.982 711.405 267.199C711.364 267.415 711.403 267.64 711.514 267.826L713.394 270.883C713.51 271.065 713.687 271.194 713.89 271.242C714.093 271.29 714.305 271.254 714.484 271.141L717.689 269.015C717.78 268.952 717.857 268.871 717.918 268.776C717.979 268.681 718.021 268.575 718.042 268.462C718.063 268.35 718.063 268.235 718.042 268.122C718.02 268.01 717.978 267.904 717.917 267.809Z" fill="#464A5F"/>
<path d="M720.471 284.057L718.421 280.948C718.299 280.771 718.117 280.65 717.913 280.61C717.708 280.57 717.497 280.614 717.323 280.733L714.289 282.894C714.118 283.022 714.001 283.213 713.96 283.429C713.919 283.646 713.958 283.87 714.069 284.057L715.948 287.114C716.064 287.296 716.242 287.424 716.445 287.472C716.647 287.52 716.86 287.484 717.038 287.372L720.244 285.245C720.422 285.119 720.546 284.923 720.589 284.701C720.631 284.478 720.589 284.247 720.471 284.057Z" fill="#464A5F"/>
<path d="M714.744 288.25L712.727 285.159C712.604 284.981 712.422 284.86 712.218 284.82C712.014 284.78 711.803 284.824 711.628 284.944L708.594 287.105C708.421 287.232 708.302 287.425 708.261 287.644C708.22 287.862 708.261 288.089 708.374 288.276L710.245 291.333C710.363 291.516 710.543 291.644 710.747 291.69C710.952 291.737 711.165 291.698 711.344 291.582L714.549 289.456C714.637 289.39 714.712 289.307 714.769 289.211C714.827 289.115 714.866 289.008 714.884 288.896C714.902 288.784 714.899 288.669 714.875 288.558C714.851 288.447 714.807 288.343 714.744 288.25Z" fill="#464A5F"/>
<path d="M708.952 292.503L706.902 289.404C706.779 289.224 706.595 289.101 706.389 289.061C706.183 289.021 705.97 289.067 705.795 289.188L702.769 291.358C702.597 291.484 702.478 291.675 702.435 291.891C702.393 292.108 702.431 292.333 702.541 292.521L704.42 295.577C704.537 295.762 704.716 295.892 704.92 295.94C705.125 295.988 705.339 295.951 705.519 295.836L708.724 293.7C708.813 293.638 708.89 293.557 708.95 293.463C709.01 293.369 709.052 293.263 709.073 293.152C709.094 293.041 709.094 292.926 709.073 292.815C709.053 292.704 709.011 292.598 708.952 292.503Z" fill="#464A5F"/>
<path d="M712.588 272.002L710.538 268.894C710.416 268.716 710.234 268.595 710.029 268.555C709.825 268.515 709.614 268.559 709.44 268.679L706.405 270.84C706.235 270.967 706.117 271.158 706.076 271.375C706.035 271.591 706.075 271.816 706.186 272.002L708.065 275.059C708.181 275.241 708.359 275.369 708.561 275.417C708.764 275.465 708.976 275.43 709.155 275.317L712.36 273.19C712.539 273.064 712.663 272.868 712.705 272.646C712.748 272.423 712.706 272.192 712.588 272.002Z" fill="#464A5F"/>
<path d="M706.861 276.204L704.811 273.105C704.688 272.927 704.506 272.806 704.302 272.766C704.098 272.726 703.887 272.77 703.713 272.889L700.678 275.059C700.506 275.185 700.387 275.376 700.345 275.592C700.302 275.808 700.34 276.034 700.45 276.221L702.329 279.278C702.446 279.463 702.625 279.593 702.83 279.641C703.034 279.689 703.249 279.651 703.428 279.536L706.633 277.401C706.723 277.339 706.799 277.258 706.859 277.164C706.919 277.07 706.961 276.964 706.982 276.853C707.003 276.742 707.003 276.627 706.983 276.516C706.962 276.404 706.92 276.299 706.861 276.204Z" fill="#464A5F"/>
<path d="M701.068 280.449L699.018 277.358C698.896 277.178 698.712 277.055 698.506 277.015C698.3 276.975 698.087 277.021 697.912 277.143L694.886 279.304C694.714 279.43 694.595 279.62 694.552 279.837C694.51 280.053 694.548 280.278 694.658 280.466L696.537 283.531C696.653 283.716 696.833 283.846 697.037 283.894C697.242 283.942 697.456 283.905 697.635 283.79L700.832 281.654C700.924 281.593 701.002 281.512 701.064 281.417C701.125 281.323 701.168 281.216 701.19 281.104C701.212 280.992 701.213 280.876 701.192 280.764C701.171 280.651 701.129 280.544 701.068 280.449Z" fill="#464A5F"/>
<path d="M703.151 296.749L701.101 293.657C700.979 293.48 700.797 293.359 700.592 293.319C700.388 293.279 700.177 293.323 700.003 293.442L696.968 295.586C696.798 295.713 696.68 295.905 696.639 296.121C696.598 296.337 696.638 296.562 696.749 296.749L698.628 299.805C698.744 299.987 698.922 300.116 699.125 300.164C699.327 300.212 699.54 300.176 699.718 300.064L702.924 297.928C703.1 297.802 703.222 297.608 703.265 297.388C703.307 297.167 703.266 296.938 703.151 296.749Z" fill="#464A5F"/>
<path d="M697.359 300.993L695.309 297.902C695.186 297.725 695.004 297.604 694.8 297.564C694.596 297.524 694.385 297.568 694.211 297.687L691.176 299.891C691.004 300.017 690.885 300.208 690.843 300.424C690.8 300.641 690.838 300.866 690.948 301.054L692.828 304.11C692.944 304.295 693.123 304.425 693.328 304.473C693.532 304.521 693.747 304.484 693.926 304.369L697.131 302.242C697.228 302.18 697.311 302.096 697.375 301.998C697.439 301.9 697.484 301.788 697.505 301.671C697.527 301.553 697.525 301.433 697.499 301.316C697.474 301.199 697.426 301.089 697.359 300.993Z" fill="#464A5F"/>
<path d="M691.819 305.626L689.272 301.786C689.245 301.743 689.21 301.706 689.17 301.678C689.13 301.65 689.084 301.63 689.036 301.62C688.989 301.611 688.94 301.611 688.892 301.622C688.845 301.633 688.8 301.653 688.76 301.682L685.066 304.343C685.025 304.371 684.99 304.407 684.962 304.45C684.935 304.492 684.915 304.54 684.906 304.591C684.896 304.641 684.895 304.693 684.905 304.744C684.914 304.794 684.933 304.843 684.96 304.885L687.295 308.682C687.321 308.727 687.355 308.765 687.395 308.795C687.435 308.825 687.48 308.846 687.527 308.857C687.575 308.869 687.625 308.87 687.673 308.86C687.721 308.851 687.767 308.831 687.808 308.803L691.745 306.22C691.789 306.188 691.826 306.146 691.854 306.098C691.881 306.05 691.899 305.996 691.906 305.94C691.913 305.884 691.909 305.827 691.894 305.773C691.879 305.719 691.853 305.669 691.819 305.626Z" fill="#464A5F"/>
<path d="M686.693 309.363L684.147 305.514C684.088 305.43 684.001 305.374 683.904 305.356C683.807 305.339 683.708 305.361 683.626 305.419L679.9 308.071C679.82 308.132 679.765 308.223 679.745 308.325C679.726 308.427 679.743 308.533 679.794 308.622L682.137 312.42C682.191 312.507 682.274 312.568 682.37 312.591C682.466 312.614 682.567 312.595 682.65 312.54L686.579 309.957C686.628 309.931 686.671 309.893 686.704 309.846C686.738 309.8 686.761 309.746 686.772 309.689C686.783 309.632 686.781 309.573 686.768 309.516C686.754 309.46 686.729 309.408 686.693 309.363Z" fill="#464A5F"/>
<path d="M680.942 313.599L678.395 309.75C678.338 309.667 678.253 309.611 678.157 309.593C678.062 309.576 677.963 309.598 677.883 309.656L674.157 312.308C674.075 312.367 674.019 312.458 673.999 312.561C673.979 312.663 673.998 312.77 674.051 312.859L676.386 316.656C676.441 316.741 676.524 316.802 676.62 316.824C676.715 316.846 676.815 316.829 676.899 316.776L680.836 314.193C680.886 314.167 680.929 314.129 680.962 314.083C680.996 314.036 681.018 313.982 681.029 313.924C681.039 313.867 681.036 313.807 681.021 313.751C681.006 313.695 680.979 313.643 680.942 313.599Z" fill="#464A5F"/>
<path d="M675.385 317.672L672.863 313.832C672.836 313.789 672.801 313.752 672.761 313.724C672.72 313.696 672.675 313.676 672.627 313.667C672.58 313.657 672.531 313.657 672.483 313.668C672.436 313.679 672.391 313.699 672.351 313.728L668.625 316.389C668.543 316.447 668.487 316.536 668.467 316.637C668.447 316.739 668.466 316.844 668.519 316.931L670.854 320.729C670.907 320.816 670.991 320.877 671.087 320.9C671.183 320.923 671.283 320.904 671.366 320.849L675.304 318.266C675.35 318.237 675.39 318.196 675.42 318.149C675.45 318.101 675.47 318.046 675.478 317.989C675.485 317.933 675.481 317.875 675.465 317.82C675.449 317.765 675.422 317.714 675.385 317.672Z" fill="#464A5F"/>
<path d="M710.929 282.43L708.887 279.33C708.764 279.15 708.58 279.027 708.374 278.987C708.168 278.947 707.955 278.993 707.78 279.114L704.746 281.284C704.575 281.411 704.458 281.603 704.417 281.819C704.376 282.035 704.415 282.26 704.526 282.447L706.405 285.503C706.523 285.687 706.703 285.815 706.907 285.861C707.112 285.908 707.325 285.869 707.504 285.753L710.701 283.626C710.79 283.564 710.867 283.483 710.927 283.389C710.987 283.295 711.029 283.189 711.05 283.078C711.071 282.967 711.071 282.852 711.05 282.741C711.029 282.63 710.988 282.524 710.929 282.43Z" fill="#464A5F"/>
<path d="M705.137 286.674L703.086 283.583C702.965 283.404 702.784 283.282 702.579 283.24C702.375 283.198 702.164 283.241 701.988 283.359L698.954 285.529C698.783 285.656 698.666 285.848 698.625 286.064C698.584 286.28 698.623 286.505 698.734 286.692L700.613 289.748C700.729 289.931 700.907 290.059 701.11 290.107C701.313 290.155 701.525 290.119 701.703 290.007L704.909 287.871C704.998 287.809 705.075 287.728 705.135 287.634C705.195 287.54 705.237 287.434 705.258 287.323C705.279 287.212 705.279 287.097 705.258 286.986C705.237 286.875 705.196 286.769 705.137 286.674Z" fill="#464A5F"/>
<path d="M699.344 290.919L697.269 287.837C697.146 287.657 696.963 287.534 696.757 287.494C696.551 287.454 696.338 287.5 696.163 287.622L693.201 289.774C693.03 289.9 692.91 290.091 692.868 290.307C692.826 290.524 692.863 290.749 692.974 290.937L694.853 293.993C694.969 294.178 695.148 294.308 695.353 294.356C695.558 294.404 695.772 294.366 695.951 294.252L699.157 292.125C699.244 292.059 699.318 291.975 699.375 291.879C699.432 291.783 699.47 291.675 699.487 291.563C699.504 291.451 699.501 291.337 699.476 291.226C699.452 291.116 699.407 291.011 699.344 290.919Z" fill="#464A5F"/>
<path d="M693.543 295.164L691.493 292.073C691.371 291.896 691.189 291.774 690.984 291.734C690.78 291.694 690.569 291.739 690.395 291.858L687.36 294.019C687.19 294.146 687.072 294.337 687.031 294.554C686.991 294.77 687.03 294.995 687.141 295.181L689.02 298.238C689.136 298.42 689.314 298.549 689.517 298.597C689.719 298.645 689.932 298.609 690.11 298.496L693.316 296.37C693.406 296.307 693.484 296.226 693.545 296.131C693.605 296.036 693.647 295.93 693.669 295.817C693.69 295.705 693.69 295.59 693.668 295.477C693.647 295.365 693.604 295.259 693.543 295.164Z" fill="#464A5F"/>
<path d="M688.011 299.797L685.465 295.956C685.437 295.913 685.402 295.877 685.361 295.848C685.319 295.82 685.273 295.8 685.225 295.79C685.177 295.781 685.127 295.781 685.079 295.792C685.031 295.803 684.985 295.824 684.944 295.853L681.218 298.514C681.137 298.572 681.081 298.661 681.061 298.762C681.041 298.864 681.06 298.969 681.113 299.056L683.447 302.862C683.475 302.906 683.51 302.943 683.55 302.973C683.591 303.002 683.637 303.022 683.686 303.033C683.734 303.043 683.784 303.043 683.832 303.033C683.881 303.023 683.927 303.003 683.968 302.974L687.898 300.391C687.945 300.363 687.987 300.325 688.019 300.278C688.052 300.232 688.074 300.178 688.085 300.122C688.096 300.065 688.095 300.007 688.082 299.951C688.07 299.894 688.045 299.842 688.011 299.797Z" fill="#464A5F"/>
<path d="M682.878 303.559L680.332 299.719C680.305 299.676 680.27 299.64 680.229 299.611C680.189 299.583 680.143 299.563 680.096 299.554C680.048 299.544 679.999 299.545 679.951 299.555C679.904 299.566 679.859 299.586 679.819 299.616L676.117 302.268C676.036 302.327 675.979 302.418 675.959 302.521C675.94 302.623 675.958 302.73 676.012 302.819L678.346 306.616C678.401 306.701 678.485 306.762 678.58 306.784C678.675 306.806 678.775 306.789 678.859 306.736L682.797 304.153C682.842 304.123 682.881 304.082 682.91 304.034C682.939 303.986 682.958 303.932 682.966 303.876C682.974 303.82 682.97 303.762 682.955 303.707C682.939 303.653 682.913 303.602 682.878 303.559Z" fill="#464A5F"/>
<path d="M677.134 307.77L674.588 303.921C674.529 303.837 674.442 303.781 674.345 303.763C674.249 303.745 674.149 303.768 674.067 303.826L670.349 306.478C670.268 306.537 670.211 306.628 670.191 306.731C670.172 306.834 670.19 306.941 670.244 307.029L672.578 310.826C672.632 310.914 672.715 310.975 672.811 310.998C672.907 311.02 673.008 311.002 673.091 310.947L677.028 308.364C677.076 308.335 677.117 308.296 677.148 308.249C677.18 308.203 677.201 308.149 677.211 308.093C677.222 308.036 677.22 307.978 677.207 307.922C677.193 307.866 677.168 307.814 677.134 307.77Z" fill="#464A5F"/>
<path d="M671.569 311.843L669.023 308.002C668.995 307.959 668.96 307.923 668.919 307.894C668.877 307.866 668.831 307.846 668.783 307.836C668.735 307.827 668.685 307.827 668.637 307.838C668.589 307.849 668.543 307.87 668.502 307.899L664.784 310.56C664.743 310.588 664.708 310.624 664.681 310.666C664.653 310.709 664.634 310.757 664.624 310.807C664.614 310.858 664.614 310.91 664.623 310.961C664.633 311.011 664.651 311.059 664.679 311.102L667.014 314.908C667.04 314.951 667.074 314.989 667.114 315.018C667.155 315.047 667.2 315.068 667.248 315.078C667.295 315.088 667.345 315.089 667.392 315.079C667.44 315.069 667.486 315.049 667.526 315.02L671.464 312.437C671.51 312.407 671.55 312.368 671.581 312.321C671.611 312.274 671.632 312.221 671.642 312.165C671.652 312.109 671.651 312.051 671.638 311.995C671.626 311.94 671.602 311.888 671.569 311.843Z" fill="#464A5F"/>
<path d="M669.821 321.753L667.274 317.904C667.216 317.821 667.129 317.764 667.032 317.746C666.935 317.729 666.835 317.751 666.754 317.809L663.028 320.461C662.946 320.521 662.889 320.612 662.869 320.714C662.85 320.817 662.869 320.924 662.922 321.013L665.257 324.81C665.311 324.895 665.395 324.955 665.49 324.978C665.586 325 665.685 324.983 665.769 324.93L669.707 322.347C669.756 322.321 669.799 322.283 669.832 322.236C669.865 322.19 669.888 322.136 669.899 322.079C669.91 322.022 669.909 321.963 669.895 321.907C669.881 321.85 669.856 321.798 669.821 321.753Z" fill="#464A5F"/>
<path d="M664.256 325.826L661.71 321.986C661.682 321.943 661.646 321.906 661.605 321.877C661.564 321.849 661.518 321.829 661.47 321.82C661.421 321.81 661.371 321.811 661.323 321.822C661.275 321.832 661.23 321.853 661.189 321.882L657.463 324.543C657.382 324.601 657.325 324.69 657.306 324.791C657.286 324.893 657.304 324.998 657.357 325.085L659.692 328.883C659.719 328.927 659.753 328.965 659.794 328.996C659.834 329.026 659.88 329.047 659.929 329.058C659.977 329.069 660.027 329.07 660.076 329.061C660.125 329.051 660.171 329.032 660.213 329.003L664.142 326.42C664.191 326.394 664.234 326.356 664.267 326.309C664.3 326.263 664.323 326.209 664.334 326.152C664.345 326.095 664.344 326.036 664.33 325.98C664.317 325.923 664.291 325.871 664.256 325.826Z" fill="#464A5F"/>
<path d="M672.985 301.432L670.585 297.807C670.508 297.695 670.393 297.619 670.264 297.595C670.135 297.57 670.002 297.6 669.894 297.678L666.355 300.184C666.246 300.263 666.17 300.383 666.145 300.52C666.119 300.657 666.144 300.799 666.216 300.916L668.413 304.498C668.486 304.614 668.599 304.696 668.729 304.725C668.858 304.754 668.993 304.728 669.104 304.653L672.814 302.181C672.874 302.146 672.926 302.098 672.967 302.04C673.009 301.983 673.038 301.917 673.054 301.846C673.07 301.776 673.072 301.703 673.06 301.632C673.049 301.561 673.023 301.493 672.985 301.432Z" fill="#464A5F"/>
<path d="M667.42 305.505L665.02 301.889C664.984 301.832 664.937 301.783 664.882 301.745C664.827 301.707 664.766 301.681 664.702 301.668C664.638 301.655 664.572 301.656 664.508 301.67C664.444 301.684 664.383 301.712 664.329 301.751L660.814 304.265C660.706 304.342 660.631 304.461 660.605 304.597C660.579 304.732 660.605 304.873 660.676 304.989L662.873 308.57C662.946 308.687 663.059 308.769 663.187 308.799C663.316 308.83 663.451 308.806 663.564 308.734L667.282 306.263C667.339 306.223 667.387 306.172 667.424 306.112C667.462 306.052 667.488 305.985 667.501 305.915C667.514 305.844 667.513 305.772 667.499 305.701C667.486 305.631 667.459 305.564 667.42 305.505Z" fill="#464A5F"/>
<path d="M661.856 309.586L659.415 305.961C659.34 305.85 659.226 305.774 659.098 305.749C658.971 305.725 658.839 305.755 658.732 305.832L655.209 308.338C655.1 308.417 655.025 308.537 654.999 308.674C654.973 308.811 654.999 308.953 655.071 309.07L657.267 312.652C657.34 312.768 657.454 312.85 657.583 312.879C657.713 312.908 657.847 312.882 657.959 312.807L661.677 310.336C661.737 310.301 661.79 310.254 661.832 310.196C661.874 310.139 661.905 310.073 661.921 310.003C661.938 309.932 661.941 309.859 661.93 309.787C661.919 309.716 661.893 309.647 661.856 309.586Z" fill="#464A5F"/>
<path d="M656.373 313.78L653.826 309.931C653.768 309.847 653.681 309.791 653.584 309.773C653.487 309.755 653.387 309.778 653.306 309.836L649.58 312.488C649.499 312.549 649.444 312.64 649.426 312.743C649.408 312.846 649.428 312.952 649.482 313.039L651.817 316.836C651.87 316.924 651.954 316.985 652.05 317.008C652.146 317.03 652.246 317.012 652.329 316.957L656.267 314.374C656.314 314.345 656.355 314.306 656.387 314.26C656.418 314.213 656.44 314.159 656.45 314.103C656.46 314.046 656.458 313.988 656.445 313.932C656.432 313.876 656.407 313.824 656.373 313.78Z" fill="#464A5F"/>
<path d="M722.22 274.06L720.048 270.736C719.924 270.558 719.74 270.437 719.534 270.398C719.328 270.36 719.116 270.407 718.942 270.53L710.286 276.91C710.119 277.038 710.004 277.229 709.965 277.443C709.926 277.657 709.965 277.879 710.074 278.064L712.157 281.456C712.217 281.55 712.293 281.631 712.383 281.693C712.472 281.756 712.572 281.799 712.677 281.821C712.782 281.842 712.89 281.842 712.995 281.819C713.1 281.796 713.199 281.752 713.288 281.689L722.017 275.222C722.185 275.093 722.299 274.9 722.337 274.684C722.375 274.468 722.333 274.245 722.22 274.06Z" fill="#464A5F"/>
<path d="M665.989 315.795L663.288 311.756C663.26 311.713 663.224 311.676 663.183 311.648C663.141 311.62 663.095 311.6 663.046 311.592C662.998 311.583 662.948 311.584 662.9 311.596C662.852 311.608 662.807 311.631 662.767 311.662L653.476 318.55C653.397 318.609 653.342 318.699 653.324 318.8C653.305 318.901 653.325 319.006 653.379 319.092L655.925 323.243C655.952 323.287 655.988 323.326 656.029 323.356C656.071 323.386 656.118 323.407 656.167 323.418C656.216 323.428 656.267 323.428 656.317 323.417C656.366 323.406 656.413 323.385 656.454 323.355L665.899 316.354C665.98 316.292 666.035 316.199 666.052 316.094C666.069 315.989 666.046 315.882 665.989 315.795Z" fill="#464A5F"/>
<path d="M695.545 284.909L693.104 281.078C693.048 280.991 692.962 280.931 692.865 280.91C692.768 280.889 692.667 280.909 692.583 280.966L671.96 295.689C671.919 295.717 671.884 295.753 671.856 295.796C671.829 295.839 671.809 295.886 671.8 295.937C671.79 295.988 671.789 296.04 671.799 296.09C671.808 296.141 671.827 296.189 671.854 296.232L674.393 300.365C674.42 300.41 674.455 300.448 674.497 300.478C674.538 300.508 674.585 300.529 674.635 300.54C674.684 300.55 674.735 300.55 674.784 300.539C674.833 300.528 674.88 300.507 674.922 300.477L695.488 285.46C695.563 285.394 695.612 285.3 695.623 285.197C695.633 285.094 695.605 284.991 695.545 284.909Z" fill="#464A5F"/>
<path opacity="0.1" d="M695.642 271.753L684.676 254.885C684.372 254.416 683.906 254.094 683.379 253.987C682.851 253.881 682.306 253.999 681.861 254.317L651.654 275.782C651.432 275.942 651.241 276.146 651.093 276.383C650.945 276.62 650.843 276.886 650.792 277.165C650.742 277.444 650.744 277.731 650.798 278.01C650.852 278.288 650.958 278.552 651.109 278.787L662.287 296.137C662.437 296.373 662.63 296.575 662.855 296.731C663.079 296.887 663.331 296.995 663.595 297.048C663.859 297.101 664.13 297.098 664.393 297.039C664.656 296.98 664.905 296.867 665.126 296.706L695.121 274.741C695.341 274.581 695.529 274.377 695.675 274.14C695.82 273.903 695.92 273.639 695.968 273.361C696.016 273.084 696.013 272.799 695.957 272.523C695.901 272.247 695.794 271.985 695.642 271.753Z" fill="black"/>
<path d="M696.146 271.856L685.18 254.988C684.875 254.521 684.409 254.2 683.882 254.094C683.356 253.987 682.811 254.105 682.365 254.42L652.199 275.903C651.975 276.061 651.783 276.264 651.634 276.501C651.484 276.738 651.381 277.004 651.33 277.283C651.278 277.563 651.28 277.85 651.334 278.129C651.388 278.408 651.494 278.673 651.646 278.908L662.791 296.241C662.942 296.476 663.134 296.678 663.359 296.834C663.583 296.991 663.835 297.098 664.099 297.151C664.363 297.204 664.634 297.201 664.897 297.142C665.16 297.083 665.409 296.97 665.63 296.809L695.642 274.844C695.861 274.683 696.047 274.478 696.191 274.24C696.335 274.003 696.433 273.738 696.48 273.461C696.526 273.183 696.521 272.898 696.464 272.623C696.407 272.348 696.299 272.087 696.146 271.856Z" fill="#939498"/>
<path d="M764.151 299.116L740.883 290.902L666.257 345.768L689.354 353.732C689.977 353.947 690.638 354.006 691.286 353.905C691.934 353.803 692.551 353.544 693.088 353.147L764.362 300.692C764.501 300.606 764.612 300.477 764.682 300.324C764.752 300.17 764.777 299.998 764.754 299.829C764.732 299.661 764.662 299.503 764.555 299.376C764.447 299.249 764.307 299.159 764.151 299.116Z" fill="#264653"/>
</g>
<defs>
<clipPath id="clip0">
<rect width="882" height="653.158" fill="white"/>
</clipPath>
</defs>
</svg>
