<svg width="766" height="425" viewBox="0 0 766 425" fill="none" xmlns="http://www.w3.org/2000/svg">
<g clip-path="url(#clip0)">
<path d="M439.221 415.911C434.48 415.908 429.934 413.795 426.583 410.037C423.232 406.279 421.349 401.184 421.349 395.872C421.349 390.56 423.232 385.465 426.583 381.707C429.934 377.949 434.48 375.837 439.221 375.833H704.862C703.526 373.085 701.554 370.79 699.153 369.191C696.752 367.592 694.011 366.747 691.218 366.744H163.193C156.305 366.753 149.7 369.826 144.832 375.287C139.964 380.749 137.23 388.153 137.231 395.872C137.234 403.59 139.97 410.991 144.837 416.451C149.704 421.912 156.306 424.986 163.193 425H691.218C694.011 424.998 696.752 424.152 699.153 422.553C701.554 420.954 703.526 418.66 704.862 415.911L439.221 415.911Z" fill="#264653"/>
<path d="M705.215 386.875H452.652C452.265 386.874 451.895 386.701 451.622 386.394C451.349 386.088 451.195 385.672 451.195 385.239C451.195 384.806 451.349 384.39 451.622 384.084C451.895 383.777 452.265 383.604 452.652 383.603H705.215C705.602 383.604 705.972 383.777 706.245 384.084C706.518 384.39 706.671 384.806 706.671 385.239C706.671 385.672 706.518 386.088 706.245 386.394C705.972 386.701 705.602 386.874 705.215 386.875Z" fill="#CCCCCC"/>
<path d="M705.215 397.508H452.652C452.265 397.508 451.893 397.336 451.619 397.029C451.346 396.722 451.192 396.306 451.192 395.872C451.192 395.438 451.346 395.022 451.619 394.715C451.893 394.409 452.265 394.236 452.652 394.236H705.215C705.602 394.236 705.974 394.409 706.247 394.715C706.521 395.022 706.675 395.438 706.675 395.872C706.675 396.306 706.521 396.722 706.247 397.029C705.974 397.336 705.602 397.508 705.215 397.508Z" fill="#CCCCCC"/>
<path d="M705.215 408.141H452.652C452.265 408.14 451.895 407.967 451.622 407.661C451.349 407.354 451.195 406.938 451.195 406.505C451.195 406.072 451.349 405.657 451.622 405.35C451.895 405.043 452.265 404.87 452.652 404.869H705.215C705.602 404.87 705.972 405.043 706.245 405.35C706.518 405.657 706.671 406.072 706.671 406.505C706.671 406.938 706.518 407.354 706.245 407.661C705.972 407.967 705.602 408.14 705.215 408.141Z" fill="#CCCCCC"/>
<path d="M370.605 359.475C365.864 359.471 361.318 357.358 357.967 353.6C354.616 349.843 352.733 344.748 352.733 339.435C352.733 334.123 354.616 329.028 357.967 325.27C361.318 321.513 365.864 319.4 370.605 319.396H636.247C634.911 316.648 632.938 314.354 630.538 312.754C628.137 311.155 625.396 310.31 622.603 310.308H94.5782C87.6893 310.316 81.0852 313.389 76.2169 318.851C71.3487 324.312 68.6146 331.716 68.6152 339.435C68.6188 347.153 71.3543 354.554 76.2216 360.015C81.0889 365.475 87.6906 368.55 94.5782 368.563H622.603C625.396 368.561 628.137 367.716 630.538 366.116C632.938 364.517 634.911 362.223 636.247 359.474L370.605 359.475Z" fill="#E9C46A"/>
<path d="M636.599 330.438H384.036C383.649 330.437 383.279 330.264 383.006 329.958C382.733 329.651 382.58 329.235 382.58 328.802C382.58 328.369 382.733 327.954 383.006 327.647C383.279 327.34 383.649 327.168 384.036 327.167H636.599C636.986 327.167 637.358 327.339 637.632 327.646C637.905 327.952 638.059 328.368 638.059 328.802C638.059 329.236 637.905 329.652 637.632 329.959C637.358 330.266 636.986 330.438 636.599 330.438Z" fill="#CCCCCC"/>
<path d="M636.599 341.071H384.036C383.649 341.071 383.278 340.899 383.004 340.592C382.73 340.285 382.576 339.869 382.576 339.435C382.576 339.002 382.73 338.585 383.004 338.279C383.278 337.972 383.649 337.8 384.036 337.8H636.599C636.987 337.8 637.358 337.972 637.632 338.279C637.905 338.585 638.059 339.002 638.059 339.435C638.059 339.869 637.905 340.285 637.632 340.592C637.358 340.899 636.987 341.071 636.599 341.071Z" fill="#CCCCCC"/>
<path d="M636.599 351.704H384.036C383.649 351.703 383.279 351.53 383.006 351.224C382.733 350.917 382.58 350.502 382.58 350.068C382.58 349.635 382.733 349.22 383.006 348.913C383.279 348.606 383.649 348.434 384.036 348.433H636.599C636.791 348.432 636.982 348.474 637.159 348.556C637.337 348.638 637.498 348.758 637.634 348.91C637.77 349.062 637.878 349.243 637.951 349.442C638.025 349.64 638.063 349.853 638.063 350.068C638.063 350.284 638.025 350.497 637.951 350.695C637.878 350.894 637.77 351.075 637.634 351.227C637.498 351.379 637.337 351.499 637.159 351.581C636.982 351.663 636.791 351.705 636.599 351.704Z" fill="#CCCCCC"/>
<path d="M301.99 301.155C297.249 301.151 292.703 299.038 289.352 295.281C286.001 291.523 284.118 286.428 284.118 281.116C284.118 275.803 286.001 270.708 289.352 266.951C292.703 263.193 297.249 261.08 301.99 261.076H567.631C566.295 258.328 564.323 256.034 561.922 254.435C559.522 252.835 556.781 251.99 553.988 251.988H25.9625C19.0736 251.996 12.4695 255.069 7.60134 260.531C2.73317 265.993 -0.000857117 273.396 2.01564e-07 281.116C0.00348552 288.833 2.7389 296.234 7.60613 301.695C12.4734 307.155 19.0749 310.23 25.9625 310.243H553.988C556.781 310.241 559.522 309.396 561.922 307.796C564.323 306.197 566.295 303.903 567.631 301.155L301.99 301.155Z" fill="#F4A261"/>
<path d="M567.984 272.118H315.421C315.034 272.117 314.664 271.945 314.391 271.638C314.118 271.331 313.964 270.916 313.964 270.483C313.964 270.049 314.118 269.634 314.391 269.327C314.664 269.021 315.034 268.848 315.421 268.847H567.984C568.371 268.847 568.743 269.019 569.016 269.326C569.29 269.633 569.444 270.049 569.444 270.483C569.444 270.916 569.29 271.332 569.016 271.639C568.743 271.946 568.371 272.118 567.984 272.118Z" fill="#CCCCCC"/>
<path d="M567.984 282.751H315.421C315.229 282.751 315.039 282.709 314.862 282.627C314.685 282.545 314.524 282.424 314.389 282.272C314.253 282.12 314.145 281.94 314.072 281.742C313.999 281.543 313.961 281.33 313.961 281.116C313.961 280.901 313.999 280.688 314.072 280.49C314.145 280.291 314.253 280.111 314.389 279.959C314.524 279.807 314.685 279.686 314.862 279.604C315.039 279.522 315.229 279.48 315.421 279.48H567.984C568.176 279.48 568.366 279.522 568.543 279.604C568.72 279.686 568.881 279.807 569.016 279.959C569.152 280.111 569.26 280.291 569.333 280.49C569.406 280.688 569.444 280.901 569.444 281.116C569.444 281.33 569.406 281.543 569.333 281.742C569.26 281.94 569.152 282.12 569.016 282.272C568.881 282.424 568.72 282.545 568.543 282.627C568.366 282.709 568.176 282.751 567.984 282.751Z" fill="#CCCCCC"/>
<path d="M567.984 293.384H315.421C315.034 293.384 314.662 293.212 314.389 292.905C314.115 292.599 313.961 292.182 313.961 291.749C313.961 291.315 314.115 290.899 314.389 290.592C314.662 290.285 315.034 290.113 315.421 290.113H567.984C568.176 290.113 568.366 290.155 568.543 290.237C568.72 290.319 568.881 290.44 569.016 290.592C569.152 290.744 569.26 290.924 569.333 291.123C569.406 291.321 569.444 291.534 569.444 291.749C569.444 291.963 569.406 292.176 569.333 292.375C569.26 292.573 569.152 292.753 569.016 292.905C568.881 293.057 568.72 293.178 568.543 293.26C568.366 293.342 568.176 293.384 567.984 293.384Z" fill="#CCCCCC"/>
<path d="M573.816 176.742C572.431 176.739 571.098 176.147 570.088 175.085C569.078 174.023 568.465 172.571 568.374 171.022L567.564 157.154C567.469 155.535 567.953 153.939 568.908 152.719C569.863 151.499 571.212 150.753 572.657 150.647L669.615 143.532C671.143 143.42 672.676 143.646 674.127 144.198C675.577 144.75 676.916 145.616 678.067 146.748C679.219 147.88 680.16 149.254 680.838 150.794C681.515 152.333 681.915 154.007 682.015 155.719C682.115 157.432 681.913 159.149 681.421 160.775C680.929 162.4 680.155 163.9 679.145 165.19C678.135 166.481 676.909 167.535 675.535 168.294C674.161 169.053 672.667 169.502 671.139 169.614L574.182 176.728C574.06 176.737 573.938 176.741 573.816 176.742Z" fill="#E9C46A"/>
<path d="M592.935 178.53C591.523 178.527 590.166 177.912 589.149 176.814C588.132 175.716 587.534 174.219 587.479 172.638L586.788 151.925C586.762 151.122 586.876 150.321 587.126 149.568C587.375 148.814 587.755 148.123 588.243 147.534C588.731 146.945 589.318 146.469 589.97 146.134C590.621 145.799 591.326 145.611 592.043 145.581L671.774 142.242C673.221 142.182 674.631 142.768 675.693 143.872C676.755 144.976 677.381 146.508 677.436 148.13L678.127 168.842C678.153 169.645 678.039 170.446 677.789 171.2C677.54 171.953 677.16 172.644 676.672 173.233C676.184 173.822 675.598 174.298 674.946 174.633C674.294 174.968 673.589 175.156 672.872 175.186L593.141 178.525C593.073 178.528 593.003 178.53 592.935 178.53Z" fill="#2F2E41"/>
<path d="M686.367 369.457H673.965C672.517 369.456 671.128 368.81 670.105 367.663C669.081 366.515 668.505 364.96 668.503 363.337V247.514C668.505 245.891 669.081 244.335 670.105 243.188C671.128 242.041 672.517 241.395 673.965 241.394H686.367C687.815 241.395 689.203 242.041 690.227 243.188C691.251 244.335 691.827 245.891 691.829 247.514V363.337C691.827 364.96 691.251 366.515 690.227 367.663C689.203 368.81 687.815 369.456 686.367 369.457Z" fill="#2F2E41"/>
<path d="M631.318 308.234L620.712 301.031C619.475 300.188 618.586 298.83 618.241 297.254C617.896 295.678 618.124 294.013 618.873 292.625L672.453 193.576C673.205 192.189 674.417 191.193 675.823 190.807C677.229 190.42 678.715 190.675 679.954 191.514L690.56 198.718C691.798 199.56 692.686 200.919 693.031 202.494C693.376 204.07 693.149 205.735 692.4 207.124L638.82 306.173C638.068 307.559 636.856 308.555 635.45 308.941C634.043 309.328 632.557 309.073 631.318 308.234Z" fill="#2F2E41"/>
<path d="M666.854 140.519C690.522 140.519 709.708 119.02 709.708 92.4999C709.708 65.9798 690.522 44.481 666.854 44.481C643.186 44.481 624 65.9798 624 92.4999C624 119.02 643.186 140.519 666.854 140.519Z" fill="#E9C46A"/>
<path d="M643.657 108.895C642.279 108.388 641.013 107.555 639.946 106.454C639.239 105.668 638.693 104.718 638.348 103.67C638.003 102.623 637.867 101.504 637.948 100.391C637.993 99.5987 638.201 98.8283 638.555 98.1405C638.91 97.4527 639.402 96.866 639.992 96.4264C641.525 95.3249 643.574 95.3216 645.661 96.3522L645.582 77.6063L647.263 77.5973L647.356 99.6351L646.061 98.7224C644.559 97.6659 642.415 96.9222 640.9 98.0115C640.525 98.2994 640.215 98.6801 639.993 99.1241C639.772 99.5681 639.644 100.063 639.621 100.572C639.565 101.4 639.668 102.233 639.924 103.013C640.181 103.793 640.584 104.502 641.107 105.092C642.962 107.078 645.67 107.699 648.757 108.254L648.491 110.113C646.85 109.87 645.233 109.462 643.657 108.895Z" fill="#2F2E41"/>
<path d="M628.259 76.6592L628.039 78.5259L637.012 79.8538L637.232 77.9871L628.259 76.6592Z" fill="#2F2E41"/>
<path d="M656.582 80.8495L656.362 82.7162L665.336 84.0441L665.556 82.1774L656.582 80.8495Z" fill="#2F2E41"/>
<path d="M703.314 278.589H631.05C629.156 278.587 627.341 277.743 626.002 276.243C624.663 274.742 623.909 272.708 623.907 270.586L639.036 140.592C639.048 138.48 639.805 136.459 641.143 134.97C642.481 133.482 644.29 132.648 646.175 132.649H671.82C682.063 132.662 691.884 137.228 699.127 145.344C706.37 153.46 710.444 164.464 710.456 175.942V270.586C710.454 272.708 709.701 274.742 708.362 276.243C707.023 277.743 705.207 278.587 703.314 278.589Z" fill="#2F2E41"/>
<path d="M765.487 227.366C765.933 228.437 766.094 229.629 765.95 230.799C765.805 231.97 765.362 233.069 764.674 233.963L756.566 244.479C756.097 245.087 755.525 245.586 754.885 245.947C754.244 246.308 753.546 246.524 752.83 246.582C752.115 246.641 751.396 246.541 750.715 246.288C750.035 246.035 749.405 245.634 748.862 245.109L675.337 173.931C674.178 172.809 673.227 171.442 672.539 169.909C671.851 168.375 671.44 166.705 671.328 164.993C671.216 163.281 671.407 161.561 671.888 159.932C672.37 158.303 673.133 156.795 674.134 155.497C675.136 154.198 676.356 153.133 677.725 152.362C679.093 151.592 680.584 151.131 682.112 151.006C683.64 150.882 685.174 151.095 686.628 151.635C688.082 152.175 689.427 153.031 690.586 154.153L764.111 225.331C764.693 225.893 765.162 226.587 765.487 227.366Z" fill="#E9C46A"/>
<path d="M749.259 203.877C749.705 204.947 749.866 206.139 749.721 207.31C749.577 208.48 749.134 209.579 748.446 210.474L734.596 228.435C733.649 229.662 732.305 230.417 730.861 230.535C729.417 230.653 727.99 230.125 726.893 229.065L666.518 170.618C665.975 170.092 665.53 169.452 665.208 168.734C664.886 168.016 664.694 167.234 664.641 166.432C664.589 165.63 664.678 164.825 664.904 164.062C665.13 163.299 665.487 162.594 665.956 161.985L679.805 144.024C680.274 143.416 680.845 142.917 681.486 142.556C682.127 142.196 682.825 141.98 683.54 141.921C684.255 141.863 684.974 141.963 685.655 142.215C686.336 142.468 686.966 142.869 687.508 143.394L747.883 201.842C748.465 202.404 748.934 203.097 749.259 203.877Z" fill="#2F2E41"/>
<path d="M667.655 64.0198C661.927 58.7078 654.269 63.7319 647.79 63.0188C641.592 62.3366 636.603 56.2247 635.244 49.6476C633.658 41.9744 637.096 34.1798 642.275 29.2644C647.947 23.8808 655.562 22.2078 662.819 23.027C671.136 23.9659 678.799 28.1388 685.698 33.2365C692.354 38.0003 698.496 43.6111 704.001 49.9571C708.934 55.8335 713.149 62.8736 714.593 70.8918C715.905 78.1786 715.135 86.3009 711.382 92.5774C709.39 95.7959 706.692 98.3848 703.547 100.095C700.27 101.985 696.764 103.361 693.594 105.488C688.801 108.702 684.201 115.254 685.832 121.936C686.183 123.396 686.848 124.737 687.769 125.841C688.876 127.166 690.802 125.342 689.692 124.013C687.742 121.679 687.764 118.509 688.733 115.652C689.889 112.431 691.987 109.745 694.683 108.035C698.002 105.814 701.683 104.409 705.088 102.378C708.348 100.52 711.16 97.8061 713.284 94.4683C717.29 87.9728 718.38 79.6071 717.315 71.9122C716.164 63.5851 712.207 56.0802 707.301 49.825C701.961 43.0176 695.447 37.2977 688.804 32.1761C681.676 26.6805 673.827 22.0732 665.2 20.53C657.723 19.1922 649.661 20.2855 643.222 24.9747C637.211 29.3517 632.67 36.7577 632.345 44.9321C632.241 48.6505 633.024 52.3326 634.612 55.5996C636.2 58.8665 638.537 61.6003 641.381 63.5195C644.297 65.3919 647.665 66.1909 651.009 65.8038C654.585 65.4708 658.148 64.166 661.757 64.4304C663.389 64.5066 664.955 65.1769 666.216 66.3399C667.468 67.5005 668.897 65.1709 667.655 64.0198Z" fill="#2F2E41"/>
<path d="M617.941 294.298C617.956 294.192 617.974 294.085 617.995 293.98C618.144 293.193 618.431 292.448 618.84 291.787C619.248 291.125 619.769 290.562 620.373 290.128L630.795 282.595C632.013 281.717 633.492 281.416 634.908 281.759C636.323 282.101 637.56 283.058 638.346 284.421L670.496 340.273C671.281 341.637 671.55 343.295 671.245 344.881C670.939 346.468 670.084 347.854 668.867 348.734L658.444 356.266C657.226 357.144 655.748 357.445 654.332 357.102C652.917 356.76 651.68 355.803 650.894 354.44L618.744 298.588C618.009 297.32 617.723 295.79 617.941 294.298Z" fill="#2F2E41"/>
</g>
<defs>
<clipPath id="clip0">
<rect width="766" height="425" fill="white"/>
</clipPath>
</defs>
</svg>
