<svg width="67" height="68" viewBox="0 0 67 68" fill="none" xmlns="http://www.w3.org/2000/svg">
<path d="M43.6667 37.6131L33.5 47.8291L43.6667 37.6131ZM33.5 47.8291L23.3333 37.6131L33.5 47.8291ZM33.5 47.8291V20.5864V47.8291ZM33.5 64.8558C29.4947 64.8558 25.5286 64.0631 21.8282 62.5229C18.1277 60.9827 14.7654 58.7252 11.9332 55.8792C9.10106 53.0333 6.85444 49.6547 5.32167 45.9363C3.78891 42.2179 3 38.2325 3 34.2078C3 30.183 3.78891 26.1976 5.32167 22.4793C6.85444 18.7609 9.10106 15.3822 11.9332 12.5363C14.7654 9.69037 18.1277 7.43285 21.8282 5.89264C25.5286 4.35243 29.4947 3.55969 33.5 3.55969C41.5891 3.55969 49.3469 6.78868 55.0668 12.5363C60.7866 18.2839 64 26.0794 64 34.2078C64 42.3361 60.7866 50.1316 55.0668 55.8792C49.3469 61.6268 41.5891 64.8558 33.5 64.8558Z" stroke="#264653" stroke-width="6" stroke-linecap="round" stroke-linejoin="round"/>
</svg>
