<svg width="1024" height="100" viewBox="0 0 1024 100" fill="none" xmlns="http://www.w3.org/2000/svg">
<path d="M-6 66.9179L28.4334 53.1165C62.8665 39.5218 131.734 11.6087 200.6 14.5551C269.466 17.2947 338.333 50.3768 407.2 47.6372C476.066 44.6908 544.935 6.43969 613.8 0.753709C682.665 -4.93228 751.535 22.9808 820.4 36.5754C889.265 50.3769 958.135 50.3769 992.565 50.3769H1027V100H992.565C958.135 100 889.265 100 820.4 100C751.535 100 682.665 100 613.8 100C544.935 100 476.066 100 407.2 100C338.333 100 269.466 100 200.6 100C131.734 100 62.8665 100 28.4334 100H-6V66.9179Z" fill="#E9C46A"/>
</svg>
