<svg width="77" height="72" viewBox="0 0 77 72" fill="none" xmlns="http://www.w3.org/2000/svg">
<path d="M75.3798 18.6149C74.9336 17.1202 74.0827 15.7584 72.9092 14.6611C71.7357 13.5638 70.2793 12.7681 68.6808 12.3509C62.6812 10.8479 38.5353 10.8479 38.5353 10.8479C38.5353 10.8479 14.4503 10.8179 8.38976 12.3509C6.79125 12.7681 5.33485 13.5638 4.16134 14.6611C2.98783 15.7584 2.13688 17.1202 1.69076 18.6149C0.553475 24.3585 -0.00721377 30.1888 0.0160128 36.0299C-0.0028229 41.849 0.557847 47.6571 1.69076 53.3789C2.13688 54.8737 2.98783 56.2355 4.16134 57.3328C5.33485 58.4301 6.79125 59.2258 8.38976 59.6429C14.3829 61.1489 38.5353 61.1489 38.5353 61.1489C38.5353 61.1489 62.617 61.1489 68.6808 59.6429C70.2793 59.2258 71.7357 58.4301 72.9092 57.3328C74.0827 56.2355 74.9336 54.8737 75.3798 53.3789C76.489 47.655 77.026 41.847 76.9839 36.0299C77.0304 30.1909 76.4934 24.3606 75.3798 18.6149ZM30.8288 46.8029V25.2239L50.9258 36.0299L30.8288 46.8029Z" fill="#DC2C2C"/>
</svg>
